<svg width="24" height="24" viewBox="0 0 24 24" fill="none" xmlns="http://www.w3.org/2000/svg">
<rect width="24" height="24" rx="5" fill="#FF490F"/>
<g clip-path="url(#clip0_2275_1081)">
<path d="M11.6089 16.8595C11.3702 17.1051 11.0337 17.2445 10.6805 17.2445C10.3278 17.2445 9.99127 17.1051 9.75262 16.8595L5.37534 12.4852C4.87489 11.9568 4.87489 11.1574 5.37534 10.629C5.6048 10.4008 5.91949 10.2662 6.25254 10.2548C6.62187 10.2378 6.97983 10.3746 7.2329 10.629L10.6805 14.0757L16.755 8.00523C16.9967 7.76484 17.3323 7.62891 17.6833 7.62891C18.0338 7.62891 18.3695 7.76484 18.6112 8.00523C19.1117 8.53321 19.1117 9.33218 18.6112 9.86016L11.6089 16.8595Z" fill="white"/>
</g>
<defs>
<clipPath id="clip0_2275_1081">
<rect width="14" height="14" fill="white" transform="translate(5 5)"/>
</clipPath>
</defs>
</svg>
