<svg width="182" height="50" viewBox="0 0 182 50" fill="none" xmlns="http://www.w3.org/2000/svg">
<path d="M75.7344 16.0977L71.9352 35.4276H66.7183L61.2746 26.4302L59.5168 35.4276H53.3359L57.1352 16.0977H62.352L67.7957 25.0951L69.5536 16.0977H75.7344Z" fill="white"/>
<path d="M95.1303 22.5406C95.1303 27.4166 91.3877 30.7253 85.5471 30.7253H82.2582L81.351 35.4853H75L78.7992 16.1553H87.1916C92.295 16.0973 95.1303 18.4772 95.1303 22.5406ZM88.6659 23.1211C88.6659 21.7279 87.7586 21.1475 86.2843 21.1475H84.1295L83.2222 25.6752H85.8307C87.6452 25.6752 88.6659 24.7464 88.6659 23.1211Z" fill="white"/>
<path d="M97.8471 20.3359H103.915L100.966 35.4284H94.8984L97.8471 20.3359Z" fill="white"/>
<path d="M104.312 28.7526C104.312 23.7605 108.168 20.1035 113.612 20.1035C117.128 20.1035 119.85 21.7869 120.927 24.5152L115.767 26.9532C115.257 25.56 114.349 25.0376 113.329 25.0376C111.684 25.0376 110.493 26.3727 110.493 28.4044C110.493 29.8556 111.287 30.8424 112.818 30.8424C114.009 30.8424 114.86 30.3199 115.597 28.9268L120.077 31.597C118.602 34.2672 115.88 35.7764 112.421 35.7764C107.488 35.7184 104.312 32.9901 104.312 28.7526Z" fill="white"/>
<path d="M119.906 34.3833L122.004 30.1458C123.479 31.0746 125.463 31.5389 127.108 31.5389C128.469 31.5389 128.922 31.2487 128.922 30.8424C128.922 29.5653 121.494 30.9004 121.494 25.8503C121.494 21.961 125.18 20.1035 129.83 20.1035C131.984 20.1035 134.083 20.5099 135.614 21.2645L133.515 25.502C131.984 24.5732 130.34 24.341 129.092 24.341C127.675 24.341 127.221 24.7473 127.221 25.0956C127.221 26.4888 134.65 25.0376 134.65 30.0877C134.65 33.8609 130.907 35.7764 126.371 35.7764C123.762 35.7184 121.21 35.1379 119.906 34.3833Z" fill="white"/>
<path d="M97.6797 16.7363C97.6797 14.8208 99.2107 13.3115 101.592 13.3115C103.747 13.3115 105.051 14.4725 105.051 16.1559C105.051 18.2456 103.52 19.6387 101.139 19.6387C99.0406 19.6968 97.6797 18.4197 97.6797 16.7363Z" fill="url(#paint0_linear_2538_3808)"/>
<path d="M17.8943 6H27.2506C28.1012 6 28.7817 6.69657 28.7817 7.56729V17.1452C28.7817 18.0159 28.1012 18.7125 27.2506 18.7125H17.8943C17.0437 18.7125 16.3633 18.0159 16.3633 17.1452V7.56729C16.3633 6.69657 17.0437 6 17.8943 6Z" fill="#FFD43B"/>
<path d="M5.53104 18.6543H14.8874C15.7379 18.6543 16.4184 19.3509 16.4184 20.2216V29.7995C16.4184 30.6702 15.7379 31.3668 14.8874 31.3668H5.53104C4.68046 31.3668 4 30.6702 4 29.7995V20.2216C4 19.3509 4.68046 18.6543 5.53104 18.6543Z" fill="#FF3E3E"/>
<path d="M30.2537 18.6543H39.61C40.4606 18.6543 41.1411 19.3509 41.1411 20.2216V29.7995C41.1411 30.6702 40.4606 31.3668 39.61 31.3668H30.2537C29.4031 31.3668 28.7227 30.6702 28.7227 29.7995V20.2216C28.7794 19.3509 29.4598 18.6543 30.2537 18.6543Z" fill="#FF8845"/>
<path d="M17.8943 31.3672H27.2506C28.1012 31.3672 28.7817 32.0638 28.7817 32.9345V42.5124C28.7817 43.3831 28.1012 44.0797 27.2506 44.0797H17.8943C17.0437 44.0797 16.3633 43.3831 16.3633 42.5124V32.8764C16.3633 32.0638 17.0437 31.3672 17.8943 31.3672Z" fill="#FF7448"/>
<path d="M10.1797 26.5487C10.1797 25.678 10.8601 24.9814 11.7107 24.9814H22.5981V36.1266C22.5981 36.9973 21.9176 37.6939 21.067 37.6939H11.7107C10.8601 37.6939 10.1797 36.9973 10.1797 36.1266V26.5487Z" fill="#FF0E0E" fill-opacity="0.9"/>
<path d="M22.6016 13.8944C22.6016 13.0237 23.282 12.3271 24.1326 12.3271H33.4889C34.3395 12.3271 35.02 13.0237 35.02 13.8944V23.4723C35.02 24.3431 34.3395 25.0396 33.4889 25.0396H22.6016V13.8944Z" fill="#FF6A16" fill-opacity="0.9"/>
<path d="M10.1797 13.8944C10.1797 13.0237 10.8601 12.3271 11.7107 12.3271H21.067C21.9176 12.3271 22.5981 13.0237 22.5981 13.8944V25.0396H11.7107C10.8601 25.0396 10.1797 24.3431 10.1797 23.4723V13.8944Z" fill="#FFC90A" fill-opacity="0.9"/>
<path d="M22.5997 25.04H33.487C34.3376 25.04 35.0181 25.7366 35.0181 26.6073V36.1852C35.0181 37.0559 34.3376 37.7525 33.487 37.7525H24.074C23.2234 37.7525 22.543 37.0559 22.543 36.1852V25.04H22.5997Z" fill="#FF511B" fill-opacity="0.9"/>
<rect x="140" width="42" height="18" rx="8.5" fill="#FF490F"/>
<path d="M152.064 8.918C152.834 8.54 153.38 7.798 153.38 6.734C153.38 5.152 152.12 4.2 149.866 4.2H145.47V14H150.146C152.624 14 153.898 13.034 153.898 11.354C153.898 10.052 153.17 9.226 152.064 8.918ZM149.74 5.334C151.168 5.334 151.98 5.866 151.98 6.902C151.98 7.938 151.168 8.47 149.74 8.47H146.87V5.334H149.74ZM150.09 12.866H146.87V9.604H150.09C151.644 9.604 152.484 10.108 152.484 11.242C152.484 12.376 151.644 12.866 150.09 12.866ZM162.576 10.332C162.576 8.05 161.05 6.51 158.908 6.51C156.766 6.51 155.184 8.092 155.184 10.29C155.184 12.502 156.78 14.084 159.174 14.084C160.406 14.084 161.428 13.664 162.1 12.88L161.358 12.012C160.812 12.614 160.084 12.908 159.216 12.908C157.746 12.908 156.696 12.04 156.528 10.738H162.548C162.562 10.612 162.576 10.444 162.576 10.332ZM158.908 7.644C160.21 7.644 161.148 8.526 161.288 9.772H156.528C156.668 8.512 157.62 7.644 158.908 7.644ZM168.194 12.6C167.914 12.824 167.536 12.95 167.144 12.95C166.402 12.95 165.982 12.502 165.982 11.704V7.686H168.11V6.58H165.982V4.956H164.638V6.58H163.378V7.686H164.638V11.76C164.638 13.258 165.492 14.084 166.99 14.084C167.592 14.084 168.208 13.916 168.614 13.566L168.194 12.6ZM172.941 6.51C171.751 6.51 170.645 6.846 169.875 7.462L170.435 8.47C171.009 7.98 171.905 7.672 172.787 7.672C174.117 7.672 174.775 8.33 174.775 9.464V9.73H172.647C170.435 9.73 169.665 10.71 169.665 11.9C169.665 13.188 170.729 14.084 172.409 14.084C173.571 14.084 174.397 13.692 174.845 13.02V14H176.119V9.52C176.119 7.49 174.971 6.51 172.941 6.51ZM172.633 13.048C171.611 13.048 170.995 12.586 170.995 11.844C170.995 11.214 171.373 10.696 172.703 10.696H174.775V11.732C174.439 12.586 173.641 13.048 172.633 13.048Z" fill="white"/>
<defs>
<linearGradient id="paint0_linear_2538_3808" x1="97.7018" y1="16.5134" x2="105.044" y2="16.5134" gradientUnits="userSpaceOnUse">
<stop stop-color="#FAC739"/>
<stop offset="1" stop-color="#FB0D0D"/>
</linearGradient>
</defs>
</svg>
