<svg width="173" height="50" viewBox="0 0 173 50" fill="none" xmlns="http://www.w3.org/2000/svg">
<path d="M75.7325 16.0977L71.9332 35.4276H66.7164L61.2727 26.4302L59.5148 35.4276H53.334L57.1332 16.0977H62.3501L67.7938 25.0951L69.5516 16.0977H75.7325Z" fill="white"/>
<path d="M95.1264 22.5406C95.1264 27.4166 91.3838 30.7253 85.5432 30.7253H82.2543L81.3471 35.4853H74.9961L78.7953 16.1553H87.1877C92.2911 16.0973 95.1264 18.4772 95.1264 22.5406ZM88.662 23.1211C88.662 21.7279 87.7547 21.1475 86.2804 21.1475H84.1256L83.2183 25.6752H85.8267C87.6413 25.6752 88.662 24.7464 88.662 23.1211Z" fill="white"/>
<path d="M97.8471 20.3359H103.915L100.966 35.4284H94.8984L97.8471 20.3359Z" fill="white"/>
<path d="M104.312 28.7526C104.312 23.7605 108.168 20.1035 113.612 20.1035C117.128 20.1035 119.85 21.7869 120.927 24.5152L115.767 26.9532C115.257 25.56 114.349 25.0376 113.329 25.0376C111.684 25.0376 110.493 26.3727 110.493 28.4044C110.493 29.8556 111.287 30.8424 112.818 30.8424C114.009 30.8424 114.86 30.3199 115.597 28.9268L120.077 31.597C118.602 34.2672 115.88 35.7764 112.421 35.7764C107.488 35.7184 104.312 32.9901 104.312 28.7526Z" fill="white"/>
<path d="M119.906 34.3833L122.004 30.1458C123.479 31.0746 125.463 31.5389 127.108 31.5389C128.469 31.5389 128.922 31.2487 128.922 30.8424C128.922 29.5653 121.494 30.9004 121.494 25.8503C121.494 21.961 125.18 20.1035 129.83 20.1035C131.984 20.1035 134.083 20.5099 135.614 21.2645L133.515 25.502C131.984 24.5732 130.34 24.341 129.092 24.341C127.675 24.341 127.221 24.7473 127.221 25.0956C127.221 26.4888 134.65 25.0376 134.65 30.0877C134.65 33.8609 130.907 35.7764 126.371 35.7764C123.762 35.7184 121.21 35.1379 119.906 34.3833Z" fill="white"/>
<path d="M97.6776 16.7363C97.6776 14.8208 99.2087 13.3115 101.59 13.3115C103.745 13.3115 105.049 14.4725 105.049 16.1559C105.049 18.2456 103.518 19.6387 101.137 19.6387C99.0385 19.6968 97.6776 18.4197 97.6776 16.7363Z" fill="url(#paint0_linear_5960_9259)"/>
<path d="M18.2129 6H27.7856C28.6559 6 29.3521 6.69512 29.3521 7.56401V17.1219C29.3521 17.9908 28.6559 18.6859 27.7856 18.6859H18.2129C17.3427 18.6859 16.6465 17.9908 16.6465 17.1219V7.56401C16.6465 6.69512 17.3427 6 18.2129 6Z" fill="#FFD43B"/>
<path d="M5.56644 18.6278H15.1391C16.0094 18.6278 16.7056 19.3229 16.7056 20.1918V29.7497C16.7056 30.6186 16.0094 31.3137 15.1391 31.3137H5.56644C4.6962 31.3137 4 30.6186 4 29.7497V20.1918C4 19.3229 4.6962 18.6278 5.56644 18.6278Z" fill="#FF3E3E"/>
<path d="M30.8614 18.6278H40.4341C41.3043 18.6278 42.0005 19.3229 42.0005 20.1918V29.7497C42.0005 30.6186 41.3043 31.3137 40.4341 31.3137H30.8614C29.9911 31.3137 29.2949 30.6186 29.2949 29.7497V20.1918C29.3529 19.3229 30.0491 18.6278 30.8614 18.6278Z" fill="#FF8845"/>
<path d="M18.2129 31.3141H27.7856C28.6559 31.3141 29.3521 32.0092 29.3521 32.8781V42.436C29.3521 43.3049 28.6559 44 27.7856 44H18.2129C17.3427 44 16.6465 43.3049 16.6465 42.436V32.8202C16.6465 32.0092 17.3427 31.3141 18.2129 31.3141Z" fill="#FF7448"/>
<path d="M10.3242 26.5058C10.3242 25.6369 11.0204 24.9418 11.8907 24.9418H23.0298V36.0636C23.0298 36.9325 22.3336 37.6277 21.4634 37.6277H11.8907C11.0204 37.6277 10.3242 36.9325 10.3242 36.0636V26.5058Z" fill="#FF0E0E" fill-opacity="0.9"/>
<path d="M23.0293 13.878C23.0293 13.0091 23.7255 12.314 24.5957 12.314H34.1684C35.0387 12.314 35.7349 13.0091 35.7349 13.878V23.4358C35.7349 24.3047 35.0387 24.9998 34.1684 24.9998H23.0293V13.878Z" fill="#FF6A16" fill-opacity="0.9"/>
<path d="M10.3242 13.878C10.3242 13.0091 11.0204 12.314 11.8907 12.314H21.4634C22.3336 12.314 23.0298 13.0091 23.0298 13.878V24.9998H11.8907C11.0204 24.9998 10.3242 24.3047 10.3242 23.4358V13.878Z" fill="#FFC90A" fill-opacity="0.9"/>
<path d="M23.0307 25.0002H34.1698C35.0401 25.0002 35.7363 25.6954 35.7363 26.5643V36.1221C35.7363 36.991 35.0401 37.6861 34.1698 37.6861H24.5391C23.6689 37.6861 22.9727 36.991 22.9727 36.1221V25.0002H23.0307Z" fill="#FF511B" fill-opacity="0.9"/>
<rect x="140" y="6" width="33" height="18" rx="8.5" fill="#FF490F"/>
<path d="M146.406 20H151.194C154.82 20 157.298 17.746 157.298 14.288C157.298 11.782 155.492 10.2 152.468 10.2H148.366L146.406 20ZM149.052 18.138L150.27 12.062H152.216C154.064 12.062 155.002 12.958 155.002 14.414C155.002 16.542 153.616 18.138 151.264 18.138H149.052ZM163.894 10.2H159.932L157.972 20H160.254L160.786 17.298H162.97C165.896 17.298 167.73 15.744 167.73 13.252C167.73 11.334 166.344 10.2 163.894 10.2ZM163.068 15.45H161.15L161.836 12.048H163.614C164.762 12.048 165.434 12.496 165.434 13.448C165.434 14.75 164.566 15.45 163.068 15.45Z" fill="white"/>
<defs>
<linearGradient id="paint0_linear_5960_9259" x1="97.6997" y1="16.5134" x2="105.041" y2="16.5134" gradientUnits="userSpaceOnUse">
<stop stop-color="#FAC739"/>
<stop offset="1" stop-color="#FB0D0D"/>
</linearGradient>
</defs>
</svg>
