<svg width="140" height="50" viewBox="0 0 140 50" fill="none" xmlns="http://www.w3.org/2000/svg">
<path d="M75.7344 16.0977L71.9352 35.4276H66.7183L61.2746 26.4302L59.5168 35.4276H53.3359L57.1352 16.0977H62.352L67.7957 25.0951L69.5536 16.0977H75.7344Z" fill="white"/>
<path d="M95.1303 22.5426C95.1303 27.4186 91.3877 30.7273 85.5471 30.7273H82.2582L81.351 35.4872H75L78.7992 16.1573H87.1916C92.295 16.0992 95.1303 18.4792 95.1303 22.5426ZM88.6659 23.123C88.6659 21.7299 87.7586 21.1494 86.2843 21.1494H84.1295L83.2222 25.6771H85.8307C87.6452 25.6771 88.6659 24.7484 88.6659 23.123Z" fill="white"/>
<path d="M97.8471 20.3359H103.915L100.966 35.4284H94.8984L97.8471 20.3359Z" fill="white"/>
<path d="M104.312 28.7546C104.312 23.7625 108.168 20.1055 113.612 20.1055C117.128 20.1055 119.85 21.7889 120.927 24.5171L115.767 26.9551C115.257 25.562 114.349 25.0395 113.329 25.0395C111.684 25.0395 110.493 26.3746 110.493 28.4063C110.493 29.8575 111.287 30.8443 112.818 30.8443C114.009 30.8443 114.86 30.3219 115.597 28.9287L120.077 31.5989C118.602 34.2691 115.88 35.7784 112.421 35.7784C107.488 35.7203 104.312 32.9921 104.312 28.7546Z" fill="white"/>
<path d="M119.906 34.3852L122.004 30.1477C123.479 31.0765 125.463 31.5409 127.108 31.5409C128.469 31.5409 128.922 31.2507 128.922 30.8443C128.922 29.5673 121.494 30.9024 121.494 25.8522C121.494 21.963 125.18 20.1055 129.83 20.1055C131.984 20.1055 134.083 20.5118 135.614 21.2664L133.515 25.5039C131.984 24.5752 130.34 24.343 129.092 24.343C127.675 24.343 127.221 24.7493 127.221 25.0976C127.221 26.4907 134.65 25.0395 134.65 30.0897C134.65 33.8628 130.907 35.7784 126.371 35.7784C123.762 35.7203 121.21 35.1399 119.906 34.3852Z" fill="white"/>
<path d="M97.6796 16.7373C97.6796 14.8217 99.2106 13.3125 101.592 13.3125C103.747 13.3125 105.051 14.4735 105.051 16.1568C105.051 18.2466 103.52 19.6397 101.139 19.6397C99.0405 19.6978 97.6796 18.4207 97.6796 16.7373Z" fill="url(#paint0_linear_5258_8830)"/>
<path d="M17.8904 6H27.2467C28.0973 6 28.7778 6.69657 28.7778 7.56729V17.1452C28.7778 18.0159 28.0973 18.7125 27.2467 18.7125H17.8904C17.0398 18.7125 16.3594 18.0159 16.3594 17.1452V7.56729C16.3594 6.69657 17.0398 6 17.8904 6Z" fill="#FFD43B"/>
<path d="M5.53104 18.6562H14.8874C15.7379 18.6562 16.4184 19.3528 16.4184 20.2235V29.8014C16.4184 30.6722 15.7379 31.3687 14.8874 31.3687H5.53104C4.68046 31.3687 4 30.6722 4 29.8014V20.2235C4 19.3528 4.68046 18.6562 5.53104 18.6562Z" fill="#FF3E3E"/>
<path d="M30.2498 18.6562H39.6061C40.4567 18.6562 41.1371 19.3528 41.1371 20.2235V29.8014C41.1371 30.6722 40.4567 31.3687 39.6061 31.3687H30.2498C29.3992 31.3687 28.7188 30.6722 28.7188 29.8014V20.2235C28.7755 19.3528 29.4559 18.6562 30.2498 18.6562Z" fill="#FF8845"/>
<path d="M17.8904 31.3672H27.2467C28.0973 31.3672 28.7778 32.0638 28.7778 32.9345V42.5124C28.7778 43.3831 28.0973 44.0797 27.2467 44.0797H17.8904C17.0398 44.0797 16.3594 43.3831 16.3594 42.5124V32.8764C16.3594 32.0638 17.0398 31.3672 17.8904 31.3672Z" fill="#FF7448"/>
<path d="M10.1797 26.5478C10.1797 25.677 10.8601 24.9805 11.7107 24.9805H22.5981V36.1257C22.5981 36.9964 21.9176 37.6929 21.067 37.6929H11.7107C10.8601 37.6929 10.1797 36.9964 10.1797 36.1257V26.5478Z" fill="#FF0E0E" fill-opacity="0.9"/>
<path d="M22.6016 13.8954C22.6016 13.0247 23.282 12.3281 24.1326 12.3281H33.4889C34.3395 12.3281 35.02 13.0247 35.02 13.8954V23.4733C35.02 24.344 34.3395 25.0406 33.4889 25.0406H22.6016V13.8954Z" fill="#FF6A16" fill-opacity="0.9"/>
<path d="M10.1797 13.8954C10.1797 13.0247 10.8601 12.3281 11.7107 12.3281H21.067C21.9176 12.3281 22.5981 13.0247 22.5981 13.8954V25.0406H11.7107C10.8601 25.0406 10.1797 24.344 10.1797 23.4733V13.8954Z" fill="#FFC90A" fill-opacity="0.9"/>
<path d="M22.6036 25.0391H33.4909C34.3415 25.0391 35.022 25.7356 35.022 26.6064V36.1842C35.022 37.055 34.3415 37.7515 33.4909 37.7515H24.0779C23.2273 37.7515 22.5469 37.055 22.5469 36.1842V25.0391H22.6036Z" fill="#FF511B" fill-opacity="0.9"/>
<defs>
<linearGradient id="paint0_linear_5258_8830" x1="97.7017" y1="16.5144" x2="105.043" y2="16.5144" gradientUnits="userSpaceOnUse">
<stop stop-color="#FAC739"/>
<stop offset="1" stop-color="#FB0D0D"/>
</linearGradient>
</defs>
</svg>
