<svg width="34" height="34" viewBox="0 0 34 34" fill="none" xmlns="http://www.w3.org/2000/svg">
<rect width="34" height="34" rx="10" fill="#FF490F"/>
<path d="M16.004 10.476V9.86945C16.004 9.39148 16.3944 9 16.8735 9C17.3514 9 17.7429 9.39148 17.7429 9.86945V10.476C20.275 10.9028 21.7453 13.1959 21.7453 15.9556V19.3014L23.5207 20.8218C23.812 21.3077 23.82 21.681 23.54 22.1726C23.2612 22.6665 22.7559 22.728 22.1903 22.728H11.5566C10.991 22.728 10.4857 22.6665 10.2058 22.1749C9.92697 21.6833 9.93493 21.3077 10.2251 20.8241L10.2559 20.7785L11.9891 19.3025V15.9567C11.9891 13.197 13.4696 10.9028 16.004 10.476V10.476ZM18.321 23.2037C18.321 24.0037 17.6724 24.9323 16.8723 24.9323C16.0723 24.9323 15.4236 24.0037 15.4236 23.2037H18.321Z" fill="white"/>
</svg>
