<svg width="76" height="18" viewBox="0 0 76 18" fill="none" xmlns="http://www.w3.org/2000/svg">
<g clip-path="url(#clip0_4896_12526)">
<path d="M17.6252 6.04872L15.2822 10.0353L12.9386 14.0219L10.5926 18L8.24902 14.0164L10.592 10.0299L12.938 6.04631L9.37925 0H14.0652L15.2822 2.06456L17.6252 6.04872ZM4.68963 0H0L5.90297 10.0323L8.24902 6.04872L4.68963 0ZM24.6048 2.06456L23.3884 0H18.7019L22.2619 6.04872L19.9152 10.0353L17.5723 14.0219L19.9152 18L22.2619 14.0164L24.6048 10.0299L26.9478 6.04631L24.6048 2.06456Z" fill="white"/>
<path d="M49.143 2.20169H51.4976L47.5036 13.2071H45.5152L42.9217 5.91948L40.2968 13.2071H38.3084L34.3311 2.20169H36.8445L39.406 9.80337L42.127 2.20169H43.8605L46.4854 9.8825L49.143 2.20169Z" fill="white"/>
<path d="M53.1206 1.85858H55.6975V4.05905H53.1206V1.85858ZM53.1994 13.207V5.54254H55.6002V13.207H53.1994Z" fill="white"/>
<path d="M64.8422 6.16106C65.2986 6.69744 65.5265 7.50663 65.5261 8.58865V13.2095H63.1253V8.69797C63.1253 8.1773 63.0272 7.79757 62.831 7.55878C62.6347 7.31717 62.3299 7.19938 61.9163 7.19938C61.4176 7.19938 61.0173 7.35563 60.7152 7.66811C60.4132 7.98059 60.2619 8.39677 60.2615 8.91663V13.2095H57.8607V5.54254H60.2V6.63522C60.4631 6.22912 60.8329 5.90008 61.2705 5.68267C61.7329 5.45903 62.2429 5.3466 62.7584 5.35469C63.6908 5.35469 64.3854 5.62348 64.8422 6.16106Z" fill="white"/>
<path d="M75.681 5.54255V12.3826C75.681 13.6216 75.3203 14.5585 74.5988 15.1931C73.8773 15.8277 72.8115 16.1448 71.4014 16.1445C70.7223 16.1466 70.0457 16.0629 69.3884 15.8956C68.7909 15.7463 68.2198 15.5095 67.6943 15.1931L68.3314 13.5664C69.3381 14.106 70.3403 14.3758 71.338 14.3758C72.6513 14.3758 73.3079 13.7668 73.3079 12.5487V11.703C73.0769 12.1068 72.7278 12.4334 72.3057 12.6405C71.8434 12.8732 71.33 12.991 70.8104 12.9836C70.1312 12.9836 69.5292 12.8273 69.0043 12.5148C68.4723 12.1949 68.0451 11.7321 67.7731 11.1811C67.4755 10.6033 67.327 9.93463 67.3274 9.17517C67.3278 8.41571 67.4763 7.74705 67.7731 7.1692C68.0459 6.61645 68.4728 6.15088 69.0043 5.82644C69.5292 5.50873 70.1312 5.34987 70.8104 5.34987C71.3213 5.34303 71.8262 5.45807 72.2817 5.6851C72.7031 5.89239 73.0542 6.21508 73.2925 6.61409V5.54255H75.681ZM72.8253 10.6623C73.138 10.3089 73.295 9.81362 73.295 9.18C73.295 8.54638 73.138 8.04805 72.8253 7.68805C72.5126 7.32805 72.0742 7.14987 71.5122 7.14987C70.9502 7.14987 70.5106 7.33107 70.1917 7.68805C69.8729 8.04503 69.7147 8.54456 69.7147 9.18C69.7147 9.80336 69.8737 10.2948 70.1917 10.6544C70.5098 11.014 70.95 11.1936 71.5122 11.1932C72.074 11.1932 72.5117 11.0162 72.8253 10.6623Z" fill="white"/>
</g>
<defs>
<clipPath id="clip0_4896_12526">
<rect width="76" height="18" fill="white"/>
</clipPath>
</defs>
</svg>
