<svg width="34" height="34" viewBox="0 0 34 34" fill="none" xmlns="http://www.w3.org/2000/svg">
<rect opacity="0.2" width="34" height="34" rx="10" fill="white"/>
<path fill-rule="evenodd" clip-rule="evenodd" d="M11.1504 19.0043C10.8027 17.9888 10.7255 16.9003 10.9262 15.846C11.5554 16.1702 12.1983 16.107 13.2011 15.8205C14.2685 15.5149 14.5522 15.554 15.0632 16.289C15.52 16.9456 15.4602 17.1709 14.8311 17.8921L14.7308 18.0075C13.8859 18.9815 13.6668 19.7494 14.3667 20.8113C14.9925 21.7626 15.6546 21.9289 16.9858 21.8485L17.0003 21.8476C17.1661 21.8379 17.2446 21.8333 17.3361 21.8313C18.1081 21.8093 18.5223 22.0058 18.9021 22.8836C17.8809 23.2141 16.7913 23.2729 15.7404 23.0544C14.6896 22.8359 13.7137 22.3475 12.9089 21.6374C12.1041 20.9272 11.498 20.0198 11.1504 19.0043ZM12.8233 14.4997C12.0018 14.7346 11.6955 14.7504 11.3507 14.4873H11.3514C11.747 13.5989 12.3467 12.8164 13.1018 12.2033C13.8568 11.5903 14.7457 11.164 15.6965 10.9592C16.1264 10.8665 16.5635 10.8204 17.0002 10.8205C17.0137 11.8309 17.6043 12.7502 18.7027 13.5364C20.4618 14.7968 20.6781 15.1656 20.2777 16.4212C19.6557 18.3714 20.6174 19.5189 22.5526 19.7164C22.452 19.9223 22.3398 20.123 22.2162 20.3174C21.6947 21.1383 20.9868 21.8245 20.1502 22.3204C19.5155 20.9109 18.6116 20.4205 17.2969 20.4576C17.1836 20.461 17.0936 20.4658 16.9026 20.4775C16.0186 20.5304 15.7879 20.4727 15.5145 20.0565C15.2342 19.632 15.2809 19.4706 15.7686 18.9073L15.8662 18.7954C16.8614 17.6545 17.0895 16.7959 16.1911 15.5046C15.2645 14.1727 14.3915 14.0512 12.8233 14.4997ZM23.0217 18.3936C23.0822 18.1316 23.1257 17.8653 23.1517 17.5961C23.2451 16.6281 23.1088 15.6516 22.7539 14.7462C22.3989 13.8407 21.8353 13.0318 21.1089 12.3851C20.3825 11.7384 19.5138 11.2722 18.5733 11.0245C18.5084 11.0074 18.4432 10.9913 18.3779 10.9764C18.4536 11.4693 18.8101 11.9473 19.4981 12.4401C21.6796 14.0021 22.1947 14.8826 21.5745 16.8292C21.2222 17.9352 21.6214 18.3643 23.0217 18.3936ZM9.44531 16.9999C9.44531 21.1726 12.8281 24.5554 17.0009 24.5554C21.1736 24.5554 24.5564 21.1726 24.5564 16.9999C24.5564 12.8272 21.1736 9.44434 17.0009 9.44434C12.8281 9.44434 9.44531 12.8272 9.44531 16.9999Z" fill="white"/>
</svg>
