<svg width="40" height="40" viewBox="0 0 40 40" fill="none" xmlns="http://www.w3.org/2000/svg">
<g clip-path="url(#clip0_2853_3909)">
<path fill-rule="evenodd" clip-rule="evenodd" d="M23.9013 32.2247L15.2227 23.5679L5.06219 29.7645C3.73081 30.5766 4.00066 32.5802 5.50051 33.0115L29.4892 39.928C30.8533 40.3192 32.1147 39.0519 31.7061 37.6939L24.5886 13.9489C24.1428 12.4629 22.1435 12.2056 21.3354 13.5324L15.2227 23.5679" fill="url(#paint0_linear_2853_3909)"/>
<g opacity="0.5" filter="url(#filter0_f_2853_3909)">
<path fill-rule="evenodd" clip-rule="evenodd" d="M22.6574 30.2771L17.4818 25.1146L11.4225 28.81C10.6285 29.2943 10.7894 30.4891 11.6839 30.7464L25.9898 34.8711C26.8034 35.1044 27.5556 34.3486 27.312 33.5388L23.0673 19.3781C22.8014 18.492 21.6091 18.3385 21.1272 19.1297L17.4818 25.1146" fill="#0062FF"/>
</g>
<g filter="url(#filter1_b_2853_3909)">
<mask id="path-3-outside-1_2853_3909" maskUnits="userSpaceOnUse" x="2" y="-0.31055" width="36" height="35" fill="black">
<rect fill="white" x="2" y="-0.31055" width="36" height="35"/>
<path fill-rule="evenodd" clip-rule="evenodd" d="M27.2824 24.1046L16.5841 13.4332L4.05899 21.0719C2.41777 22.073 2.75042 24.5428 4.59933 25.0746L34.1708 33.6007C35.8525 34.0829 37.4073 32.5207 36.9037 30.8466L28.1297 1.5755C27.5802 -0.256235 25.1156 -0.573446 24.1194 1.0621L16.5841 13.4332"/>
</mask>
<path fill-rule="evenodd" clip-rule="evenodd" d="M27.2824 24.1046L16.5841 13.4332L4.05899 21.0719C2.41777 22.073 2.75042 24.5428 4.59933 25.0746L34.1708 33.6007C35.8525 34.0829 37.4073 32.5207 36.9037 30.8466L28.1297 1.5755C27.5802 -0.256235 25.1156 -0.573446 24.1194 1.0621L16.5841 13.4332" fill="#B7DCFF" fill-opacity="0.35"/>
<path d="M27.4237 23.963C27.5019 24.041 27.502 24.1676 27.424 24.2458C27.346 24.324 27.2194 24.3242 27.1412 24.2462L27.4237 23.963ZM16.5841 13.4332L16.48 13.2625C16.5587 13.2144 16.6601 13.2265 16.7254 13.2916L16.5841 13.4332ZM4.05899 21.0719L3.95484 20.9011L3.95486 20.9011L4.05899 21.0719ZM4.59933 25.0746L4.65461 24.8824L4.65474 24.8824L4.59933 25.0746ZM34.1708 33.6007L34.1157 33.7929L34.1154 33.7928L34.1708 33.6007ZM36.9037 30.8466L36.7122 30.9043L36.7121 30.9041L36.9037 30.8466ZM28.1297 1.5755L28.3213 1.51803L28.3213 1.51808L28.1297 1.5755ZM24.1194 1.0621L24.2902 1.16613L24.2902 1.16614L24.1194 1.0621ZM16.7549 13.5373C16.6975 13.6316 16.5744 13.6615 16.4801 13.604C16.3858 13.5466 16.3559 13.4235 16.4133 13.3292L16.7549 13.5373ZM27.1412 24.2462L16.4429 13.5748L16.7254 13.2916L27.4237 23.963L27.1412 24.2462ZM16.6883 13.604L4.16313 21.2426L3.95486 20.9011L16.48 13.2625L16.6883 13.604ZM4.16314 21.2426C2.67069 22.153 2.9729 24.3987 4.65461 24.8824L4.54405 25.2668C2.52794 24.687 2.16484 21.993 3.95484 20.9011L4.16314 21.2426ZM4.65474 24.8824L34.2262 33.4085L34.1154 33.7928L4.54392 25.2667L4.65474 24.8824ZM34.2259 33.4084C35.7572 33.8475 37.1697 32.4251 36.7122 30.9043L37.0952 30.789C37.6449 32.6163 35.9477 34.3183 34.1157 33.7929L34.2259 33.4084ZM36.7121 30.9041L27.9381 1.63293L28.3213 1.51808L37.0953 30.7892L36.7121 30.9041ZM27.9381 1.63297C27.4384 -0.0328314 25.1964 -0.321688 24.2902 1.16613L23.9486 0.958067C25.0347 -0.825205 27.7219 -0.479639 28.3213 1.51803L27.9381 1.63297ZM24.2902 1.16614L16.7549 13.5373L16.4133 13.3292L23.9486 0.958059L24.2902 1.16614Z" fill="url(#paint1_linear_2853_3909)" fill-opacity="0.5" mask="url(#path-3-outside-1_2853_3909)"/>
</g>
<g opacity="0.5" filter="url(#filter2_f_2853_3909)">
<rect x="28.75" y="25.2832" width="2.28605" height="15.2063" rx="1.14303" transform="rotate(132.549 28.75 25.2832)" fill="#3171C6"/>
</g>
<rect x="30.75" y="25.2832" width="2.28605" height="15.2063" rx="1.14303" transform="rotate(132.549 30.75 25.2832)" fill="url(#paint2_linear_2853_3909)"/>
<rect x="30.6087" y="25.2893" width="2.08605" height="15.0063" rx="1.04303" transform="rotate(132.549 30.6087 25.2893)" stroke="white" stroke-opacity="0.5" stroke-width="0.2"/>
</g>
<defs>
<filter id="filter0_f_2853_3909" x="-3.08984" y="4.61621" width="44.4492" height="44.2979" filterUnits="userSpaceOnUse" color-interpolation-filters="sRGB">
<feFlood flood-opacity="0" result="BackgroundImageFix"/>
<feBlend mode="normal" in="SourceGraphic" in2="BackgroundImageFix" result="shape"/>
<feGaussianBlur stdDeviation="7" result="effect1_foregroundBlur_2853_3909"/>
</filter>
<filter id="filter1_b_2853_3909" x="-21.1992" y="-24.2002" width="82.4004" height="82.0898" filterUnits="userSpaceOnUse" color-interpolation-filters="sRGB">
<feFlood flood-opacity="0" result="BackgroundImageFix"/>
<feGaussianBlur in="BackgroundImage" stdDeviation="12"/>
<feComposite in2="SourceAlpha" operator="in" result="effect1_backgroundBlur_2853_3909"/>
<feBlend mode="normal" in="SourceGraphic" in2="effect1_backgroundBlur_2853_3909" result="shape"/>
</filter>
<filter id="filter2_f_2853_3909" x="10.4727" y="9.47266" width="23.8047" height="23.0225" filterUnits="userSpaceOnUse" color-interpolation-filters="sRGB">
<feFlood flood-opacity="0" result="BackgroundImageFix"/>
<feBlend mode="normal" in="SourceGraphic" in2="BackgroundImageFix" result="shape"/>
<feGaussianBlur stdDeviation="3" result="effect1_foregroundBlur_2853_3909"/>
</filter>
<linearGradient id="paint0_linear_2853_3909" x1="17.9937" y1="40" x2="17.9937" y2="12.6708" gradientUnits="userSpaceOnUse">
<stop stop-color="#39AFFD"/>
<stop offset="1" stop-color="#6147FF"/>
</linearGradient>
<linearGradient id="paint1_linear_2853_3909" x1="16" y1="29.5" x2="29.8626" y2="3.01286" gradientUnits="userSpaceOnUse">
<stop stop-color="white"/>
<stop offset="1" stop-color="white" stop-opacity="0"/>
</linearGradient>
<linearGradient id="paint2_linear_2853_3909" x1="31.893" y1="25.2832" x2="31.893" y2="40.4895" gradientUnits="userSpaceOnUse">
<stop stop-color="white"/>
<stop offset="1" stop-color="white" stop-opacity="0"/>
</linearGradient>
<clipPath id="clip0_2853_3909">
<rect width="40" height="40" fill="white"/>
</clipPath>
</defs>
</svg>
