<svg width="14" height="14" viewBox="0 0 14 14" fill="none" xmlns="http://www.w3.org/2000/svg">
<g clip-path="url(#clip0_3881_38452)">
<path d="M12.2322 9.50877H12.1276C12.0584 9.50095 11.9922 9.47594 11.9351 9.43603C11.878 9.39612 11.8317 9.34257 11.8006 9.28025C11.7694 9.21793 11.7543 9.14881 11.7566 9.07917C11.759 9.00953 11.7787 8.94158 11.814 8.88149C12.2551 7.66896 12.2322 6.33613 11.7497 5.13948C11.2671 3.94283 10.3591 2.9669 9.20027 2.39951C8.23693 1.94293 7.15514 1.79827 6.10568 1.98567C5.05622 2.17307 4.09136 2.68321 3.34559 3.44499C3.24492 3.52049 3.1204 3.55715 2.99489 3.54823C2.86937 3.53931 2.75129 3.48541 2.66231 3.39643C2.57333 3.30746 2.51944 3.18937 2.51052 3.06386C2.5016 2.93834 2.53825 2.81382 2.61375 2.71316C3.52524 1.79729 4.69734 1.18525 5.96982 0.96069C7.2423 0.736134 8.55309 0.910021 9.72301 1.45858C11.1014 2.13858 12.1763 3.3087 12.7371 4.73974C13.2979 6.17079 13.3043 7.75965 12.7549 9.19513C12.7115 9.29552 12.6378 9.37978 12.544 9.43604C12.4502 9.49231 12.3412 9.51775 12.2322 9.50877ZM7.00477 13.168C6.06389 13.1586 5.13633 12.9446 4.28652 12.5407C2.95241 11.8656 1.90329 10.7363 1.32823 9.35613C0.753173 7.97599 0.689992 6.43582 1.15008 5.01321C1.17247 4.94088 1.21031 4.87427 1.26097 4.81799C1.31164 4.76172 1.37393 4.71713 1.44353 4.6873C1.51313 4.65747 1.58838 4.64312 1.66407 4.64524C1.73976 4.64736 1.81409 4.66589 1.88191 4.69957C2.00265 4.74665 2.10159 4.8369 2.15954 4.95281C2.2175 5.06872 2.23033 5.20202 2.19556 5.32686C1.81215 6.51236 1.8648 7.79583 2.34402 8.94596C2.82324 10.0961 3.6975 11.0372 4.80926 11.5997C5.7726 12.0563 6.85438 12.201 7.90385 12.0136C8.95331 11.8262 9.91817 11.316 10.6639 10.5543C10.7089 10.4943 10.7662 10.4448 10.8319 10.4089C10.8977 10.3731 10.9704 10.3518 11.0451 10.3465C11.1198 10.3412 11.1948 10.352 11.2649 10.3782C11.3351 10.4043 11.3988 10.4453 11.4518 10.4983C11.5047 10.5512 11.5457 10.6149 11.5719 10.6851C11.5981 10.7553 11.6089 10.8302 11.6036 10.905C11.5983 10.9797 11.577 11.0524 11.5411 11.1181C11.5053 11.1839 11.4557 11.2412 11.3958 11.2861C10.8373 11.8908 10.1576 12.371 9.40095 12.6953C8.64433 13.0195 7.82784 13.1806 7.00477 13.168Z" fill="black"/>
<path d="M2.4046 6.79051C2.19551 6.79051 2.09096 6.79051 1.98641 6.58142L1.56822 5.95413L0.836384 6.58142C0.725472 6.6646 0.586059 6.70032 0.448813 6.68071C0.311567 6.66111 0.187732 6.58778 0.104548 6.47687C0.0633597 6.42195 0.0333915 6.35946 0.0163546 6.29296C-0.000682305 6.22646 -0.00445436 6.15726 0.00525382 6.0893C0.014962 6.02134 0.0379603 5.95596 0.0729356 5.89689C0.107911 5.83782 0.154178 5.78622 0.209096 5.74503L1.35912 4.8041C1.46367 4.69955 1.67277 4.59501 1.77732 4.69956C1.88186 4.8041 2.09096 4.8041 2.09096 4.90865L2.82279 6.05868C3.03189 6.26777 2.92734 6.58142 2.6137 6.79051H2.4046ZM12.2321 9.8224H12.1276L11.8139 9.50876L11.1866 8.35873C10.9775 8.14964 11.0821 7.83599 11.3957 7.6269C11.5252 7.59128 11.6619 7.59194 11.791 7.62882C11.92 7.6657 12.0365 7.73737 12.1276 7.83599L12.4412 8.56783L13.173 7.94054C13.2904 7.87822 13.4245 7.85476 13.556 7.87355C13.6875 7.89234 13.8097 7.95241 13.9049 8.04509C14.0094 8.25418 14.0094 8.67238 13.8003 8.77693L12.5458 9.71786L12.2321 9.8224Z" fill="black"/>
</g>
<defs>
<clipPath id="clip0_3881_38452">
<rect width="14" height="14" fill="white"/>
</clipPath>
</defs>
</svg>
