<svg width="22" height="22" viewBox="0 0 22 22" fill="none" xmlns="http://www.w3.org/2000/svg">
<path d="M20.7396 5.90043L14.8165 15.1293L10.5801 8.53323L13.9437 3.29574C14.1104 3.05214 14.434 2.94908 14.7086 3.02403L20.7396 5.90043ZM20.8082 18.2305C20.8082 18.7646 20.3179 18.9707 19.7197 18.6803L15.1009 16.4785L20.8082 7.57755V18.2305ZM8.05983 18.3805C8.05983 18.9051 7.63815 19.1487 7.14783 18.9051L1.73467 16.3379C1.44047 16.188 1.19531 15.8132 1.19531 15.4947V3.57683C1.19531 3.1552 1.51893 2.97719 1.92099 3.14583L7.76563 5.93791L8.05983 6.3689V18.3805ZM14.2281 16.0568L9.04047 13.574V7.95233L14.2281 16.0568Z" fill="white"/>
</svg>
