<svg width="22" height="22" viewBox="0 0 22 22" fill="none" xmlns="http://www.w3.org/2000/svg">
<path d="M10.9974 0.914579C8.3514 0.887691 5.80299 1.91247 3.91223 3.76369C2.02148 5.61492 0.943084 8.14111 0.914062 10.7871C0.924258 12.8781 1.59693 14.9122 2.83545 16.597C4.07398 18.2819 5.81463 19.5309 7.8074 20.1646C8.31156 20.2562 8.4949 19.9537 8.4949 19.6879V18.0104C5.6899 18.6062 5.09406 16.6904 5.09406 16.6904C4.90733 16.089 4.51036 15.5749 3.97573 15.2421C3.05906 14.6371 4.04906 14.6462 4.04906 14.6462C4.36591 14.6886 4.66905 14.8021 4.93576 14.9784C5.20247 15.1546 5.42582 15.3889 5.58906 15.6637C5.87353 16.157 6.3403 16.5189 6.88891 16.6715C7.43751 16.8241 8.02409 16.7551 8.5224 16.4796C8.57364 15.9776 8.80096 15.51 9.16406 15.1596C6.9274 14.9121 4.58073 14.0687 4.58073 10.2829C4.56073 9.29537 4.92562 8.33876 5.59823 7.61541C5.2919 6.76756 5.32807 5.8337 5.69906 5.01208C5.69906 5.01208 6.55156 4.74624 8.44906 6.02041C10.1008 5.58026 11.839 5.58026 13.4907 6.02041C15.4157 4.74624 16.2407 5.01208 16.2407 5.01208C16.6117 5.8337 16.6479 6.76756 16.3416 7.61541C17.0298 8.3255 17.4145 9.27569 17.4141 10.2646C17.4141 14.0596 15.0491 14.8937 12.8307 15.1412C13.0736 15.3771 13.2613 15.6638 13.3801 15.9808C13.499 16.2978 13.5462 16.6372 13.5182 16.9746V19.6787C13.5182 19.9996 13.7016 20.2562 14.2057 20.1554C16.1928 19.5178 17.9276 18.2685 19.1623 16.586C20.397 14.9036 21.0684 12.8739 21.0807 10.7871C21.0517 8.14111 19.9733 5.61492 18.0826 3.76369C16.1918 1.91247 13.6434 0.887691 10.9974 0.914579Z" fill="black"/>
</svg>
