<svg width="22" height="22" viewBox="0 0 22 22" fill="none" xmlns="http://www.w3.org/2000/svg">
<path d="M21 4.80885C20.2877 5.12556 19.532 5.33371 18.758 5.42635C19.5709 4.93889 20.1786 4.1724 20.468 3.26985C19.7015 3.72523 18.863 4.04651 17.9885 4.21985C17.4527 3.65286 16.7591 3.25982 15.9973 3.09162C15.2356 2.92342 14.4409 2.98782 13.7162 3.27647C12.9915 3.56513 12.3702 4.06474 11.9327 4.71059C11.4952 5.35644 11.2617 6.11877 11.2625 6.89885C11.2638 7.19635 11.2989 7.49275 11.367 7.78235C9.81571 7.70355 8.29838 7.2991 6.9137 6.5953C5.52901 5.8915 4.30797 4.90411 3.33 3.69735C2.98213 4.2909 2.79851 4.96636 2.798 5.65435C2.78075 6.28946 2.92301 6.91876 3.21179 7.48469C3.50056 8.05062 3.92662 8.53511 4.451 8.89385C3.805 8.87485 2.5985 8.70385 2.5985 8.40935V8.45685C2.62251 9.36078 2.95358 10.2296 3.53721 10.9203C4.12084 11.611 4.92224 12.0824 5.8095 12.2568C5.50023 12.3436 5.1807 12.3883 4.8595 12.3898C4.62041 12.3907 4.3818 12.3685 4.147 12.3233C4.39786 13.098 4.8841 13.7752 5.53799 14.2605C6.19187 14.7458 6.98085 15.0151 7.795 15.0308C6.41661 16.1242 4.70938 16.7201 2.95 16.7218C2.63249 16.7214 2.31528 16.7024 2 16.6648C3.78286 17.8088 5.85721 18.4156 7.9755 18.4128C9.4374 18.428 10.8877 18.1519 12.2417 17.6006C13.5958 17.0493 14.8265 16.2339 15.862 15.2018C16.8976 14.1698 17.7172 12.9419 18.2732 11.5898C18.8291 10.2376 19.1102 8.78829 19.1 7.32635V6.82285C19.8466 6.26824 20.4898 5.5865 21 4.80885Z" fill="black"/>
</svg>
