<svg width="22" height="22" viewBox="0 0 22 22" fill="none" xmlns="http://www.w3.org/2000/svg">
<path d="M18.109 5.22262C18.1038 5.21238 18.095 5.20436 18.0844 5.2C16.8525 4.6348 15.5525 4.23177 14.2169 4.00099C14.2048 3.99873 14.1923 4.00036 14.1811 4.00564C14.17 4.01092 14.1608 4.01958 14.1548 4.03039C13.9778 4.35168 13.8171 4.68169 13.6733 5.01917C12.2337 4.80063 10.7693 4.80063 9.32963 5.01917C9.18492 4.68083 9.02165 4.35074 8.84057 4.03039C8.83436 4.01982 8.82511 4.01135 8.81402 4.00611C8.80293 4.00086 8.79052 3.99908 8.7784 4.00099C7.4427 4.23128 6.14263 4.63434 4.91092 5.20003C4.90037 5.2045 4.89147 5.21213 4.88545 5.22187C2.42226 8.90032 1.7475 12.4883 2.07852 16.0319C2.07945 16.0406 2.08212 16.049 2.08636 16.0566C2.09061 16.0643 2.09635 16.071 2.10324 16.0763C3.53753 17.1383 5.1418 17.9489 6.8476 18.4736C6.85961 18.4772 6.87244 18.4771 6.88436 18.4731C6.89627 18.4692 6.90671 18.4618 6.91426 18.4518C7.28063 17.9533 7.60526 17.4254 7.88485 16.8735C7.88869 16.866 7.89088 16.8577 7.89128 16.8492C7.89168 16.8407 7.89028 16.8322 7.88717 16.8243C7.88406 16.8164 7.87931 16.8093 7.87323 16.8033C7.86716 16.7974 7.85989 16.7928 7.85192 16.7899C7.34 16.594 6.84441 16.3579 6.36978 16.0838C6.36116 16.0787 6.35392 16.0716 6.3487 16.0631C6.34348 16.0545 6.34044 16.0448 6.33985 16.0349C6.33926 16.0249 6.34113 16.0149 6.34531 16.0058C6.34949 15.9967 6.35584 15.9888 6.36381 15.9828C6.46368 15.9082 6.56182 15.8313 6.65815 15.7521C6.66659 15.7452 6.67682 15.7407 6.68767 15.7393C6.69851 15.7378 6.70955 15.7394 6.71954 15.7439C9.82899 17.163 13.1954 17.163 16.268 15.7439C16.2781 15.7391 16.2892 15.7373 16.3002 15.7386C16.3112 15.74 16.3216 15.7444 16.3302 15.7514C16.4267 15.8309 16.525 15.9081 16.6253 15.9828C16.6333 15.9887 16.6397 15.9966 16.644 16.0057C16.6482 16.0147 16.6501 16.0247 16.6496 16.0347C16.6491 16.0446 16.6461 16.0543 16.641 16.0629C16.6358 16.0715 16.6286 16.0786 16.6201 16.0838C16.1465 16.3602 15.6505 16.5962 15.1372 16.7892C15.1292 16.7922 15.122 16.7969 15.116 16.8029C15.1099 16.8089 15.1052 16.8162 15.1022 16.8241C15.0991 16.8321 15.0978 16.8406 15.0983 16.8491C15.0987 16.8576 15.101 16.866 15.1049 16.8735C15.3892 17.4223 15.7133 17.9495 16.0747 18.4509C16.0821 18.4612 16.0925 18.4689 16.1044 18.473C16.1164 18.477 16.1293 18.4772 16.1414 18.4735C17.8503 17.9506 19.4573 17.1399 20.8934 16.0763C20.9004 16.0712 20.9062 16.0647 20.9105 16.0572C20.9148 16.0496 20.9174 16.0413 20.9181 16.0327C21.3144 11.9359 20.2547 8.3773 18.109 5.22262V5.22262ZM8.34922 13.8742C7.41304 13.8742 6.64167 13.0151 6.64167 11.96C6.64167 10.905 7.39808 10.0458 8.34922 10.0458C9.30778 10.0458 10.0717 10.9124 10.0567 11.96C10.0567 13.0151 9.30029 13.8742 8.34922 13.8742V13.8742ZM14.6625 13.8742C13.7264 13.8742 12.955 13.0151 12.955 11.96C12.955 10.905 13.7114 10.0458 14.6625 10.0458C15.6212 10.0458 16.385 10.9124 16.3701 11.96C16.3701 13.0151 15.6212 13.8742 14.6625 13.8742Z" fill="black"/>
</svg>
