<svg width="22" height="22" viewBox="0 0 22 22" fill="none" xmlns="http://www.w3.org/2000/svg">
<path d="M10.773 8.55529C11.2703 8.55529 11.648 8.36588 11.9177 7.98588C12.1237 7.70706 12.2193 7.26 12.2193 6.66824V4.71529C12.2193 4.12353 12.1237 3.68824 11.9177 3.40941C11.6469 3.03176 11.2691 2.84118 10.773 2.84118C10.286 2.84118 9.90819 3.03059 9.64078 3.40941C9.43482 3.68941 9.3381 4.12471 9.3381 4.71647V6.66941C9.3381 7.26118 9.43482 7.69647 9.64078 7.98706C9.90819 8.36588 10.286 8.55529 10.773 8.55529ZM10.3087 4.51529C10.3087 4.00235 10.4601 3.74588 10.773 3.74588C11.0973 3.74588 11.2373 4.00235 11.2373 4.51529V6.85882C11.2373 7.37294 11.0973 7.64 10.773 7.64C10.4601 7.64 10.3087 7.37177 10.3087 6.85882V4.51529ZM13.1045 8.14235C13.0499 7.97412 13.0192 7.70706 13.0192 7.30588V2.90824H14.0012V7.00353C14.0012 7.23882 14.0012 7.37176 14.0126 7.39529C14.0342 7.55176 14.1093 7.64 14.239 7.64C14.4325 7.64 14.6373 7.48353 14.8535 7.16V2.90824H15.8355V8.47765H14.8535V7.86353C14.4655 8.33176 14.0991 8.55529 13.7406 8.55529C13.4277 8.55529 13.2013 8.42235 13.1045 8.14235ZM16.8403 14.8953V15.4082H15.8685V14.8953C15.8685 14.3929 16.0312 14.1353 16.3544 14.1353C16.6775 14.1365 16.8403 14.3929 16.8403 14.8953ZM6.2817 3.08706C6.04502 2.39529 5.80834 1.69176 5.57962 1H6.72548L7.49129 3.93529L8.22523 1H9.32672L8.02041 5.45294V8.47765H6.94168V5.45294C6.84382 4.90588 6.62762 4.12471 6.2817 3.08706ZM18.7178 11.3353C18.5232 10.4529 17.8211 9.80588 16.9905 9.70588C15.0037 9.48235 12.9953 9.48235 10.9983 9.48235C9.00128 9.48235 6.99289 9.48235 5.0175 9.70588C4.17773 9.80588 3.48588 10.4529 3.28106 11.3353C3.01138 12.5847 3 13.9471 3 15.2412C3 16.5247 3 17.8965 3.28106 19.1471C3.47564 20.0294 4.17773 20.6765 5.00839 20.7659C6.99403 21 9.00242 21 10.9994 21C12.9964 21 15.0048 21 16.9916 20.7659C17.8211 20.6765 18.513 20.0294 18.7189 19.1471C18.9886 17.8976 19 16.5247 19 15.2412C18.9989 13.9471 18.9989 12.5847 18.7178 11.3353ZM7.56639 12.4624H6.41256V18.8129H5.33269V12.4624H4.19821V11.4129H7.56639V12.4624ZM10.4817 18.8129H9.52016V18.2106C9.131 18.6682 8.7646 18.8918 8.41868 18.8918C8.10689 18.8918 7.87931 18.7576 7.79283 18.4788C7.73821 18.3118 7.70635 18.0541 7.70635 17.6647V13.3012H8.66788V17.3635C8.66788 17.5988 8.66788 17.7212 8.67812 17.7553C8.70087 17.9106 8.77598 17.9894 8.90456 17.9894C9.10028 17.9894 9.3051 17.8341 9.52016 17.5212V13.3024H10.4817V18.8129ZM14.1525 17.1612C14.1525 17.6753 14.1298 18.0424 14.0547 18.2765C13.9363 18.6788 13.6655 18.8906 13.2877 18.8906C12.943 18.8906 12.6073 18.6894 12.283 18.2765V18.8129H11.3237V11.4129H12.283V13.8353C12.5959 13.4329 12.9316 13.2329 13.2877 13.2329C13.6655 13.2329 13.9363 13.4447 14.0547 13.8576C14.1298 14.0812 14.1525 14.4482 14.1525 14.9624V17.1612ZM17.8007 16.2459H15.8685V17.2165C15.8685 17.7306 16.0312 17.9859 16.3658 17.9859C16.6036 17.9859 16.7435 17.8529 16.7982 17.5847C16.8084 17.5294 16.8198 17.3059 16.8198 16.9035H17.8018V17.0494C17.8018 17.3729 17.8018 17.5965 17.7802 17.6965C17.7574 17.9188 17.6709 18.12 17.5537 18.2988C17.2932 18.6894 16.8949 18.8906 16.3885 18.8906C15.881 18.8906 15.5021 18.7012 15.2222 18.3212C15.0174 18.0529 14.9093 17.6176 14.9093 17.0259V15.0953C14.9093 14.5035 15.0071 14.08 15.2119 13.8C15.493 13.42 15.8708 13.2306 16.368 13.2306C16.8551 13.2306 17.2317 13.42 17.5116 13.8C17.7073 14.0788 17.8041 14.5024 17.8041 15.0953V16.2459H17.8007ZM13.191 14.8835V17.2388C13.191 17.7412 13.0499 17.9859 12.77 17.9859C12.6073 17.9859 12.4457 17.9082 12.283 17.7412V14.3824C12.4457 14.2141 12.6073 14.1365 12.77 14.1365C13.0499 14.1365 13.191 14.3929 13.191 14.8835Z" fill="black"/>
</svg>
