<svg width="24" height="24" viewBox="0 0 24 24" fill="none" xmlns="http://www.w3.org/2000/svg">
    <rect x="2.75" y="2.75" width="18.5" height="18.5" rx="4.25" fill="white" stroke="black" stroke-width="1.5"/>
    <path fill-rule="evenodd" clip-rule="evenodd" d="M5.25 10.333C5.25 9.9188 5.58579 9.58301 6 9.58301H18C18.4142 9.58301 18.75 9.9188 18.75 10.333C18.75 10.7472 18.4142 11.083 18 11.083H6C5.58579 11.083 5.25 10.7472 5.25 10.333Z" fill="black"/>
    <path fill-rule="evenodd" clip-rule="evenodd" d="M13.4697 5.80268C13.7626 5.50978 14.2374 5.50978 14.5303 5.80268L18.5303 9.80268C18.8232 10.0956 18.8232 10.5704 18.5303 10.8633C18.2374 11.1562 17.7626 11.1562 17.4697 10.8633L13.4697 6.86334C13.1768 6.57044 13.1768 6.09557 13.4697 5.80268Z" fill="black"/>
    <path fill-rule="evenodd" clip-rule="evenodd" d="M5.51633 13.6663C5.51633 13.2521 5.85212 12.9163 6.26633 12.9163H18.2663C18.6806 12.9163 19.0163 13.2521 19.0163 13.6663C19.0163 14.0806 18.6806 14.4163 18.2663 14.4163H6.26633C5.85212 14.4163 5.51633 14.0806 5.51633 13.6663Z" fill="black"/>
    <path fill-rule="evenodd" clip-rule="evenodd" d="M5.73599 13.136C6.02888 12.8431 6.50376 12.8431 6.79665 13.136L10.7967 17.136C11.0896 17.4289 11.0896 17.9038 10.7967 18.1967C10.5038 18.4896 10.0289 18.4896 9.73601 18.1967L5.73599 14.1967C5.4431 13.9038 5.4431 13.4289 5.73599 13.136Z" fill="black"/>
</svg>
