<svg width="24" height="24" viewBox="0 0 24 24" fill="none" xmlns="http://www.w3.org/2000/svg">
<path d="M24 0H0V24H24V0Z" fill="white" fill-opacity="0.01"/>
<path d="M21.0846 14.6226L21.7917 15.3297L21.7938 15.3276L21.0846 14.6226ZM4 13H3C3 13.2654 3.10551 13.5199 3.29329 13.7075L4 13ZM4 4V3C3.44772 3 3 3.44772 3 4H4ZM13 4L13.7071 3.29289C13.5196 3.10536 13.2652 3 13 3V4ZM21.0846 12.0845L21.7938 11.3795L21.7917 11.3774L21.0846 12.0845ZM17.1509 17.1419C16.7604 17.5325 16.7604 18.1656 17.1509 18.5562C17.5415 18.9467 18.1746 18.9467 18.5652 18.5562L17.1509 17.1419ZM7.33556 17.7453C7.7263 18.1356 8.35947 18.1352 8.74978 17.7445C9.14008 17.3537 9.13973 16.7206 8.74899 16.3303L7.33556 17.7453ZM5 13V4H3V13H5ZM4 5H13V3H4V5ZM12.2929 4.70711L20.3774 12.7917L21.7917 11.3774L13.7071 3.29289L12.2929 4.70711ZM20.3754 12.7896C20.6855 13.1016 20.6855 13.6055 20.3754 13.9175L21.7938 15.3276C22.8794 14.2355 22.8794 12.4716 21.7938 11.3795L20.3754 12.7896ZM20.3774 13.9154L17.1509 17.1419L18.5652 18.5562L21.7917 15.3297L20.3774 13.9154ZM8.74899 16.3303L4.70671 12.2925L3.29329 13.7075L7.33556 17.7453L8.74899 16.3303Z" fill="black"/>
<path fill-rule="evenodd" clip-rule="evenodd" d="M9.25 10.5C9.94035 10.5 10.5 9.94035 10.5 9.25C10.5 8.55965 9.94035 8 9.25 8C8.55965 8 8 8.55965 8 9.25C8 9.94035 8.55965 10.5 9.25 10.5Z" fill="black"/>
<path d="M18 13H8V23H18V13Z" fill="white" fill-opacity="0.01"/>
<path d="M10.916 15.917L15.0827 20.0837" stroke="black" stroke-width="2" stroke-linecap="round" stroke-linejoin="round"/>
<path d="M10.916 20.0837L15.0827 15.917" stroke="black" stroke-width="2" stroke-linecap="round" stroke-linejoin="round"/>
</svg>
