<svg width="24" height="24" viewBox="0 0 24 24" fill="none" xmlns="http://www.w3.org/2000/svg">
<rect x="2.75" y="2.75" width="18.5" height="18.5" rx="4.25" fill="white" stroke="black" stroke-width="1.5"/>
<path d="M8.16204 14.408H17.2841V14.4083L17.2913 14.4078L17.3715 14.4019L17.3715 14.4022L17.3778 14.4013C17.5404 14.379 17.6882 14.2955 17.7913 14.1679C17.8945 14.0403 17.9451 13.8782 17.9328 13.7145C17.9206 13.5509 17.8465 13.3981 17.7256 13.2872C17.6049 13.1765 17.4465 13.1159 17.2827 13.1178M8.16204 14.408L17.2833 13.1178H17.2827M8.16204 14.408L10.366 16.8569L10.3662 16.8572C10.4683 16.9713 10.5267 17.1178 10.5311 17.2709C10.5355 17.424 10.4856 17.5737 10.3903 17.6935L10.3847 17.7005L10.3844 17.7002L10.3239 17.7636L10.2533 17.8378L10.2416 17.8261C10.1418 17.8922 10.0251 17.9297 9.90422 17.9334C9.75126 17.938 9.60167 17.888 9.48214 17.7924L9.47525 17.7869L9.47552 17.7866L9.41138 17.7254L9.40589 17.7201L9.4061 17.72L6.2359 14.1958C6.23583 14.1957 6.23577 14.1956 6.23571 14.1956C6.15775 14.1094 6.10449 14.0038 6.08155 13.8899C6.05859 13.7758 6.06685 13.6577 6.10546 13.548C6.14407 13.4383 6.2116 13.3411 6.30091 13.2666C6.39022 13.1921 6.49799 13.1431 6.61283 13.1249L6.62178 13.1235L6.62181 13.1239L6.70854 13.1181L6.71525 13.1176V13.1178H17.2827M8.16204 14.408L17.2827 13.1178M14.5226 6.21308L14.5224 6.21337L14.5872 6.27536L14.5927 6.28059L14.5925 6.28078L17.7628 9.80509C17.7628 9.80509 17.7628 9.8051 17.7628 9.80511C17.8407 9.89138 17.8938 9.99707 17.9166 10.111C17.9393 10.225 17.9309 10.343 17.8923 10.4526C17.8536 10.5622 17.786 10.6593 17.6967 10.7336C17.6075 10.808 17.4998 10.8569 17.385 10.8751L17.3779 10.8762L17.3779 10.876L17.2926 10.8833L17.2841 10.884V10.8836H6.71391H6.71379V10.7836L14.5226 6.21308ZM14.5226 6.21308L14.5156 6.20744C14.396 6.11223 14.2465 6.06256 14.0938 6.0673C13.9543 6.07163 13.8204 6.12104 13.7119 6.20755H13.7046L13.675 6.23895L13.6145 6.30313L13.6143 6.3029L13.6091 6.30931C13.5138 6.42873 13.4638 6.57815 13.4682 6.73095C13.4727 6.88374 13.5312 7.03002 13.6333 7.14372L13.6333 7.14377L15.8352 9.59197L14.5226 6.21308Z" fill="black" stroke="black" stroke-width="0.2"/>
</svg>
