<?xml version="1.0" encoding="utf-8"?>
<!-- Generator: Adobe Illustrator 23.0.1, SVG Export Plug-In . SVG Version: 6.00 Build 0)  -->
<svg version="1.1" id="Layer_1" xmlns="http://www.w3.org/2000/svg" xmlns:xlink="http://www.w3.org/1999/xlink" x="0px" y="0px"
	 viewBox="0 0 1400 1400" style="enable-background:new 0 0 1400 1400;" xml:space="preserve">
<style type="text/css">
	.st0{stroke:#FFFFFF;stroke-miterlimit:10;}
	.st1{fill:url(#SVGID_1_);}
	.st2{fill:#FFFFFF;}
	.st3{opacity:0.5;fill:url(#SVGID_2_);enable-background:new    ;}
</style>
<title>Artboard 1</title>
<rect y="0" class="st0" width="1400" height="1400"/>
<linearGradient id="SVGID_1_" gradientUnits="userSpaceOnUse" x1="877.2884" y1="987.4991" x2="535.8768" y2="646.0875" gradientTransform="matrix(1 0 0 -1 0 1397.8898)">
	<stop  offset="9.000000e-02" style="stop-color:#FF6D41"/>
	<stop  offset="0.5" style="stop-color:#FA297F"/>
	<stop  offset="1" style="stop-color:#FA297F"/>
</linearGradient>
<polygon class="st1" points="700,219.8 332.2,587.7 700,940.1 1067.8,587.7 "/>
<path class="st2" d="M514.9,900.7c8.1-10.8,15.8-21.1,25-31.1c-110.6,26.6-186.7,82.4-186.7,147c0,2.4,0.1,4.8,0.3,7.2
	c10.8-4.1,22.3-9,34.4-15C461,972.8,489.6,934.5,514.9,900.7z"/>
<path class="st2" d="M630,1019.4c22.1-29.6,41.2-55.1,95.2-81.6c54-26.5,85.9-26,122.8-25.4c24.7,0.4,51.4,0.8,84-6.2
	c-39.7-21.3-90.7-37.4-148.4-46.1l-83.6,80l-58.4-56c-41.6,28-62.9,56.5-82.3,82.4c-22.1,29.6-41.2,55.1-95.2,81.6
	c-37.9,18.6-64.8,23.9-90.3,25.2c20.1,26.7,54,50.1,97.3,68.1c10.1-3.9,20.7-8.6,31.9-14.1C576.1,1091.5,604.7,1053.2,630,1019.4z"
	/>
<path class="st2" d="M964.5,942.7c-42.2-0.7-90-1.4-163.1,34.5s-101.7,74.2-126.9,108c-22.1,29.6-41.2,55.1-95.2,81.6
	c-2.4,1.2-4.8,2.3-7.2,3.4c37.7,6.6,75.8,9.9,114.1,9.9c8.4,0,16.8-0.2,25-0.5c13.5-14.3,24-28.3,34-41.6
	c22.1-29.6,41.2-55.1,95.2-81.6c54-26.5,85.9-26,122.8-25.4c17,0.3,34.9,0.5,55-1.6c0.7-4.3,1-8.6,1-12.9
	c0-26.5-12.8-51.5-35.6-73.6C977.2,942.9,970.9,942.8,964.5,942.7z"/>
<path class="st2" d="M819.6,1166.4c87.2-18.8,154.9-55.4,184-100.5c-24.9,4.6-53.3,13.3-87.1,29.9
	C869.4,1119,840.8,1143.2,819.6,1166.4z"/>
<linearGradient id="SVGID_2_" gradientUnits="userSpaceOnUse" x1="782.7173" y1="1076.8433" x2="439.8995" y2="734.0324" gradientTransform="matrix(1 0 0 -1 0 1397.8898)">
	<stop  offset="0" style="stop-color:#652CB4"/>
	<stop  offset="7.000000e-02" style="stop-color:#652CB4;stop-opacity:0.82"/>
	<stop  offset="0.19" style="stop-color:#652CB4;stop-opacity:0.53"/>
	<stop  offset="0.3" style="stop-color:#652CB4;stop-opacity:0.3"/>
	<stop  offset="0.4" style="stop-color:#652CB4;stop-opacity:0.14"/>
	<stop  offset="0.49" style="stop-color:#652CB4;stop-opacity:4.000000e-02"/>
	<stop  offset="0.55" style="stop-color:#652CB4;stop-opacity:0"/>
</linearGradient>
<polygon class="st3" points="700,587.7 332.2,587.7 700,219.8 "/>
</svg>
