<svg width="96" height="78" viewBox="0 0 96 78" fill="#5e00ca" class="w-4 mr-1" xmlns="http://www.w3.org/2000/svg"
     data-v-62cab54c="">
    <path d="M83.5291 0H12.4308L0 22.5877L47.9547 77.8695L95.9094 22.5877L83.5291 0ZM80.2445 6.11434L87.5211 19.3537H74.4333L80.2445 6.11434ZM74.0291 5.81116L68.7233 17.9388L55.4334 5.81116H74.0291ZM61.6488 19.3537H34.2606L47.9547 6.87232L61.6488 19.3537ZM40.476 5.81116L27.1861 17.9388L21.8803 5.81116H40.476ZM15.7154 6.11434L21.5265 19.3537H8.43881L15.7154 6.11434ZM9.8537 25.1143H24.0531L38.5052 58.1116L9.8537 25.1143ZM30.3696 25.1143H65.5397L47.9547 65.2366L30.3696 25.1143ZM57.4041 58.1116L71.8562 25.1143H86.0557L57.4041 58.1116Z"
          data-v-62cab54c=""></path>
</svg>