<svg width="20" height="20" viewBox="0 0 20 20" fill="none" xmlns="http://www.w3.org/2000/svg">
<path d="M1.5625 7.80664L4.94727 2.86133H14.9121L18.2969 7.80664L9.92969 17.625L1.5625 7.80664Z" fill="#FF751A"/>
<path d="M14.8394 3.00977L18.1167 7.79883L9.93311 17.3965L1.75146 7.79688L5.02881 3.00781H14.8394V3.00977ZM14.9937 2.71289H4.87061L4.78272 2.8418L1.50732 7.63086L1.38037 7.81641L1.52686 7.98828L9.7085 17.5879L9.93311 17.8516L10.1577 17.5879L18.3394 7.98828L18.4858 7.81641L18.3589 7.63086L15.0815 2.8418L14.9937 2.71289V2.71289Z" fill="black"/>
<path d="M18.1128 7.80664H14.6616L14.8374 3.00977L18.1128 7.80664Z" fill="#C65626"/>
<path d="M14.5127 7.79688L9.93066 17.3965L18.1123 7.79688H14.5127" fill="#C65626"/>
<path d="M1.74902 7.65039H18.1143V7.94531H1.74902V7.65039Z" fill="black"/>
<path d="M9.80078 17.459L5.17383 7.63281L9.82813 2.79883L10.0391 3.00195L5.52734 7.69141L10.0664 17.334L9.80078 17.459Z" fill="black"/>
<path d="M10.0659 17.459L9.80029 17.334L14.3706 7.625L14.6909 2.99805L14.9858 3.01953L14.6616 7.70117L14.6499 7.72461L10.0659 17.459Z" fill="black"/>
<path d="M10.0392 2.79883L14.6221 7.56088L14.4096 7.76537L9.82666 3.00332L10.0392 2.79883Z" fill="black"/>
<path d="M5.11627 2.88867L5.494 7.65121L5.2 7.67453L4.82227 2.91199L5.11627 2.88867Z" fill="black"/>
</svg>
