<svg width="20" height="20" viewBox="0 0 20 20" fill="none" xmlns="http://www.w3.org/2000/svg">
<path opacity="0.5" d="M8.3444 1.56457C11.8125 1.57012 14.7129 4.20154 15.0545 7.65273C15.3964 11.1039 13.0684 14.2533 9.66907 14.9388C6.26938 15.6246 2.90294 13.6239 1.88042 10.3099C0.857909 6.99593 2.51114 3.4463 5.70581 2.09686C6.54058 1.74374 7.43802 1.5627 8.3444 1.56457ZM8.3444 0C3.73607 0 0 3.73607 0 8.3444C0 12.9527 3.73607 16.6888 8.3444 16.6888C12.9527 16.6888 16.6888 12.9527 16.6888 8.3444C16.6888 3.73607 12.9527 0 8.3444 0ZM19.2182 20.0005C19.1154 20.0007 19.0136 19.9805 18.9186 19.9411C18.8237 19.9017 18.7375 19.8439 18.6651 19.771L14.7015 15.8074C14.4052 15.5004 14.4094 15.0124 14.7109 14.7106C15.0127 14.4088 15.5007 14.4045 15.8074 14.7011L19.771 18.6647C19.8804 18.7741 19.9548 18.9135 19.985 19.0652C20.0151 19.2169 19.9997 19.3742 19.9405 19.5171C19.8815 19.6601 19.7813 19.7824 19.6527 19.8684C19.5241 19.9545 19.3729 20.0004 19.2182 20.0005Z" fill="black"/>
</svg>
