<svg width="15" height="15" viewBox="0 0 15 15" fill="none" xmlns="http://www.w3.org/2000/svg">
<g clip-path="url(#clip0_4899_15090)">
<path d="M15 0H0V15H15V0Z" fill="white" fill-opacity="0.01"/>
<path d="M7.5 13.75C9.22587 13.75 10.7884 13.0504 11.9194 11.9194C13.0504 10.7884 13.75 9.22587 13.75 7.5C13.75 5.77413 13.0504 4.21162 11.9194 3.08058C10.7884 1.94956 9.22587 1.25 7.5 1.25C5.77413 1.25 4.21162 1.94956 3.08058 3.08058C1.94956 4.21162 1.25 5.77413 1.25 7.5C1.25 9.22587 1.94956 10.7884 3.08058 11.9194C4.21162 13.0504 5.77413 13.75 7.5 13.75Z" fill="#7BD742" stroke="#7BD742" stroke-width="2" stroke-linejoin="round"/>
<path d="M5 7.5L6.875 9.375L10.625 5.625" stroke="white" stroke-width="2" stroke-linecap="round" stroke-linejoin="round"/>
</g>
<defs>
<clipPath id="clip0_4899_15090">
<rect width="15" height="15" fill="white"/>
</clipPath>
</defs>
</svg>
