<svg width="90" height="90" viewBox="0 0 90 90" fill="none" xmlns="http://www.w3.org/2000/svg">
<path d="M90 45C90 69.8514 69.8514 90 45 90C20.1486 90 0 69.8514 0 45C0 20.1486 20.1486 0 45 0C69.8566 0 90 20.1486 90 45Z" fill="black"/>
<path d="M22.2962 63.6223C22.2959 63.7 22.2747 63.7762 22.2345 63.8431L20.0623 67.4592C19.8884 67.7487 20.0992 68.1154 20.4394 68.1154H69.5606C69.903 68.1154 70.1135 67.7443 69.9351 67.4549L67.6708 63.7814C67.6288 63.7132 67.6066 63.6351 67.6066 63.5554V59.7475C67.6066 59.5947 67.5254 59.4531 67.3928 59.3747L63.7144 57.2011C63.652 57.1642 63.5998 57.1125 63.5626 57.0509L55.555 43.778C55.471 43.6386 55.4724 43.4647 55.5587 43.3266L57.4314 40.3336C57.489 40.2415 57.5794 40.174 57.6848 40.1444L63.8709 38.4097C64.1598 38.3286 64.2829 37.9907 64.1128 37.7458L61.5805 34.1015C61.4827 33.9607 61.4774 33.7763 61.5668 33.6303L62.5169 32.0792C62.5549 32.0172 62.6081 31.9655 62.6715 31.929L66.5623 29.6887C66.6973 29.6109 66.7804 29.4679 66.7804 29.3133V25.3759C66.7804 25.2907 66.8058 25.2074 66.8533 25.1363L69.1678 21.6738C69.3607 21.3852 69.1516 21 68.8019 21H21.4834C21.1445 21 20.9334 21.3641 21.1048 21.6536L23.2857 25.3418C23.3252 25.4083 23.3458 25.484 23.3458 25.5611V29.3021C23.3458 29.4551 23.4274 29.5969 23.5602 29.6752L27.2486 31.8485C27.3096 31.8845 27.3609 31.9346 27.398 31.9945L34.4658 43.3926C34.5518 43.5314 34.5523 43.7059 34.4671 43.8449L31.2277 49.1327C31.17 49.2265 31.0788 49.2955 30.9719 49.3252L24.9937 50.999C24.7061 51.0796 24.5822 51.415 24.7498 51.6602L27.1953 55.2396C27.2912 55.3799 27.2958 55.5625 27.2074 55.7075L26.4626 56.9273C26.4264 56.9866 26.3764 57.0365 26.3167 57.0728L22.5155 59.3815C22.3859 59.46 22.3067 59.5999 22.3062 59.7503L22.2962 63.6223ZM37.2439 64.3281C37.1658 64.4638 37.0201 64.5476 36.8626 64.5476H28.2002C27.9578 64.5476 27.7615 64.3531 27.7615 64.1134V61.2939C27.7615 61.1417 27.8418 61.0007 27.9734 60.9221L30.741 59.2679C30.7802 59.2444 30.8252 59.2321 30.871 59.2321C30.9594 59.2321 31.0415 59.186 31.0869 59.1109L33.1825 55.6346C33.2703 55.4889 33.2643 55.3059 33.1672 55.166L31.9859 53.4649C31.8172 53.2217 31.9372 52.8863 32.2232 52.8027L35.1623 51.9424C35.2665 51.9118 35.3558 51.8441 35.4124 51.7522L40.3348 43.7782C40.4208 43.6388 40.4206 43.4636 40.3344 43.3247L32.0146 29.9113C31.978 29.8522 31.9275 29.8026 31.8674 29.7667L29.1312 28.1314C28.9996 28.0527 28.9193 27.9117 28.9193 27.7596V24.8711C28.9193 24.6313 29.1157 24.4369 29.3581 24.4369H43.515C43.7574 24.4369 43.9537 24.6313 43.9537 24.8711V27.7585C43.9537 27.9112 43.8728 28.0527 43.7403 28.1311L41.4797 29.4698C41.2757 29.5906 41.2061 29.8503 41.3226 30.0553L44.5184 35.6789C44.6855 35.9734 45.1135 35.9743 45.2822 35.6806L51.6115 24.6566C51.6895 24.5208 51.8351 24.4369 51.993 24.4369H60.7545C60.9968 24.4369 61.1933 24.6313 61.1933 24.8711V27.7596C61.1933 27.9117 61.1129 28.0527 60.9813 28.1314L58.2133 29.7857C58.1743 29.809 58.1297 29.8213 58.0842 29.8213C57.997 29.8213 57.9161 29.8663 57.8708 29.9401L55.5711 33.6826C55.48 33.8308 55.4868 34.0185 55.5883 34.1598L56.8533 35.9207C57.0276 36.1634 56.9091 36.5038 56.6207 36.5886L53.3552 37.5492C53.3317 37.5561 53.3064 37.5525 53.2858 37.5393C53.2461 37.5139 53.193 37.5261 53.1686 37.5662L49.6628 43.3281C49.5793 43.4654 49.579 43.6371 49.662 43.7748L58.9521 59.1724C58.9745 59.2095 59.015 59.2321 59.0587 59.2321C59.0813 59.2321 59.1035 59.2384 59.1228 59.2499L61.9208 60.9221C62.0524 61.0007 62.1328 61.1417 62.1328 61.2939V64.1134C62.1328 64.3531 61.9363 64.5476 61.694 64.5476H47.2302C46.988 64.5476 46.7915 64.3531 46.7915 64.1134V61.2945C46.7915 61.1421 46.8724 61.0007 47.0045 60.9224L49.3645 59.5193C49.5697 59.3973 49.6382 59.1348 49.5184 58.9296L45.2816 51.6762C45.112 51.3859 44.6879 51.3875 44.5203 51.6788L37.2439 64.3281Z" fill="white"/>
</svg>
