<svg width="632" height="160" viewBox="0 0 632 160" fill="none" xmlns="http://www.w3.org/2000/svg">
<path d="M160.105 75.62C159.814 70.2 158.981 64.9222 157.66 59.8422C156.872 56.8044 155.908 53.8378 154.78 50.9533C149.114 36.4356 139.323 23.9756 126.845 15.0156C118.667 9.13778 109.334 4.76444 99.2507 2.29778C93.1176 0.795555 86.7086 0 80.1127 0C73.5167 0 67.1077 0.795555 60.9747 2.29778C50.8916 4.76444 41.5585 9.14 33.3803 15.0156C20.9027 23.9778 11.1112 36.4356 5.44544 50.9533C4.31941 53.8378 3.35361 56.8044 2.56583 59.8422C1.24397 64.9222 0.411689 70.2 0.120168 75.62C0.0400548 77.0711 0 78.5311 0 80C0 81.5133 0.0422833 83.0156 0.126847 84.5089C0.418368 89.7711 1.21949 94.9 2.48349 99.8422C3.26014 102.878 4.21036 105.844 5.32527 108.731C10.971 123.384 20.8115 135.958 33.3803 144.984C41.5585 150.86 50.8916 155.236 60.9747 157.702C67.1077 159.204 73.5167 160 80.1127 160C86.7086 160 93.1176 159.204 99.2507 157.702C109.334 155.236 118.667 150.862 126.845 144.984C139.414 135.958 149.254 123.384 154.902 108.731C156.017 105.844 156.965 102.878 157.742 99.8422C159.006 94.9 159.807 89.7711 160.099 84.5089C160.183 83.0156 160.225 81.5133 160.225 80C160.225 78.5311 160.185 77.0711 160.105 75.62Z" fill="#3671FF"/>
<path d="M55.4073 76.0705L76.1788 55.3283C77.9168 53.5927 77.9168 50.7794 76.1788 49.0439C74.4408 47.3083 71.6235 47.3083 69.8855 49.0439L49.114 69.7861C47.376 71.5216 47.376 74.335 49.114 76.0705C50.852 77.8061 53.6693 77.8061 55.4073 76.0705Z" fill="white"/>
<path d="M104.503 83.6132L83.7312 104.355C81.9932 106.091 81.9932 108.904 83.7312 110.64C85.4692 112.375 88.2865 112.375 90.0245 110.64L110.796 89.8976C112.534 88.1621 112.534 85.3487 110.796 83.6132C109.06 81.8776 106.241 81.8776 104.503 83.6132Z" fill="white"/>
<path d="M106.864 47.0019L47.0691 106.713C45.3311 108.449 45.3311 111.262 47.0691 112.997C48.8071 114.733 51.6244 114.733 53.3624 112.997L113.158 53.2863C114.896 51.5508 114.896 48.7374 113.158 47.0019C111.42 45.2663 108.602 45.2663 106.864 47.0019Z" fill="white"/>
<path d="M243.329 17.4551C246.623 18.9663 249.182 21.1218 250.962 23.9218C252.743 26.7218 253.633 30.0107 253.633 33.8329C253.633 37.6107 252.743 40.8996 250.962 43.6996C249.182 46.5218 246.623 48.6774 243.329 50.1663C240.036 51.6551 236.141 52.4107 231.646 52.4107H221.877C221.632 52.4107 221.432 52.6107 221.432 52.8551V66.144C221.432 66.3885 221.232 66.5885 220.987 66.5885H210.172C209.927 66.5885 209.727 66.3885 209.727 66.144V15.6329C209.727 15.3885 209.927 15.1885 210.172 15.1885H231.646C236.119 15.1885 240.014 15.944 243.329 17.4551ZM239.012 40.4107C240.837 38.8774 241.772 36.6774 241.772 33.8329C241.772 30.944 240.859 28.7218 239.012 27.1885C237.187 25.6551 234.495 24.8774 230.979 24.8774H221.877C221.632 24.8774 221.432 25.0774 221.432 25.3218V42.2774C221.432 42.5218 221.632 42.7218 221.877 42.7218H230.979C234.517 42.7218 237.187 41.944 239.012 40.4107Z" fill="white"/>
<path d="M306.108 50.4996C305.952 50.2774 306.041 49.9663 306.286 49.8329C309.379 48.3663 311.782 46.3218 313.518 43.6996C315.321 40.944 316.233 37.6329 316.233 33.8329C316.233 30.0107 315.343 26.6996 313.563 23.9218C311.782 21.1218 309.223 18.9885 305.93 17.4551C302.614 15.944 298.72 15.1885 294.224 15.1885H272.75C272.505 15.1885 272.305 15.3885 272.305 15.6329V24.4329C272.305 24.6774 272.505 24.8774 272.75 24.8774H284.032H286.436H293.579C297.095 24.8774 299.766 25.6551 301.613 27.1885C303.437 28.7218 304.372 30.944 304.372 33.8329C304.372 36.6774 303.46 38.8774 301.613 40.4329C299.788 42.0107 297.095 42.7885 293.579 42.7885H286.436H284.032H272.75C272.505 42.7885 272.305 42.9885 272.305 43.2329V66.144C272.305 66.3885 272.505 66.5885 272.75 66.5885H283.587C283.832 66.5885 284.032 66.3885 284.032 66.144V52.7218C284.032 52.4774 284.233 52.2774 284.477 52.2774H294.224H294.558C294.714 52.2774 294.848 52.344 294.937 52.4774L304.439 66.4107C304.528 66.5218 304.661 66.6107 304.817 66.6107H316.322C316.678 66.6107 316.901 66.2107 316.678 65.9218L306.108 50.4996Z" fill="white"/>
<path d="M242.863 118.3H252.677C252.922 118.3 253.122 118.5 253.122 118.745V138.945C253.122 139.078 253.055 139.211 252.944 139.3C250.229 141.345 247.113 142.9 243.575 144.011C239.948 145.145 236.32 145.7 232.649 145.7C227.397 145.7 222.657 144.567 218.473 142.278C214.289 139.989 210.996 136.834 208.593 132.811C206.211 128.767 205.01 124.189 205.01 119.1C205.01 114.011 206.211 109.434 208.593 105.411C210.974 101.367 214.289 98.2113 218.54 95.9447C222.79 93.678 227.553 92.5225 232.871 92.5225C237.3 92.5225 241.328 93.278 244.955 94.7891C248.426 96.2558 251.386 98.3447 253.789 101.078C253.945 101.256 253.923 101.522 253.767 101.7L246.869 108.167C246.691 108.345 246.424 108.322 246.246 108.145C242.685 104.5 238.435 102.656 233.45 102.656C230.223 102.656 227.352 103.345 224.838 104.722C222.323 106.1 220.387 108.034 218.985 110.522C217.583 113.011 216.893 115.878 216.893 119.122C216.893 122.3 217.583 125.145 218.985 127.634C220.387 130.122 222.323 132.078 224.815 133.478C227.308 134.878 230.134 135.567 233.316 135.567C236.588 135.567 239.547 134.878 242.195 133.5C242.351 133.434 242.44 133.278 242.44 133.1V118.745C242.418 118.5 242.618 118.3 242.863 118.3Z" fill="white"/>
<path d="M409.787 65.5218C407.028 64.2774 404.758 62.5218 402.956 60.2551C402.822 60.0996 402.822 59.8551 402.956 59.6996L408.875 52.4774C409.053 52.2551 409.387 52.2551 409.565 52.4774C412.235 55.944 415.262 57.6774 418.644 57.6774C423.429 57.6774 425.81 54.8329 425.81 49.1663V25.1663C425.81 24.9218 425.61 24.7218 425.365 24.7218H408.452C408.207 24.7218 408.007 24.5218 408.007 24.2774V15.6329C408.007 15.3885 408.207 15.1885 408.452 15.1885H437.003C437.248 15.1885 437.449 15.3885 437.449 15.6329V48.5218C437.449 54.8329 435.913 59.5663 432.82 62.7218C429.727 65.8774 425.209 67.4551 419.223 67.4551C415.796 67.4774 412.658 66.8107 409.787 65.5218Z" fill="white"/>
<path d="M341.556 93.3887H352.394C352.639 93.3887 352.839 93.5887 352.839 93.8331V134.655C352.839 134.9 353.039 135.1 353.284 135.1H377.785C378.03 135.1 378.23 135.3 378.23 135.544V144.344C378.23 144.589 378.03 144.789 377.785 144.789H341.556C341.312 144.789 341.111 144.589 341.111 144.344V93.8331C341.111 93.5887 341.312 93.3887 341.556 93.3887Z" fill="white"/>
<path d="M603.347 24.8774H588.037C587.792 24.8774 587.592 24.6774 587.592 24.4329V15.6329C587.592 15.3885 587.792 15.1885 588.037 15.1885H631.275C631.52 15.1885 631.721 15.3885 631.721 15.6329V24.4329C631.721 24.6774 631.52 24.8774 631.275 24.8774H615.965C615.72 24.8774 615.52 25.0774 615.52 25.3218V66.144C615.52 66.3885 615.32 66.5885 615.075 66.5885H604.237C603.993 66.5885 603.792 66.3885 603.792 66.144V25.3218C603.792 25.0774 603.592 24.8774 603.347 24.8774Z" fill="white"/>
<path d="M554.568 126.722V144.367C554.568 144.611 554.367 144.811 554.123 144.811H543.285C543.04 144.811 542.84 144.611 542.84 144.367V126.567C542.84 126.478 542.818 126.411 542.773 126.344L523.635 94.0778C523.457 93.7889 523.68 93.4111 524.014 93.4111H535.43C535.585 93.4111 535.741 93.5 535.808 93.6334L548.826 115.611C549.004 115.9 549.427 115.9 549.583 115.611L562.601 93.6334C562.69 93.5 562.824 93.4111 562.979 93.4111H573.439C573.772 93.4111 573.995 93.7889 573.817 94.0778L554.59 126.5C554.59 126.544 554.568 126.633 554.568 126.722Z" fill="white"/>
<path d="M343.449 64.0109C339.22 61.6998 335.927 58.5442 333.546 54.4998C331.165 50.4554 329.963 45.922 329.963 40.8776C329.963 35.8331 331.165 31.2998 333.546 27.2554C335.927 23.2109 339.243 20.0554 343.449 17.7442C347.677 15.4554 352.417 14.2998 357.669 14.2998C362.92 14.2998 367.66 15.4554 371.844 17.7442C376.05 20.0554 379.343 23.2109 381.747 27.2554C384.15 31.2998 385.374 35.8331 385.374 40.8776C385.374 45.922 384.172 50.4554 381.747 54.4998C379.343 58.5442 376.028 61.6998 371.844 64.0109C367.638 66.322 362.92 67.4554 357.669 67.4554C352.417 67.4776 347.677 66.322 343.449 64.0109ZM365.769 55.2331C368.172 53.8331 370.064 51.8998 371.443 49.3887C372.823 46.8776 373.513 44.0554 373.513 40.8776C373.513 37.6998 372.823 34.8554 371.443 32.3665C370.064 29.8776 368.172 27.922 365.769 26.522C363.365 25.122 360.65 24.4331 357.669 24.4331C354.687 24.4331 351.972 25.122 349.568 26.522C347.165 27.922 345.273 29.8554 343.894 32.3665C342.514 34.8554 341.824 37.6998 341.824 40.8776C341.824 44.0554 342.514 46.8998 343.894 49.3887C345.273 51.8776 347.165 53.8331 349.568 55.2331C351.972 56.6331 354.687 57.322 357.669 57.322C360.65 57.3442 363.365 56.6331 365.769 55.2331Z" fill="white"/>
<path d="M300.011 93.3887H289.017C288.839 93.3887 288.684 93.4998 288.617 93.6553L266.43 144.166C266.297 144.455 266.519 144.789 266.831 144.789H277.868C278.046 144.789 278.202 144.678 278.291 144.522L282.675 133.789L286.436 124.766L294.047 106.1C294.203 105.722 294.714 105.722 294.87 106.1L302.481 124.766L306.175 133.789L310.537 144.522C310.603 144.7 310.759 144.789 310.959 144.789H322.286C322.598 144.789 322.821 144.455 322.687 144.166L300.434 93.6553C300.345 93.4998 300.166 93.3887 300.011 93.3887Z" fill="white"/>
<path d="M464.041 57.4776V66.1443C464.041 66.3888 464.241 66.5888 464.486 66.5888H502.807C503.051 66.5888 503.252 66.3888 503.252 66.1443V57.4776C503.252 57.2332 503.051 57.0332 502.807 57.0332H475.68H464.486C464.241 57.0332 464.041 57.2332 464.041 57.4776Z" fill="white"/>
<path d="M503.252 24.144V15.6329C503.252 15.3885 503.051 15.1885 502.807 15.1885H464.486C464.241 15.1885 464.041 15.3885 464.041 15.6329V24.1663C464.041 24.4107 464.241 24.6107 464.486 24.6107H502.807C503.051 24.5885 503.252 24.3885 503.252 24.144Z" fill="white"/>
<path d="M464.041 36.3663V44.6552C464.041 44.8997 464.241 45.0997 464.486 45.0997H502.851C503.096 45.0997 503.296 44.8997 503.296 44.6552V36.3663C503.296 36.1219 503.096 35.9219 502.851 35.9219H464.486C464.241 35.9219 464.041 36.1219 464.041 36.3663Z" fill="white"/>
<path d="M426.722 93.3887H415.728C415.55 93.3887 415.395 93.4998 415.328 93.6553L393.141 144.166C393.008 144.455 393.23 144.789 393.542 144.789H404.579C404.757 144.789 404.913 144.678 405.002 144.522L409.386 133.789L413.147 124.766L420.758 106.1C420.913 105.722 421.425 105.722 421.581 106.1L429.192 124.766L432.886 133.789L437.248 144.522C437.314 144.7 437.47 144.789 437.67 144.789H448.997C449.309 144.789 449.531 144.455 449.398 144.166L427.144 93.6553C427.055 93.4998 426.9 93.3887 426.722 93.3887Z" fill="white"/>
<path d="M536.075 64.0554C531.914 61.7887 528.62 58.6109 526.239 54.5887C523.858 50.5443 522.656 45.9887 522.656 40.8998C522.656 35.8109 523.858 31.2331 526.239 27.2109C528.62 23.1665 531.914 20.0109 536.075 17.7442C540.259 15.4331 544.932 14.2998 550.162 14.2998C554.546 14.2998 558.529 15.0776 562.067 16.6554C565.472 18.1665 568.365 20.2998 570.724 23.0776C570.88 23.2554 570.857 23.522 570.679 23.6998L563.803 30.1442C563.625 30.322 563.336 30.2998 563.158 30.122C559.775 26.3442 555.636 24.4554 550.718 24.4554C547.58 24.4554 544.776 25.1442 542.328 26.5442C539.858 27.9442 537.944 29.8776 536.587 32.3887C535.207 34.8776 534.517 37.722 534.517 40.8998C534.517 44.0776 535.207 46.922 536.587 49.4109C537.967 51.8998 539.88 53.8554 542.328 55.2554C544.799 56.6554 547.58 57.3442 550.718 57.3442C555.636 57.3442 559.775 55.4331 563.158 51.6109C563.336 51.4109 563.625 51.4109 563.803 51.5665L570.679 58.0109C570.857 58.1665 570.88 58.4331 570.724 58.6109C568.365 61.4331 565.45 63.6109 562.023 65.122C558.462 66.6776 554.479 67.4776 550.095 67.4776C544.91 67.4776 540.259 66.322 536.075 64.0554Z" fill="white"/>
<path d="M477.749 101.189L472.431 93.5887C472.341 93.4776 472.208 93.3887 472.074 93.3887H459.857C459.501 93.3887 459.279 93.7887 459.501 94.0998L470.517 109.722C470.695 109.966 471.051 109.966 471.229 109.744L477.771 101.722C477.86 101.589 477.86 101.366 477.749 101.189Z" fill="white"/>
<path d="M496.286 127.522L489.855 135.677C489.744 135.833 489.722 136.033 489.833 136.211L495.597 144.633C495.686 144.744 495.819 144.833 495.975 144.833H508.415C508.771 144.833 508.993 144.433 508.771 144.122L496.999 127.566C496.843 127.3 496.487 127.277 496.286 127.522Z" fill="white"/>
<path d="M490.389 118.211L507.547 94.0998C507.747 93.8109 507.547 93.3887 507.19 93.3887H495.619C495.463 93.3887 495.329 93.4553 495.24 93.5887L483.958 110.055C483.958 110.078 483.936 110.078 483.936 110.078L476.792 118.633L476.77 118.655L458.544 144.078C458.344 144.366 458.544 144.789 458.9 144.789H471.251C471.407 144.789 471.54 144.722 471.629 144.589L483.49 126.944L483.513 126.922L490.389 118.211Z" fill="white"/>
</svg>
