<svg width="865" height="166" viewBox="0 0 865 166" fill="none" xmlns="http://www.w3.org/2000/svg">
<path d="M138.922 85.153C138.733 81.63 138.193 78.1994 137.335 74.8974C136.823 72.9229 136.198 70.9946 135.465 69.1197C131.788 59.6831 125.432 51.5841 117.333 45.7601C112.025 41.9396 105.967 39.0969 99.4222 37.4936C95.4413 36.5171 91.2813 36 87 36C82.7187 36 78.5587 36.5171 74.5778 37.4936C68.033 39.0969 61.975 41.941 56.6667 45.7601C48.5677 51.5856 42.2121 59.6831 38.5346 69.1197C37.8037 70.9946 37.1768 72.9229 36.6654 74.8974C35.8074 78.1994 35.2672 81.63 35.078 85.153C35.026 86.0962 35 87.0452 35 88C35 88.9837 35.0274 89.9601 35.0823 90.9308C35.2716 94.3512 35.7916 97.685 36.612 100.897C37.1161 102.871 37.7329 104.799 38.4566 106.675C42.1211 116.2 48.5084 124.373 56.6667 130.24C61.975 134.059 68.033 136.903 74.5778 138.506C78.5587 139.483 82.7187 140 87 140C91.2813 140 95.4413 139.483 99.4222 138.506C105.967 136.903 112.025 134.06 117.333 130.24C125.492 124.373 131.879 116.2 135.545 106.675C136.269 104.799 136.884 102.871 137.388 100.897C138.208 97.685 138.728 94.3512 138.918 90.9308C138.973 89.9601 139 88.9837 139 88C139 87.0452 138.974 86.0962 138.922 85.153Z" fill="#3671FF"/>
<path d="M70.9642 85.4456L84.4466 71.9632C85.5747 70.8351 85.5747 69.0064 84.4466 67.8783C83.3185 66.7502 81.4898 66.7502 80.3617 67.8783L66.8793 81.3608C65.7512 82.4889 65.7512 84.3175 66.8793 85.4456C68.0074 86.5738 69.8361 86.5738 70.9642 85.4456Z" fill="white"/>
<path d="M102.83 90.348L89.348 103.83C88.2199 104.959 88.2199 106.787 89.348 107.915C90.4761 109.043 92.3048 109.043 93.4329 107.915L106.915 94.4329C108.043 93.3048 108.043 91.4761 106.915 90.348C105.789 89.2199 103.959 89.2199 102.83 90.348Z" fill="white"/>
<path d="M104.363 66.5512L65.5512 105.363C64.4231 106.492 64.4231 108.32 65.5512 109.448C66.6793 110.576 68.5079 110.576 69.6361 109.448L108.448 70.6361C109.576 69.5079 109.576 67.6793 108.448 66.5512C107.32 65.4231 105.492 65.4231 104.363 66.5512Z" fill="white"/>
<path d="M200.301 68.7575C202.915 69.9532 204.947 71.6589 206.36 73.8745C207.773 76.0901 208.479 78.6926 208.479 81.7171C208.479 84.7065 207.773 87.309 206.36 89.5246C204.947 91.7578 202.915 93.4635 200.301 94.6416C197.687 95.8198 194.596 96.4177 191.029 96.4177H183.292C183.098 96.4177 182.939 96.5759 182.939 96.7694V107.285C182.939 107.478 182.78 107.636 182.586 107.636H173.984C173.79 107.636 173.631 107.478 173.631 107.285V67.3156C173.631 67.1221 173.79 66.9639 173.984 66.9639H191.029C194.596 66.9639 197.687 67.5617 200.301 68.7575ZM196.893 86.9221C198.341 85.7088 199.083 83.9679 199.083 81.7171C199.083 79.4312 198.359 77.6727 196.893 76.4594C195.444 75.2461 193.307 74.6306 190.516 74.6306H183.292C183.098 74.6306 182.939 74.7889 182.939 74.9823V88.3992C182.939 88.5926 183.098 88.7509 183.292 88.7509H190.516C193.307 88.7509 195.427 88.153 196.893 86.9221Z" fill="white"/>
<path d="M246.814 94.9055C246.69 94.7296 246.761 94.4834 246.955 94.3779C249.41 93.2174 251.318 91.5996 252.695 89.5246C254.126 87.3442 254.85 84.7241 254.85 81.7172C254.85 78.6927 254.144 76.0726 252.731 73.8745C251.318 71.6589 249.287 69.9708 246.672 68.7575C244.058 67.5617 240.967 66.9639 237.4 66.9639H220.355C220.161 66.9639 220.002 67.1221 220.002 67.3156V74.279C220.002 74.4724 220.161 74.6307 220.355 74.6307H229.31H231.218H236.887C239.678 74.6307 241.798 75.2461 243.264 76.4594C244.712 77.6728 245.454 79.4312 245.454 81.7172C245.454 83.968 244.73 85.7088 243.264 86.9397C241.815 88.1882 239.678 88.8037 236.887 88.8037H231.218H229.31H220.355C220.161 88.8037 220.002 88.9619 220.002 89.1554V107.285C220.002 107.478 220.161 107.637 220.355 107.637H228.957C229.151 107.637 229.31 107.478 229.31 107.285V96.6639C229.31 96.4705 229.469 96.3122 229.663 96.3122H237.4H237.665C237.788 96.3122 237.894 96.365 237.965 96.4705L245.507 107.496C245.577 107.584 245.683 107.654 245.807 107.654H254.939C255.221 107.654 255.398 107.338 255.221 107.109L246.814 94.9055Z" fill="white"/>
<path d="M327.818 106.819C325.628 105.834 323.827 104.445 322.396 102.651C322.29 102.528 322.29 102.335 322.396 102.212L327.094 96.4968C327.235 96.3209 327.5 96.3209 327.642 96.4968C329.761 99.24 332.163 100.612 334.848 100.612C338.646 100.612 340.535 98.3607 340.535 93.8767V74.8856C340.535 74.6922 340.376 74.5339 340.182 74.5339H326.759C326.564 74.5339 326.405 74.3757 326.405 74.1822V67.3243C326.405 67.1309 326.564 66.9727 326.759 66.9727H349.42C349.614 66.9727 349.773 67.1309 349.773 67.3243V93.3492C349.773 98.3432 348.554 102.089 346.099 104.586C343.644 107.083 340.059 108.331 335.307 108.331C332.587 108.349 330.097 107.839 327.818 106.819Z" fill="white"/>
<path d="M471.978 74.6306H459.826C459.632 74.6306 459.473 74.4724 459.473 74.279V67.3156C459.473 67.1221 459.632 66.9639 459.826 66.9639H494.144C494.338 66.9639 494.497 67.1221 494.497 67.3156V74.279C494.497 74.4724 494.338 74.6306 494.144 74.6306H481.992C481.798 74.6306 481.639 74.7889 481.639 74.9823V107.285C481.639 107.478 481.48 107.636 481.286 107.636H472.684C472.49 107.636 472.331 107.478 472.331 107.285V74.9823C472.331 74.7889 472.172 74.6306 471.978 74.6306Z" fill="white"/>
<path d="M277.518 106.297C274.162 104.468 271.548 101.971 269.658 98.7711C267.768 95.5707 266.814 91.9835 266.814 87.9918C266.814 84.0002 267.768 80.413 269.658 77.2126C271.548 74.0123 274.18 71.5153 277.518 69.6865C280.874 67.8577 284.636 66.9609 288.804 66.9609C292.973 66.9609 296.735 67.8753 300.055 69.6865C303.394 71.5153 306.008 74.0123 307.915 77.2126C309.823 80.413 310.794 84.0002 310.794 87.9918C310.794 91.9835 309.84 95.5707 307.915 98.7711C306.008 101.971 303.376 104.468 300.055 106.297C296.717 108.126 292.973 109.023 288.804 109.023C284.636 109.023 280.874 108.108 277.518 106.297ZM295.233 99.3513C297.141 98.2435 298.642 96.7137 299.737 94.7267C300.833 92.7396 301.38 90.5064 301.38 87.9918C301.38 85.4773 300.833 83.2265 299.737 81.257C298.642 79.2876 297.141 77.7402 295.233 76.6323C293.326 75.5245 291.171 74.9794 288.804 74.9794C286.438 74.9794 284.283 75.5245 282.375 76.6323C280.468 77.7402 278.966 79.27 277.871 81.257C276.776 83.2265 276.229 85.4773 276.229 87.9918C276.229 90.5064 276.776 92.7572 277.871 94.7267C278.966 96.6961 280.468 98.2435 282.375 99.3513C284.283 100.459 286.438 101.004 288.804 101.004C291.189 101.004 293.326 100.442 295.233 99.3513Z" fill="white"/>
<path d="M364.174 100.444V107.302C364.174 107.496 364.333 107.654 364.527 107.654H394.942C395.136 107.654 395.295 107.496 395.295 107.302V100.444C395.295 100.251 395.136 100.093 394.942 100.093H373.429H364.545C364.333 100.093 364.174 100.251 364.174 100.444Z" fill="white"/>
<path d="M395.295 74.068V67.3156C395.295 67.1221 395.136 66.9639 394.942 66.9639H364.527C364.333 66.9639 364.174 67.1221 364.174 67.3156V74.068C364.174 74.2614 364.333 74.4196 364.527 74.4196H394.942C395.136 74.4196 395.295 74.2614 395.295 74.068Z" fill="white"/>
<path d="M364.174 83.7218V90.2808C364.174 90.4742 364.333 90.6325 364.527 90.6325H394.977C395.171 90.6325 395.33 90.4742 395.33 90.2808V83.7218C395.33 83.5284 395.171 83.3701 394.977 83.3701H364.527C364.333 83.3701 364.174 83.5284 364.174 83.7218Z" fill="white"/>
<path d="M420.385 106.315C417.082 104.521 414.468 102.007 412.578 98.8239C410.688 95.6235 409.734 92.0187 409.734 87.9919C409.734 83.965 410.688 80.3427 412.578 77.1599C414.468 73.9595 417.082 71.4625 420.385 69.6689C423.688 67.8753 427.415 66.9609 431.548 66.9609C435.027 66.9609 438.189 67.5764 440.997 68.8249C443.7 70.0206 445.996 71.7087 447.868 73.9068C447.992 74.0474 447.974 74.2585 447.833 74.3991L442.375 79.4986C442.234 79.6393 442.004 79.6217 441.863 79.481C439.178 76.4917 435.893 74.997 431.989 74.997C429.499 74.997 427.273 75.5421 425.33 76.6499C423.37 77.7578 421.851 79.2876 420.774 81.2746C419.678 83.2441 419.131 85.4949 419.131 88.0095C419.131 90.524 419.678 92.7748 420.774 94.7443C421.869 96.7137 423.388 98.2612 425.33 99.369C427.291 100.477 429.499 101.022 431.989 101.022C435.893 101.022 439.178 99.5097 441.863 96.4851C442.004 96.3269 442.234 96.3269 442.375 96.45L447.833 101.549C447.974 101.673 447.992 101.884 447.868 102.024C445.996 104.257 443.682 105.981 440.962 107.176C438.136 108.407 434.974 109.04 431.495 109.04C427.397 109.023 423.688 108.126 420.385 106.315Z" fill="white"/>
<path d="M559.109 87.3529H566.898C567.092 87.3529 567.251 87.5112 567.251 87.7046V103.689C567.251 103.794 567.198 103.9 567.11 103.97C564.955 105.588 562.482 106.819 559.674 107.698C556.795 108.595 553.916 109.034 551.001 109.034C546.833 109.034 543.071 108.138 539.75 106.326C536.43 104.515 533.816 102.018 531.908 98.8355C530.018 95.6352 529.064 92.0304 529.064 88.0036C529.064 83.9767 530.018 80.3544 531.908 77.1716C533.798 73.9712 536.43 71.4743 539.803 69.6806C543.177 67.887 546.957 66.9727 551.178 66.9727C554.693 66.9727 557.89 67.5705 560.769 68.7663C563.524 69.9268 565.873 71.5798 567.781 73.7426C567.905 73.8833 567.887 74.0943 567.763 74.235L562.288 79.3521C562.147 79.4927 561.935 79.4751 561.793 79.3345C558.967 76.4506 555.594 74.9911 551.637 74.9911C549.076 74.9911 546.798 75.5362 544.802 76.6265C542.806 77.7167 541.269 79.2465 540.157 81.216C539.044 83.1854 538.496 85.4538 538.496 88.0211C538.496 90.5357 539.044 92.7865 540.157 94.756C541.269 96.7254 542.806 98.2728 544.784 99.3806C546.762 100.488 549.006 101.034 551.531 101.034C554.128 101.034 556.477 100.488 558.579 99.3982C558.702 99.3455 558.773 99.2224 558.773 99.0817V87.7398C558.755 87.5112 558.914 87.3529 559.109 87.3529Z" fill="white"/>
<path d="M635.881 66.9727H644.482C644.677 66.9727 644.836 67.1309 644.836 67.3243V99.6268C644.836 99.8202 644.994 99.9785 645.189 99.9785H664.635C664.83 99.9785 664.989 100.137 664.989 100.33V107.294C664.989 107.487 664.83 107.645 664.635 107.645H635.881C635.686 107.645 635.527 107.487 635.527 107.294V67.3243C635.527 67.1309 635.686 66.9727 635.881 66.9727Z" fill="white"/>
<path d="M808.91 93.3316V107.294C808.91 107.487 808.751 107.645 808.556 107.645H799.955C799.76 107.645 799.601 107.487 799.601 107.294V93.2085C799.601 93.1382 799.584 93.0854 799.548 93.0327L784.359 67.5002C784.217 67.2716 784.394 66.9727 784.659 66.9727H793.72C793.843 66.9727 793.967 67.043 794.02 67.1485L804.353 84.5394C804.494 84.768 804.829 84.768 804.953 84.5394L815.286 67.1485C815.356 67.043 815.462 66.9727 815.586 66.9727H823.887C824.152 66.9727 824.329 67.2716 824.188 67.5002L808.927 93.1558C808.927 93.2085 808.91 93.2789 808.91 93.3316Z" fill="white"/>
<path d="M606.042 66.9727H597.316C597.175 66.9727 597.051 67.0606 596.998 67.1837L579.389 107.153C579.283 107.382 579.459 107.645 579.707 107.645H588.467C588.609 107.645 588.732 107.557 588.803 107.434L592.282 98.941L595.267 91.8018L601.308 77.0309C601.432 76.732 601.838 76.732 601.962 77.0309L608.002 91.8018L610.934 98.941L614.396 107.434C614.449 107.575 614.573 107.645 614.732 107.645H623.722C623.969 107.645 624.146 107.382 624.04 107.153L606.377 67.1837C606.307 67.0606 606.183 66.9727 606.042 66.9727Z" fill="white"/>
<path d="M703.26 66.9727H694.535C694.394 66.9727 694.27 67.0606 694.217 67.1837L676.608 107.153C676.502 107.382 676.678 107.645 676.925 107.645H685.686C685.827 107.645 685.951 107.557 686.022 107.434L689.501 98.941L692.486 91.8018L698.527 77.0309C698.65 76.732 699.057 76.732 699.18 77.0309L705.221 91.8018L708.153 98.941L711.615 107.434C711.668 107.575 711.791 107.645 711.95 107.645H720.94C721.188 107.645 721.364 107.382 721.258 107.153L703.596 67.1837C703.525 67.0606 703.402 66.9727 703.26 66.9727Z" fill="white"/>
<path d="M748.056 73.1448L743.835 67.1309C743.764 67.043 743.658 66.9727 743.552 66.9727H733.855C733.573 66.9727 733.396 67.2892 733.573 67.5354L742.316 79.8972C742.457 80.0906 742.74 80.0906 742.881 79.9148L748.074 73.5668C748.127 73.4437 748.144 73.2679 748.056 73.1448Z" fill="white"/>
<path d="M762.768 93.9657L757.664 100.419C757.575 100.542 757.558 100.7 757.646 100.841L762.221 107.506C762.291 107.594 762.397 107.664 762.521 107.664H772.394C772.677 107.664 772.853 107.347 772.677 107.101L763.333 94.0008C763.192 93.7898 762.909 93.7898 762.768 93.9657Z" fill="white"/>
<path d="M758.084 86.6144L771.702 67.5354C771.861 67.3068 771.702 66.9727 771.42 66.9727H762.235C762.111 66.9727 762.005 67.0254 761.935 67.1309L752.98 80.1609C752.98 80.1785 752.962 80.1785 752.962 80.1785L747.293 86.9485L747.275 86.9661L732.809 107.083C732.65 107.311 732.809 107.645 733.092 107.645H742.894C743.018 107.645 743.124 107.593 743.195 107.487L752.609 93.525L752.627 93.5075L758.084 86.6144Z" fill="white"/>
</svg>
