<svg width="14" height="16" viewBox="0 0 14 16" fill="none" xmlns="http://www.w3.org/2000/svg">
<path d="M6.82888 0C9.09175 0 10.9261 1.79084 10.9261 3.99957C10.9261 6.20887 9.09175 7.99971 6.82888 7.99971C4.566 7.99971 2.73166 6.20887 2.73166 3.99957C2.73166 1.79027 4.56658 0 6.82888 0ZM6.82888 0C9.09175 0 10.9261 1.79084 10.9261 3.99957C10.9261 6.20887 9.09175 7.99971 6.82888 7.99971C4.566 7.99971 2.73166 6.20887 2.73166 3.99957C2.73166 1.79027 4.56658 0 6.82888 0ZM5.29249 9.33329H8.70751C11.6307 9.33329 14 11.6459 14 14.4997V14.8326C14 15.9572 11.6301 16 8.70751 16H5.29249C2.36928 16 0 15.9983 0 14.8326V14.4997C0 11.6459 2.36928 9.33329 5.29249 9.33329Z" fill="white"/>
</svg>
