<svg width="20" height="20" viewBox="0 0 20 20" fill="none" xmlns="http://www.w3.org/2000/svg">
<path d="M10.0001 2.5V17.5C7.08341 17.5 4.91612 13.683 4.91612 13.683H2.50008C2.03984 13.683 1.66675 13.3099 1.66675 12.8496V7.08783C1.66675 6.62758 2.03984 6.2545 2.50008 6.2545H4.91612C4.91612 6.2545 7.08341 2.5 10.0001 2.5Z" stroke="white" stroke-width="1.25" stroke-linejoin="round"/>
<path d="M13.3333 6.25C13.5929 6.48188 13.8283 6.74154 14.035 7.0245C14.641 7.85433 14.9999 8.88429 14.9999 10C14.9999 11.106 14.6472 12.1278 14.0507 12.9539C13.8403 13.2452 13.5995 13.5122 13.3333 13.75" stroke="white" stroke-width="1.25" stroke-linecap="round" stroke-linejoin="round"/>
<path d="M14.2649 17.1607C16.7014 15.7064 18.3333 13.0438 18.3333 10C18.3333 7.00356 16.7517 4.37648 14.3779 2.90796" stroke="white" stroke-width="1.25" stroke-linecap="round"/>
</svg>
