<svg width="592" height="571" viewBox="0 0 592 571" fill="none" xmlns="http://www.w3.org/2000/svg">
<circle opacity="0.2" cx="323.5" cy="408.5" r="137.5" stroke="#D9D9D9" stroke-width="50"/>
<path d="M0 171.541C0 167.376 3.37088 164 7.52907 164H251.471C255.629 164 259 167.376 259 171.541V432.459C259 436.624 255.629 440 251.471 440H7.52907C3.37088 440 0 436.624 0 432.459V171.541Z" fill="white"/>
<g filter="url(#filter0_d_6131_5031)">
<path d="M241 57.5165C241 53.3652 244.369 50 248.525 50H534.475C538.631 50 542 53.3652 542 57.5165V384.484C542 388.635 538.631 392 534.475 392H248.525C244.369 392 241 388.635 241 384.484V57.5165Z" fill="white"/>
</g>
<path d="M241 57.5C241 53.3579 244.369 50 248.525 50H534.475C538.631 50 542 53.3579 542 57.5V107H241V57.5Z" fill="url(#paint0_linear_6131_5031)"/>
<g filter="url(#filter1_d_6131_5031)">
<path d="M369 78.7329C369 77.6932 369.228 76.7685 369.685 75.9588C370.141 75.139 370.776 74.5042 371.587 74.0544C372.409 73.5945 373.337 73.3646 374.372 73.3646C375.64 73.3646 376.726 73.6945 377.629 74.3543C378.532 75.0141 379.136 75.9138 379.44 77.0534H376.579C376.366 76.6136 376.061 76.2787 375.666 76.0487C375.28 75.8188 374.839 75.7038 374.342 75.7038C373.54 75.7038 372.891 75.9788 372.394 76.5286C371.897 77.0784 371.648 77.8132 371.648 78.7329C371.648 79.6526 371.897 80.3874 372.394 80.9372C372.891 81.487 373.54 81.762 374.342 81.762C374.839 81.762 375.28 81.647 375.666 81.4171C376.061 81.1871 376.366 80.8522 376.579 80.4124H379.44C379.136 81.552 378.532 82.4517 377.629 83.1115C376.726 83.7613 375.64 84.0862 374.372 84.0862C373.337 84.0862 372.409 83.8613 371.587 83.4114C370.776 82.9516 370.141 82.3168 369.685 81.507C369.228 80.6973 369 79.7726 369 78.7329Z" fill="white"/>
<path d="M386.254 75.5539C387.228 75.5539 388.009 75.8738 388.597 76.5136C389.186 77.1434 389.48 78.0131 389.48 79.1228V84.0112H386.893V79.4677C386.893 78.9078 386.746 78.473 386.452 78.1631C386.157 77.8532 385.762 77.6982 385.265 77.6982C384.767 77.6982 384.372 77.8532 384.077 78.1631C383.783 78.473 383.636 78.9078 383.636 79.4677V84.0112H381.034V72.9147H383.636V76.7685C383.9 76.3986 384.26 76.1037 384.717 75.8838C385.173 75.6639 385.686 75.5539 386.254 75.5539Z" fill="white"/>
<path d="M392.597 74.7741C392.141 74.7741 391.765 74.6442 391.471 74.3843C391.187 74.1143 391.045 73.7844 391.045 73.3946C391.045 72.9947 391.187 72.6648 391.471 72.4049C391.765 72.135 392.141 72 392.597 72C393.044 72 393.409 72.135 393.693 72.4049C393.987 72.6648 394.134 72.9947 394.134 73.3946C394.134 73.7844 393.987 74.1143 393.693 74.3843C393.409 74.6442 393.044 74.7741 392.597 74.7741ZM393.891 75.6439V84.0112H391.289V75.6439H393.891Z" fill="white"/>
<path d="M398.379 76.8285C398.633 76.4386 398.983 76.1237 399.429 75.8838C399.876 75.6439 400.398 75.5239 400.997 75.5239C401.697 75.5239 402.331 75.6988 402.899 76.0487C403.467 76.3986 403.914 76.8985 404.238 77.5483C404.573 78.1981 404.741 78.9528 404.741 79.8126C404.741 80.6723 404.573 81.4321 404.238 82.0918C403.914 82.7416 403.467 83.2465 402.899 83.6064C402.331 83.9563 401.697 84.1312 400.997 84.1312C400.408 84.1312 399.886 84.0112 399.429 83.7713C398.983 83.5314 398.633 83.2215 398.379 82.8416V88H395.777V75.6439H398.379V76.8285ZM402.093 79.8126C402.093 79.1728 401.91 78.6729 401.545 78.313C401.19 77.9431 400.748 77.7582 400.221 77.7582C399.703 77.7582 399.262 77.9431 398.897 78.313C398.542 78.6829 398.364 79.1878 398.364 79.8276C398.364 80.4674 398.542 80.9722 398.897 81.3421C399.262 81.712 399.703 81.8969 400.221 81.8969C400.738 81.8969 401.179 81.712 401.545 81.3421C401.91 80.9622 402.093 80.4524 402.093 79.8126Z" fill="white"/>
<path d="M409.561 84.1312C408.82 84.1312 408.16 84.0062 407.582 83.7563C407.004 83.5064 406.547 83.1665 406.212 82.7366C405.878 82.2968 405.69 81.8069 405.649 81.2671H408.221C408.252 81.557 408.389 81.7919 408.632 81.9719C408.876 82.1518 409.175 82.2418 409.53 82.2418C409.855 82.2418 410.103 82.1818 410.276 82.0619C410.458 81.9319 410.55 81.7669 410.55 81.567C410.55 81.3271 410.423 81.1521 410.169 81.0422C409.916 80.9222 409.505 80.7923 408.937 80.6523C408.328 80.5123 407.821 80.3674 407.415 80.2174C407.009 80.0575 406.659 79.8126 406.365 79.4827C406.07 79.1428 405.923 78.6879 405.923 78.1181C405.923 77.6382 406.055 77.2034 406.319 76.8135C406.593 76.4136 406.989 76.0987 407.506 75.8688C408.034 75.6389 408.658 75.5239 409.378 75.5239C410.443 75.5239 411.28 75.7838 411.889 76.3037C412.508 76.8235 412.863 77.5133 412.954 78.373H410.55C410.509 78.0831 410.377 77.8532 410.154 77.6832C409.941 77.5133 409.657 77.4283 409.302 77.4283C408.997 77.4283 408.764 77.4883 408.602 77.6082C408.439 77.7182 408.358 77.8732 408.358 78.0731C408.358 78.313 408.485 78.493 408.739 78.6129C409.003 78.7329 409.408 78.8529 409.956 78.9728C410.585 79.1328 411.098 79.2927 411.493 79.4527C411.889 79.6026 412.234 79.8525 412.528 80.2024C412.833 80.5423 412.99 81.0022 413 81.582C413 82.0719 412.858 82.5117 412.574 82.9016C412.3 83.2815 411.899 83.5814 411.372 83.8013C410.854 84.0212 410.25 84.1312 409.561 84.1312Z" fill="white"/>
</g>
<path d="M121.651 195.876H119.023L114.628 189.168V195.876H112V185H114.628L119.023 191.739V185H121.651V195.876Z" fill="#1A1A1A"/>
<path d="M130.578 185V187.123H126.183V189.415H129.472V191.476H126.183V195.876H123.555V185H130.578Z" fill="#1A1A1A"/>
<path d="M139.72 185V187.123H136.862V195.876H134.234V187.123H131.375V185H139.72Z" fill="#1A1A1A"/>
<path d="M144.527 196C143.779 196 143.113 195.871 142.529 195.613C141.945 195.354 141.484 195.003 141.146 194.559C140.808 194.105 140.619 193.599 140.578 193.041H143.175C143.205 193.34 143.344 193.583 143.59 193.769C143.835 193.955 144.138 194.048 144.496 194.048C144.824 194.048 145.075 193.986 145.249 193.862C145.434 193.728 145.526 193.557 145.526 193.351C145.526 193.103 145.398 192.922 145.142 192.808C144.886 192.685 144.471 192.55 143.897 192.406C143.282 192.261 142.77 192.111 142.36 191.956C141.95 191.791 141.597 191.538 141.3 191.197C141.003 190.846 140.854 190.376 140.854 189.787C140.854 189.292 140.987 188.842 141.254 188.439C141.53 188.026 141.93 187.701 142.452 187.463C142.985 187.226 143.615 187.107 144.343 187.107C145.418 187.107 146.264 187.376 146.878 187.913C147.503 188.45 147.862 189.162 147.954 190.051H145.526C145.485 189.751 145.352 189.514 145.126 189.338C144.911 189.162 144.624 189.075 144.266 189.075C143.958 189.075 143.723 189.137 143.559 189.261C143.395 189.374 143.313 189.534 143.313 189.741C143.313 189.989 143.441 190.175 143.697 190.299C143.964 190.423 144.373 190.546 144.927 190.67C145.562 190.836 146.079 191.001 146.479 191.166C146.878 191.321 147.227 191.579 147.524 191.941C147.831 192.292 147.99 192.767 148 193.366C148 193.872 147.857 194.327 147.57 194.73C147.293 195.122 146.888 195.432 146.356 195.659C145.833 195.886 145.224 196 144.527 196Z" fill="#1A1A1A"/>
<g filter="url(#filter2_d_6131_5031)">
<path d="M23 232.5C23 228.358 26.3318 225 30.4419 225H79.5581C83.6682 225 87 228.358 87 232.5V292.5C87 296.642 83.6682 300 79.5581 300H30.4419C26.3318 300 23 296.642 23 292.5V232.5Z" fill="white"/>
<path opacity="0.8" d="M27 279.5C27 278.672 27.6664 278 28.4884 278H57.5116C58.3336 278 59 278.672 59 279.5C59 280.328 58.3336 281 57.5116 281H28.4884C27.6664 281 27 280.328 27 279.5Z" fill="#1B1A1B"/>
<path opacity="0.8" d="M27 285.5C27 284.672 27.6752 284 28.5082 284H71.4918C72.3248 284 73 284.672 73 285.5C73 286.328 72.3248 287 71.4918 287H28.5082C27.6752 287 27 286.328 27 285.5Z" fill="#1B1A1B"/>
<path opacity="0.8" d="M27 291.5C27 290.672 27.6752 290 28.5082 290H71.4918C72.3248 290 73 290.672 73 291.5C73 292.328 72.3248 293 71.4918 293H28.5082C27.6752 293 27 292.328 27 291.5Z" fill="#1B1A1B"/>
<path opacity="0.6" d="M23 232.46C23 228.34 26.3318 225 30.4419 225H79.5581C83.6682 225 87 228.34 87 232.46V272H23V232.46Z" fill="#F27D49"/>
<path d="M65 252.392C65 252.319 64.9816 252.247 64.9466 252.184C64.9115 252.12 64.8611 252.067 64.8 252.029L60.3092 249.236C60.2234 249.183 60.1215 249.163 60.0224 249.18C59.9234 249.197 59.8337 249.251 59.77 249.33L57.7908 251.791L57.7642 251.821C57.6861 251.901 57.5802 251.946 57.4698 251.946C57.3593 251.946 57.2532 251.902 57.175 251.822L50.5908 245.124C50.515 245.047 50.413 245.003 50.306 245C50.199 244.998 50.0951 245.037 50.0158 245.11L45.1367 249.645C45.0936 249.685 45.0591 249.734 45.0356 249.788C45.0121 249.842 44.9999 249.901 45 249.96V257H65V252.392Z" fill="white"/>
<path d="M54 244.5C54 244.898 54.158 245.279 54.4393 245.561C54.7206 245.842 55.1022 246 55.5 246C55.8978 246 56.2794 245.842 56.5607 245.561C56.842 245.279 57 244.898 57 244.5C57 244.102 56.842 243.721 56.5607 243.439C56.2794 243.158 55.8978 243 55.5 243C55.1022 243 54.7206 243.158 54.4393 243.439C54.158 243.721 54 244.102 54 244.5Z" fill="white"/>
<path d="M42 239V260H68V239H42ZM66.2667 258.25H43.7333V240.75H66.2667V258.25Z" fill="white"/>
</g>
<g filter="url(#filter3_d_6131_5031)">
<path d="M96 232.5C96 228.358 99.3839 225 103.558 225H153.442C157.616 225 161 228.358 161 232.5V292.5C161 296.642 157.616 300 153.442 300H103.558C99.3839 300 96 296.642 96 292.5V232.5Z" fill="white"/>
<path opacity="0.8" d="M101 279.5C101 278.672 101.666 278 102.488 278H131.512C132.334 278 133 278.672 133 279.5C133 280.328 132.334 281 131.512 281H102.488C101.666 281 101 280.328 101 279.5Z" fill="#1B1A1B"/>
<path opacity="0.8" d="M101 285.5C101 284.672 101.675 284 102.508 284H145.492C146.325 284 147 284.672 147 285.5C147 286.328 146.325 287 145.492 287H102.508C101.675 287 101 286.328 101 285.5Z" fill="#1B1A1B"/>
<path opacity="0.8" d="M101 291.5C101 290.672 101.675 290 102.508 290H145.492C146.325 290 147 290.672 147 291.5C147 292.328 146.325 293 145.492 293H102.508C101.675 293 101 292.328 101 291.5Z" fill="#1B1A1B"/>
<path opacity="0.6" d="M96 232.46C96 228.34 99.3839 225 103.558 225H153.442C157.616 225 161 228.34 161 232.46V272H96V232.46Z" fill="#F27D49"/>
<path d="M138 252.392C138 252.319 137.982 252.247 137.947 252.184C137.912 252.12 137.861 252.067 137.8 252.029L133.309 249.236C133.223 249.183 133.122 249.163 133.022 249.18C132.923 249.197 132.834 249.251 132.77 249.33L130.791 251.791L130.764 251.821C130.686 251.901 130.58 251.946 130.47 251.946C130.359 251.946 130.253 251.902 130.175 251.822L123.591 245.124C123.515 245.047 123.413 245.003 123.306 245C123.199 244.998 123.095 245.037 123.016 245.11L118.137 249.645C118.094 249.685 118.059 249.734 118.036 249.788C118.012 249.842 118 249.901 118 249.96V257H138V252.392Z" fill="white"/>
<path d="M127 244.5C127 244.898 127.158 245.279 127.439 245.561C127.721 245.842 128.102 246 128.5 246C128.898 246 129.279 245.842 129.561 245.561C129.842 245.279 130 244.898 130 244.5C130 244.102 129.842 243.721 129.561 243.439C129.279 243.158 128.898 243 128.5 243C128.102 243 127.721 243.158 127.439 243.439C127.158 243.721 127 244.102 127 244.5Z" fill="white"/>
<path d="M115 239V260H141V239H115ZM139.267 258.25H116.733V240.75H139.267V258.25Z" fill="white"/>
</g>
<g filter="url(#filter4_d_6131_5031)">
<path d="M170 232.5C170 228.358 173.384 225 177.558 225H227.442C231.616 225 235 228.358 235 232.5V292.5C235 296.642 231.616 300 227.442 300H177.558C173.384 300 170 296.642 170 292.5V232.5Z" fill="white"/>
<path opacity="0.8" d="M175 279.5C175 278.672 175.666 278 176.488 278H205.512C206.334 278 207 278.672 207 279.5C207 280.328 206.334 281 205.512 281H176.488C175.666 281 175 280.328 175 279.5Z" fill="#1B1A1B"/>
<path opacity="0.8" d="M175 285.5C175 284.672 175.675 284 176.508 284H219.492C220.325 284 221 284.672 221 285.5C221 286.328 220.325 287 219.492 287H176.508C175.675 287 175 286.328 175 285.5Z" fill="#1B1A1B"/>
<path opacity="0.8" d="M175 291.5C175 290.672 175.675 290 176.508 290H219.492C220.325 290 221 290.672 221 291.5C221 292.328 220.325 293 219.492 293H176.508C175.675 293 175 292.328 175 291.5Z" fill="#1B1A1B"/>
<path opacity="0.6" d="M170 232.46C170 228.34 173.384 225 177.558 225H227.442C231.616 225 235 228.34 235 232.46V272H170V232.46Z" fill="#F27D49"/>
<path d="M212 252.392C212 252.319 211.982 252.247 211.947 252.184C211.912 252.12 211.861 252.067 211.8 252.029L207.309 249.236C207.223 249.183 207.122 249.163 207.022 249.18C206.923 249.197 206.834 249.251 206.77 249.33L204.791 251.791L204.764 251.821C204.686 251.901 204.58 251.946 204.47 251.946C204.359 251.946 204.253 251.902 204.175 251.822L197.591 245.124C197.515 245.047 197.413 245.003 197.306 245C197.199 244.998 197.095 245.037 197.016 245.11L192.137 249.645C192.094 249.685 192.059 249.734 192.036 249.788C192.012 249.842 192 249.901 192 249.96V257H212V252.392Z" fill="white"/>
<path d="M201 244.5C201 244.898 201.158 245.279 201.439 245.561C201.721 245.842 202.102 246 202.5 246C202.898 246 203.279 245.842 203.561 245.561C203.842 245.279 204 244.898 204 244.5C204 244.102 203.842 243.721 203.561 243.439C203.279 243.158 202.898 243 202.5 243C202.102 243 201.721 243.158 201.439 243.439C201.158 243.721 201 244.102 201 244.5Z" fill="white"/>
<path d="M189 239V260H215V239H189ZM213.267 258.25H190.733V240.75H213.267V258.25Z" fill="white"/>
</g>
<g filter="url(#filter5_d_6131_5031)">
<mask id="mask0_6131_5031" style="mask-type:alpha" maskUnits="userSpaceOnUse" x="254" y="115" width="277" height="262">
<path d="M254 122.507C254 118.361 257.37 115 261.527 115H523.473C527.63 115 531 118.361 531 122.507V369.493C531 373.639 527.63 377 523.473 377H261.527C257.37 377 254 373.639 254 369.493V122.507Z" fill="url(#paint1_linear_6131_5031)"/>
</mask>
<g mask="url(#mask0_6131_5031)">
<path d="M307 148.5C307 162.031 296.255 173 283 173C269.745 173 259 162.031 259 148.5C259 134.969 269.745 124 283 124C296.255 124 307 134.969 307 148.5Z" fill="#F7B192"/>
<path fill-rule="evenodd" clip-rule="evenodd" d="M283 169.259C294.731 169.259 304.241 159.965 304.241 148.5C304.241 137.035 294.731 127.741 283 127.741C271.269 127.741 261.759 137.035 261.759 148.5C261.759 159.965 271.269 169.259 283 169.259ZM283 170C295.15 170 305 160.374 305 148.5C305 136.626 295.15 127 283 127C270.85 127 261 136.626 261 148.5C261 160.374 270.85 170 283 170Z" fill="white"/>
<path d="M268 149.766C268 149.113 268.143 148.542 268.43 148.054C268.724 147.565 269.13 147.19 269.645 146.927C270.169 146.664 270.767 146.532 271.438 146.532C272.297 146.532 273.014 146.739 273.587 147.152C274.168 147.565 274.549 148.147 274.729 148.899H272.494C272.306 148.418 271.941 148.177 271.401 148.177C271.016 148.177 270.709 148.316 270.48 148.594C270.251 148.865 270.136 149.255 270.136 149.766C270.136 150.277 270.251 150.671 270.48 150.949C270.709 151.22 271.016 151.355 271.401 151.355C271.941 151.355 272.306 151.115 272.494 150.634H274.729C274.549 151.37 274.168 151.948 273.587 152.369C273.006 152.79 272.289 153 271.438 153C270.767 153 270.169 152.869 269.645 152.606C269.13 152.343 268.724 151.967 268.43 151.479C268.143 150.991 268 150.42 268 149.766Z" fill="white"/>
<path d="M283.563 152.91H281.463L277.951 148.031V152.91H275.852V145H277.951L281.463 149.901V145H283.563V152.91Z" fill="white"/>
<path d="M290.696 145V146.544H287.184V148.211H289.812V149.71H287.184V152.91H285.085V145H290.696Z" fill="white"/>
<path d="M298 145V146.544H295.716V152.91H293.617V146.544H291.333V145H298Z" fill="white"/>
<path d="M307 275C307 288.255 296.255 299 283 299C269.745 299 259 288.255 259 275C259 261.745 269.745 251 283 251C296.255 251 307 261.745 307 275Z" fill="#F7B192"/>
<path fill-rule="evenodd" clip-rule="evenodd" d="M283 296.241C294.731 296.241 304.241 286.731 304.241 275C304.241 263.269 294.731 253.759 283 253.759C271.269 253.759 261.759 263.269 261.759 275C261.759 286.731 271.269 296.241 283 296.241ZM283 297C295.15 297 305 287.15 305 275C305 262.85 295.15 253 283 253C270.85 253 261 262.85 261 275C261 287.15 270.85 297 283 297Z" fill="white"/>
<path d="M268 276.362C268 275.627 268.143 274.985 268.43 274.435C268.724 273.886 269.13 273.463 269.645 273.168C270.169 272.872 270.767 272.724 271.438 272.724C272.297 272.724 273.014 272.956 273.587 273.421C274.168 273.886 274.549 274.541 274.729 275.386H272.494C272.306 274.845 271.941 274.575 271.401 274.575C271.016 274.575 270.709 274.731 270.48 275.044C270.251 275.348 270.136 275.787 270.136 276.362C270.136 276.937 270.251 277.38 270.48 277.693C270.709 277.997 271.016 278.149 271.401 278.149C271.941 278.149 272.306 277.879 272.494 277.338H274.729C274.549 278.166 274.168 278.817 273.587 279.29C273.006 279.763 272.289 280 271.438 280C270.767 280 270.169 279.852 269.645 279.556C269.13 279.261 268.724 278.838 268.43 278.289C268.143 277.739 268 277.097 268 276.362Z" fill="white"/>
<path d="M283.563 279.899H281.463L277.951 274.41V279.899H275.852V271H277.951L281.463 276.514V271H283.563V279.899Z" fill="white"/>
<path d="M290.696 271V272.737H287.184V274.613H289.812V276.299H287.184V279.899H285.085V271H290.696Z" fill="white"/>
<path d="M298 271V272.737H295.716V279.899H293.617V272.737H291.333V271H298Z" fill="white"/>
<path d="M307 212C307 225.255 296.255 236 283 236C269.745 236 259 225.255 259 212C259 198.745 269.745 188 283 188C296.255 188 307 198.745 307 212Z" fill="#F7B192"/>
<path fill-rule="evenodd" clip-rule="evenodd" d="M283 233.241C294.731 233.241 304.241 223.731 304.241 212C304.241 200.269 294.731 190.759 283 190.759C271.269 190.759 261.759 200.269 261.759 212C261.759 223.731 271.269 233.241 283 233.241ZM283 234C295.15 234 305 224.15 305 212C305 199.85 295.15 190 283 190C270.85 190 261 199.85 261 212C261 224.15 270.85 234 283 234Z" fill="white"/>
<path d="M268 212.766C268 212.113 268.143 211.542 268.43 211.054C268.724 210.565 269.13 210.19 269.645 209.927C270.169 209.664 270.767 209.532 271.438 209.532C272.297 209.532 273.014 209.739 273.587 210.152C274.168 210.565 274.549 211.147 274.729 211.899H272.494C272.306 211.418 271.941 211.177 271.401 211.177C271.016 211.177 270.709 211.316 270.48 211.594C270.251 211.865 270.136 212.255 270.136 212.766C270.136 213.277 270.251 213.671 270.48 213.949C270.709 214.22 271.016 214.355 271.401 214.355C271.941 214.355 272.306 214.115 272.494 213.634H274.729C274.549 214.37 274.168 214.948 273.587 215.369C273.006 215.79 272.289 216 271.438 216C270.767 216 270.169 215.869 269.645 215.606C269.13 215.343 268.724 214.967 268.43 214.479C268.143 213.991 268 213.42 268 212.766Z" fill="white"/>
<path d="M283.563 215.91H281.463L277.951 211.031V215.91H275.852V208H277.951L281.463 212.901V208H283.563V215.91Z" fill="white"/>
<path d="M290.696 208V209.544H287.184V211.211H289.812V212.71H287.184V215.91H285.085V208H290.696Z" fill="white"/>
<path d="M298 208V209.544H295.716V215.91H293.617V209.544H291.333V208H298Z" fill="white"/>
<path d="M307 338C307 351.255 296.255 362 283 362C269.745 362 259 351.255 259 338C259 324.745 269.745 314 283 314C296.255 314 307 324.745 307 338Z" fill="#F7B192"/>
<path fill-rule="evenodd" clip-rule="evenodd" d="M283 359.241C294.731 359.241 304.241 349.731 304.241 338C304.241 326.269 294.731 316.759 283 316.759C271.269 316.759 261.759 326.269 261.759 338C261.759 349.731 271.269 359.241 283 359.241ZM283 360C295.15 360 305 350.15 305 338C305 325.85 295.15 316 283 316C270.85 316 261 325.85 261 338C261 350.15 270.85 360 283 360Z" fill="white"/>
<path d="M268 339.362C268 338.627 268.143 337.985 268.43 337.435C268.724 336.886 269.13 336.463 269.645 336.168C270.169 335.872 270.767 335.724 271.438 335.724C272.297 335.724 273.014 335.956 273.587 336.421C274.168 336.886 274.549 337.541 274.729 338.386H272.494C272.306 337.845 271.941 337.575 271.401 337.575C271.016 337.575 270.709 337.731 270.48 338.044C270.251 338.348 270.136 338.787 270.136 339.362C270.136 339.937 270.251 340.38 270.48 340.693C270.709 340.997 271.016 341.149 271.401 341.149C271.941 341.149 272.306 340.879 272.494 340.338H274.729C274.549 341.166 274.168 341.817 273.587 342.29C273.006 342.763 272.289 343 271.438 343C270.767 343 270.169 342.852 269.645 342.556C269.13 342.261 268.724 341.838 268.43 341.289C268.143 340.739 268 340.097 268 339.362Z" fill="white"/>
<path d="M283.563 342.899H281.463L277.951 337.41V342.899H275.852V334H277.951L281.463 339.514V334H283.563V342.899Z" fill="white"/>
<path d="M290.696 334V335.737H287.184V337.613H289.812V339.299H287.184V342.899H285.085V334H290.696Z" fill="white"/>
<path d="M298 334V335.737H295.716V342.899H293.617V335.737H291.333V334H298Z" fill="white"/>
<path d="M367 212C367 225.255 356.255 236 343 236C329.745 236 319 225.255 319 212C319 198.745 329.745 188 343 188C356.255 188 367 198.745 367 212Z" fill="#F7B192"/>
<path fill-rule="evenodd" clip-rule="evenodd" d="M343 233.241C354.731 233.241 364.241 223.731 364.241 212C364.241 200.269 354.731 190.759 343 190.759C331.269 190.759 321.759 200.269 321.759 212C321.759 223.731 331.269 233.241 343 233.241ZM343 234C355.15 234 365 224.15 365 212C365 199.85 355.15 190 343 190C330.85 190 321 199.85 321 212C321 224.15 330.85 234 343 234Z" fill="white"/>
<path d="M329 212.766C329 212.113 329.138 211.542 329.415 211.054C329.7 210.565 330.092 210.19 330.59 209.927C331.097 209.664 331.675 209.532 332.323 209.532C333.154 209.532 333.847 209.739 334.4 210.152C334.962 210.565 335.33 211.147 335.504 211.899H333.344C333.162 211.418 332.81 211.177 332.288 211.177C331.916 211.177 331.619 211.316 331.398 211.594C331.176 211.865 331.065 212.255 331.065 212.766C331.065 213.277 331.176 213.671 331.398 213.949C331.619 214.22 331.916 214.355 332.288 214.355C332.81 214.355 333.162 214.115 333.344 213.634H335.504C335.33 214.37 334.962 214.948 334.4 215.369C333.839 215.79 333.146 216 332.323 216C331.675 216 331.097 215.869 330.59 215.606C330.092 215.343 329.7 214.967 329.415 214.479C329.138 213.991 329 213.42 329 212.766Z" fill="white"/>
<path d="M344.044 215.91H342.014L338.62 211.031V215.91H336.59V208H338.62L342.014 212.901V208H344.044V215.91Z" fill="white"/>
<path d="M350.939 208V209.544H347.545V211.211H350.085V212.71H347.545V215.91H345.515V208H350.939Z" fill="white"/>
<path d="M358 208V209.544H355.792V215.91H353.763V209.544H351.555V208H358Z" fill="white"/>
<path d="M367 338C367 351.255 356.255 362 343 362C329.745 362 319 351.255 319 338C319 324.745 329.745 314 343 314C356.255 314 367 324.745 367 338Z" fill="#F7B192"/>
<path fill-rule="evenodd" clip-rule="evenodd" d="M343 359.241C354.731 359.241 364.241 349.731 364.241 338C364.241 326.269 354.731 316.759 343 316.759C331.269 316.759 321.759 326.269 321.759 338C321.759 349.731 331.269 359.241 343 359.241ZM343 360C355.15 360 365 350.15 365 338C365 325.85 355.15 316 343 316C330.85 316 321 325.85 321 338C321 350.15 330.85 360 343 360Z" fill="white"/>
<path d="M329 339.362C329 338.627 329.138 337.985 329.415 337.435C329.7 336.886 330.092 336.463 330.59 336.168C331.097 335.872 331.675 335.724 332.323 335.724C333.154 335.724 333.847 335.956 334.4 336.421C334.962 336.886 335.33 337.541 335.504 338.386H333.344C333.162 337.845 332.81 337.575 332.288 337.575C331.916 337.575 331.619 337.731 331.398 338.044C331.176 338.348 331.065 338.787 331.065 339.362C331.065 339.937 331.176 340.38 331.398 340.693C331.619 340.997 331.916 341.149 332.288 341.149C332.81 341.149 333.162 340.879 333.344 340.338H335.504C335.33 341.166 334.962 341.817 334.4 342.29C333.839 342.763 333.146 343 332.323 343C331.675 343 331.097 342.852 330.59 342.556C330.092 342.261 329.7 341.838 329.415 341.289C329.138 340.739 329 340.097 329 339.362Z" fill="white"/>
<path d="M344.044 342.899H342.014L338.62 337.41V342.899H336.59V334H338.62L342.014 339.514V334H344.044V342.899Z" fill="white"/>
<path d="M350.939 334V335.737H347.545V337.613H350.085V339.299H347.545V342.899H345.515V334H350.939Z" fill="white"/>
<path d="M358 334V335.737H355.792V342.899H353.763V335.737H351.555V334H358Z" fill="white"/>
<path d="M428 212C428 225.255 417.031 236 403.5 236C389.969 236 379 225.255 379 212C379 198.745 389.969 188 403.5 188C417.031 188 428 198.745 428 212Z" fill="#F7B192"/>
<path fill-rule="evenodd" clip-rule="evenodd" d="M403.5 233.241C414.965 233.241 424.259 223.731 424.259 212C424.259 200.269 414.965 190.759 403.5 190.759C392.035 190.759 382.741 200.269 382.741 212C382.741 223.731 392.035 233.241 403.5 233.241ZM403.5 234C415.374 234 425 224.15 425 212C425 199.85 415.374 190 403.5 190C391.626 190 382 199.85 382 212C382 224.15 391.626 234 403.5 234Z" fill="white"/>
<path d="M389 212.766C389 212.113 389.138 211.542 389.415 211.054C389.7 210.565 390.092 210.19 390.59 209.927C391.097 209.664 391.675 209.532 392.323 209.532C393.154 209.532 393.847 209.739 394.4 210.152C394.962 210.565 395.33 211.147 395.504 211.899H393.344C393.162 211.418 392.81 211.177 392.288 211.177C391.916 211.177 391.619 211.316 391.398 211.594C391.176 211.865 391.065 212.255 391.065 212.766C391.065 213.277 391.176 213.671 391.398 213.949C391.619 214.22 391.916 214.355 392.288 214.355C392.81 214.355 393.162 214.115 393.344 213.634H395.504C395.33 214.37 394.962 214.948 394.4 215.369C393.839 215.79 393.146 216 392.323 216C391.675 216 391.097 215.869 390.59 215.606C390.092 215.343 389.7 214.967 389.415 214.479C389.138 213.991 389 213.42 389 212.766Z" fill="white"/>
<path d="M404.044 215.91H402.014L398.62 211.031V215.91H396.59V208H398.62L402.014 212.901V208H404.044V215.91Z" fill="white"/>
<path d="M410.939 208V209.544H407.545V211.211H410.085V212.71H407.545V215.91H405.515V208H410.939Z" fill="white"/>
<path d="M418 208V209.544H415.792V215.91H413.763V209.544H411.555V208H418Z" fill="white"/>
<path d="M428 338C428 351.255 417.031 362 403.5 362C389.969 362 379 351.255 379 338C379 324.745 389.969 314 403.5 314C417.031 314 428 324.745 428 338Z" fill="#F7B192"/>
<path fill-rule="evenodd" clip-rule="evenodd" d="M403.5 359.241C414.965 359.241 424.259 349.731 424.259 338C424.259 326.269 414.965 316.759 403.5 316.759C392.035 316.759 382.741 326.269 382.741 338C382.741 349.731 392.035 359.241 403.5 359.241ZM403.5 360C415.374 360 425 350.15 425 338C425 325.85 415.374 316 403.5 316C391.626 316 382 325.85 382 338C382 350.15 391.626 360 403.5 360Z" fill="white"/>
<path d="M389 339.362C389 338.627 389.138 337.985 389.415 337.435C389.7 336.886 390.092 336.463 390.59 336.168C391.097 335.872 391.675 335.724 392.323 335.724C393.154 335.724 393.847 335.956 394.4 336.421C394.962 336.886 395.33 337.541 395.504 338.386H393.344C393.162 337.845 392.81 337.575 392.288 337.575C391.916 337.575 391.619 337.731 391.398 338.044C391.176 338.348 391.065 338.787 391.065 339.362C391.065 339.937 391.176 340.38 391.398 340.693C391.619 340.997 391.916 341.149 392.288 341.149C392.81 341.149 393.162 340.879 393.344 340.338H395.504C395.33 341.166 394.962 341.817 394.4 342.29C393.839 342.763 393.146 343 392.323 343C391.675 343 391.097 342.852 390.59 342.556C390.092 342.261 389.7 341.838 389.415 341.289C389.138 340.739 389 340.097 389 339.362Z" fill="white"/>
<path d="M404.044 342.899H402.014L398.62 337.41V342.899H396.59V334H398.62L402.014 339.514V334H404.044V342.899Z" fill="white"/>
<path d="M410.939 334V335.737H407.545V337.613H410.085V339.299H407.545V342.899H405.515V334H410.939Z" fill="white"/>
<path d="M418 334V335.737H415.792V342.899H413.763V335.737H411.555V334H418Z" fill="white"/>
<path d="M488 212C488 225.255 477.255 236 464 236C450.745 236 440 225.255 440 212C440 198.745 450.745 188 464 188C477.255 188 488 198.745 488 212Z" fill="#F7B192"/>
<path fill-rule="evenodd" clip-rule="evenodd" d="M464 233.241C475.731 233.241 485.241 223.731 485.241 212C485.241 200.269 475.731 190.759 464 190.759C452.269 190.759 442.759 200.269 442.759 212C442.759 223.731 452.269 233.241 464 233.241ZM464 234C476.15 234 486 224.15 486 212C486 199.85 476.15 190 464 190C451.85 190 442 199.85 442 212C442 224.15 451.85 234 464 234Z" fill="white"/>
<path d="M449 212.766C449 212.113 449.138 211.542 449.415 211.054C449.7 210.565 450.092 210.19 450.59 209.927C451.097 209.664 451.675 209.532 452.323 209.532C453.154 209.532 453.847 209.739 454.4 210.152C454.962 210.565 455.33 211.147 455.504 211.899H453.344C453.162 211.418 452.81 211.177 452.288 211.177C451.916 211.177 451.619 211.316 451.398 211.594C451.176 211.865 451.065 212.255 451.065 212.766C451.065 213.277 451.176 213.671 451.398 213.949C451.619 214.22 451.916 214.355 452.288 214.355C452.81 214.355 453.162 214.115 453.344 213.634H455.504C455.33 214.37 454.962 214.948 454.4 215.369C453.839 215.79 453.146 216 452.323 216C451.675 216 451.097 215.869 450.59 215.606C450.092 215.343 449.7 214.967 449.415 214.479C449.138 213.991 449 213.42 449 212.766Z" fill="white"/>
<path d="M464.044 215.91H462.014L458.62 211.031V215.91H456.59V208H458.62L462.014 212.901V208H464.044V215.91Z" fill="white"/>
<path d="M470.939 208V209.544H467.545V211.211H470.085V212.71H467.545V215.91H465.515V208H470.939Z" fill="white"/>
<path d="M478 208V209.544H475.792V215.91H473.763V209.544H471.555V208H478Z" fill="white"/>
<path d="M548 212C548 225.255 537.255 236 524 236C510.745 236 500 225.255 500 212C500 198.745 510.745 188 524 188C537.255 188 548 198.745 548 212Z" fill="#F7B192"/>
<path fill-rule="evenodd" clip-rule="evenodd" d="M524 233.241C535.731 233.241 545.241 223.731 545.241 212C545.241 200.269 535.731 190.759 524 190.759C512.269 190.759 502.759 200.269 502.759 212C502.759 223.731 512.269 233.241 524 233.241ZM524 234C536.15 234 546 224.15 546 212C546 199.85 536.15 190 524 190C511.85 190 502 199.85 502 212C502 224.15 511.85 234 524 234Z" fill="white"/>
<path d="M509 212.766C509 212.113 509.143 211.542 509.43 211.054C509.724 210.565 510.13 210.19 510.645 209.927C511.169 209.664 511.767 209.532 512.438 209.532C513.297 209.532 514.014 209.739 514.587 210.152C515.168 210.565 515.549 211.147 515.729 211.899H513.494C513.306 211.418 512.941 211.177 512.401 211.177C512.016 211.177 511.709 211.316 511.48 211.594C511.251 211.865 511.136 212.255 511.136 212.766C511.136 213.277 511.251 213.671 511.48 213.949C511.709 214.22 512.016 214.355 512.401 214.355C512.941 214.355 513.306 214.115 513.494 213.634H515.729C515.549 214.37 515.168 214.948 514.587 215.369C514.006 215.79 513.289 216 512.438 216C511.767 216 511.169 215.869 510.645 215.606C510.13 215.343 509.724 214.967 509.43 214.479C509.143 213.991 509 213.42 509 212.766Z" fill="white"/>
<path d="M524.563 215.91H522.463L518.951 211.031V215.91H516.852V208H518.951L522.463 212.901V208H524.563V215.91Z" fill="white"/>
<path d="M531.696 208V209.544H528.184V211.211H530.812V212.71H528.184V215.91H526.085V208H531.696Z" fill="white"/>
<path d="M539 208V209.544H536.716V215.91H534.617V209.544H532.333V208H539Z" fill="white"/>
<path d="M488 338C488 351.255 477.255 362 464 362C450.745 362 440 351.255 440 338C440 324.745 450.745 314 464 314C477.255 314 488 324.745 488 338Z" fill="#F7B192"/>
<path fill-rule="evenodd" clip-rule="evenodd" d="M464 359.241C475.731 359.241 485.241 349.731 485.241 338C485.241 326.269 475.731 316.759 464 316.759C452.269 316.759 442.759 326.269 442.759 338C442.759 349.731 452.269 359.241 464 359.241ZM464 360C476.15 360 486 350.15 486 338C486 325.85 476.15 316 464 316C451.85 316 442 325.85 442 338C442 350.15 451.85 360 464 360Z" fill="white"/>
<path d="M449 339.362C449 338.627 449.138 337.985 449.415 337.435C449.7 336.886 450.092 336.463 450.59 336.168C451.097 335.872 451.675 335.724 452.323 335.724C453.154 335.724 453.847 335.956 454.4 336.421C454.962 336.886 455.33 337.541 455.504 338.386H453.344C453.162 337.845 452.81 337.575 452.288 337.575C451.916 337.575 451.619 337.731 451.398 338.044C451.176 338.348 451.065 338.787 451.065 339.362C451.065 339.937 451.176 340.38 451.398 340.693C451.619 340.997 451.916 341.149 452.288 341.149C452.81 341.149 453.162 340.879 453.344 340.338H455.504C455.33 341.166 454.962 341.817 454.4 342.29C453.839 342.763 453.146 343 452.323 343C451.675 343 451.097 342.852 450.59 342.556C450.092 342.261 449.7 341.838 449.415 341.289C449.138 340.739 449 340.097 449 339.362Z" fill="white"/>
<path d="M464.044 342.899H462.014L458.62 337.41V342.899H456.59V334H458.62L462.014 339.514V334H464.044V342.899Z" fill="white"/>
<path d="M470.939 334V335.737H467.545V337.613H470.085V339.299H467.545V342.899H465.515V334H470.939Z" fill="white"/>
<path d="M478 334V335.737H475.792V342.899H473.763V335.737H471.555V334H478Z" fill="white"/>
<path d="M548 338C548 351.255 537.255 362 524 362C510.745 362 500 351.255 500 338C500 324.745 510.745 314 524 314C537.255 314 548 324.745 548 338Z" fill="#F7B192"/>
<path fill-rule="evenodd" clip-rule="evenodd" d="M524 359.241C535.731 359.241 545.241 349.731 545.241 338C545.241 326.269 535.731 316.759 524 316.759C512.269 316.759 502.759 326.269 502.759 338C502.759 349.731 512.269 359.241 524 359.241ZM524 360C536.15 360 546 350.15 546 338C546 325.85 536.15 316 524 316C511.85 316 502 325.85 502 338C502 350.15 511.85 360 524 360Z" fill="white"/>
<path d="M509 339.362C509 338.627 509.143 337.985 509.43 337.435C509.724 336.886 510.13 336.463 510.645 336.168C511.169 335.872 511.767 335.724 512.438 335.724C513.297 335.724 514.014 335.956 514.587 336.421C515.168 336.886 515.549 337.541 515.729 338.386H513.494C513.306 337.845 512.941 337.575 512.401 337.575C512.016 337.575 511.709 337.731 511.48 338.044C511.251 338.348 511.136 338.787 511.136 339.362C511.136 339.937 511.251 340.38 511.48 340.693C511.709 340.997 512.016 341.149 512.401 341.149C512.941 341.149 513.306 340.879 513.494 340.338H515.729C515.549 341.166 515.168 341.817 514.587 342.29C514.006 342.763 513.289 343 512.438 343C511.767 343 511.169 342.852 510.645 342.556C510.13 342.261 509.724 341.838 509.43 341.289C509.143 340.739 509 340.097 509 339.362Z" fill="white"/>
<path d="M524.563 342.899H522.463L518.951 337.41V342.899H516.852V334H518.951L522.463 339.514V334H524.563V342.899Z" fill="white"/>
<path d="M531.696 334V335.737H528.184V337.613H530.812V339.299H528.184V342.899H526.085V334H531.696Z" fill="white"/>
<path d="M539 334V335.737H536.716V342.899H534.617V335.737H532.333V334H539Z" fill="white"/>
<path d="M367 148.5C367 162.031 356.255 173 343 173C329.745 173 319 162.031 319 148.5C319 134.969 329.745 124 343 124C356.255 124 367 134.969 367 148.5Z" fill="#F7B192"/>
<path fill-rule="evenodd" clip-rule="evenodd" d="M343 169.259C354.731 169.259 364.241 159.965 364.241 148.5C364.241 137.035 354.731 127.741 343 127.741C331.269 127.741 321.759 137.035 321.759 148.5C321.759 159.965 331.269 169.259 343 169.259ZM343 170C355.15 170 365 160.374 365 148.5C365 136.626 355.15 127 343 127C330.85 127 321 136.626 321 148.5C321 160.374 330.85 170 343 170Z" fill="white"/>
<path d="M329 149.766C329 149.113 329.138 148.542 329.415 148.054C329.7 147.565 330.092 147.19 330.59 146.927C331.097 146.664 331.675 146.532 332.323 146.532C333.154 146.532 333.847 146.739 334.4 147.152C334.962 147.565 335.33 148.147 335.504 148.899H333.344C333.162 148.418 332.81 148.177 332.288 148.177C331.916 148.177 331.619 148.316 331.398 148.594C331.176 148.865 331.065 149.255 331.065 149.766C331.065 150.277 331.176 150.671 331.398 150.949C331.619 151.22 331.916 151.355 332.288 151.355C332.81 151.355 333.162 151.115 333.344 150.634H335.504C335.33 151.37 334.962 151.948 334.4 152.369C333.839 152.79 333.146 153 332.323 153C331.675 153 331.097 152.869 330.59 152.606C330.092 152.343 329.7 151.967 329.415 151.479C329.138 150.991 329 150.42 329 149.766Z" fill="white"/>
<path d="M344.044 152.91H342.014L338.62 148.031V152.91H336.59V145H338.62L342.014 149.901V145H344.044V152.91Z" fill="white"/>
<path d="M350.939 145V146.544H347.545V148.211H350.085V149.71H347.545V152.91H345.515V145H350.939Z" fill="white"/>
<path d="M358 145V146.544H355.792V152.91H353.763V146.544H351.555V145H358Z" fill="white"/>
<path d="M367 275C367 288.255 356.255 299 343 299C329.745 299 319 288.255 319 275C319 261.745 329.745 251 343 251C356.255 251 367 261.745 367 275Z" fill="#F7B192"/>
<path fill-rule="evenodd" clip-rule="evenodd" d="M343 296.241C354.731 296.241 364.241 286.731 364.241 275C364.241 263.269 354.731 253.759 343 253.759C331.269 253.759 321.759 263.269 321.759 275C321.759 286.731 331.269 296.241 343 296.241ZM343 297C355.15 297 365 287.15 365 275C365 262.85 355.15 253 343 253C330.85 253 321 262.85 321 275C321 287.15 330.85 297 343 297Z" fill="white"/>
<path d="M329 276.362C329 275.627 329.138 274.985 329.415 274.435C329.7 273.886 330.092 273.463 330.59 273.168C331.097 272.872 331.675 272.724 332.323 272.724C333.154 272.724 333.847 272.956 334.4 273.421C334.962 273.886 335.33 274.541 335.504 275.386H333.344C333.162 274.845 332.81 274.575 332.288 274.575C331.916 274.575 331.619 274.731 331.398 275.044C331.176 275.348 331.065 275.787 331.065 276.362C331.065 276.937 331.176 277.38 331.398 277.693C331.619 277.997 331.916 278.149 332.288 278.149C332.81 278.149 333.162 277.879 333.344 277.338H335.504C335.33 278.166 334.962 278.817 334.4 279.29C333.839 279.763 333.146 280 332.323 280C331.675 280 331.097 279.852 330.59 279.556C330.092 279.261 329.7 278.838 329.415 278.289C329.138 277.739 329 277.097 329 276.362Z" fill="white"/>
<path d="M344.044 279.899H342.014L338.62 274.41V279.899H336.59V271H338.62L342.014 276.514V271H344.044V279.899Z" fill="white"/>
<path d="M350.939 271V272.737H347.545V274.613H350.085V276.299H347.545V279.899H345.515V271H350.939Z" fill="white"/>
<path d="M358 271V272.737H355.792V279.899H353.763V272.737H351.555V271H358Z" fill="white"/>
<path d="M428 148.5C428 162.031 417.031 173 403.5 173C389.969 173 379 162.031 379 148.5C379 134.969 389.969 124 403.5 124C417.031 124 428 134.969 428 148.5Z" fill="#F7B192"/>
<path fill-rule="evenodd" clip-rule="evenodd" d="M403.5 169.259C414.965 169.259 424.259 159.965 424.259 148.5C424.259 137.035 414.965 127.741 403.5 127.741C392.035 127.741 382.741 137.035 382.741 148.5C382.741 159.965 392.035 169.259 403.5 169.259ZM403.5 170C415.374 170 425 160.374 425 148.5C425 136.626 415.374 127 403.5 127C391.626 127 382 136.626 382 148.5C382 160.374 391.626 170 403.5 170Z" fill="white"/>
<path d="M389 149.766C389 149.113 389.138 148.542 389.415 148.054C389.7 147.565 390.092 147.19 390.59 146.927C391.097 146.664 391.675 146.532 392.323 146.532C393.154 146.532 393.847 146.739 394.4 147.152C394.962 147.565 395.33 148.147 395.504 148.899H393.344C393.162 148.418 392.81 148.177 392.288 148.177C391.916 148.177 391.619 148.316 391.398 148.594C391.176 148.865 391.065 149.255 391.065 149.766C391.065 150.277 391.176 150.671 391.398 150.949C391.619 151.22 391.916 151.355 392.288 151.355C392.81 151.355 393.162 151.115 393.344 150.634H395.504C395.33 151.37 394.962 151.948 394.4 152.369C393.839 152.79 393.146 153 392.323 153C391.675 153 391.097 152.869 390.59 152.606C390.092 152.343 389.7 151.967 389.415 151.479C389.138 150.991 389 150.42 389 149.766Z" fill="white"/>
<path d="M404.044 152.91H402.014L398.62 148.031V152.91H396.59V145H398.62L402.014 149.901V145H404.044V152.91Z" fill="white"/>
<path d="M410.939 145V146.544H407.545V148.211H410.085V149.71H407.545V152.91H405.515V145H410.939Z" fill="white"/>
<path d="M418 145V146.544H415.792V152.91H413.763V146.544H411.555V145H418Z" fill="white"/>
<path d="M428 275C428 288.255 417.031 299 403.5 299C389.969 299 379 288.255 379 275C379 261.745 389.969 251 403.5 251C417.031 251 428 261.745 428 275Z" fill="#F7B192"/>
<path fill-rule="evenodd" clip-rule="evenodd" d="M403.5 296.241C414.965 296.241 424.259 286.731 424.259 275C424.259 263.269 414.965 253.759 403.5 253.759C392.035 253.759 382.741 263.269 382.741 275C382.741 286.731 392.035 296.241 403.5 296.241ZM403.5 297C415.374 297 425 287.15 425 275C425 262.85 415.374 253 403.5 253C391.626 253 382 262.85 382 275C382 287.15 391.626 297 403.5 297Z" fill="white"/>
<path d="M389 276.362C389 275.627 389.138 274.985 389.415 274.435C389.7 273.886 390.092 273.463 390.59 273.168C391.097 272.872 391.675 272.724 392.323 272.724C393.154 272.724 393.847 272.956 394.4 273.421C394.962 273.886 395.33 274.541 395.504 275.386H393.344C393.162 274.845 392.81 274.575 392.288 274.575C391.916 274.575 391.619 274.731 391.398 275.044C391.176 275.348 391.065 275.787 391.065 276.362C391.065 276.937 391.176 277.38 391.398 277.693C391.619 277.997 391.916 278.149 392.288 278.149C392.81 278.149 393.162 277.879 393.344 277.338H395.504C395.33 278.166 394.962 278.817 394.4 279.29C393.839 279.763 393.146 280 392.323 280C391.675 280 391.097 279.852 390.59 279.556C390.092 279.261 389.7 278.838 389.415 278.289C389.138 277.739 389 277.097 389 276.362Z" fill="white"/>
<path d="M404.044 279.899H402.014L398.62 274.41V279.899H396.59V271H398.62L402.014 276.514V271H404.044V279.899Z" fill="white"/>
<path d="M410.939 271V272.737H407.545V274.613H410.085V276.299H407.545V279.899H405.515V271H410.939Z" fill="white"/>
<path d="M418 271V272.737H415.792V279.899H413.763V272.737H411.555V271H418Z" fill="white"/>
<path d="M488 148.5C488 162.031 477.255 173 464 173C450.745 173 440 162.031 440 148.5C440 134.969 450.745 124 464 124C477.255 124 488 134.969 488 148.5Z" fill="#F7B192"/>
<path fill-rule="evenodd" clip-rule="evenodd" d="M464 169.259C475.731 169.259 485.241 159.965 485.241 148.5C485.241 137.035 475.731 127.741 464 127.741C452.269 127.741 442.759 137.035 442.759 148.5C442.759 159.965 452.269 169.259 464 169.259ZM464 170C476.15 170 486 160.374 486 148.5C486 136.626 476.15 127 464 127C451.85 127 442 136.626 442 148.5C442 160.374 451.85 170 464 170Z" fill="white"/>
<path d="M449 149.766C449 149.113 449.138 148.542 449.415 148.054C449.7 147.565 450.092 147.19 450.59 146.927C451.097 146.664 451.675 146.532 452.323 146.532C453.154 146.532 453.847 146.739 454.4 147.152C454.962 147.565 455.33 148.147 455.504 148.899H453.344C453.162 148.418 452.81 148.177 452.288 148.177C451.916 148.177 451.619 148.316 451.398 148.594C451.176 148.865 451.065 149.255 451.065 149.766C451.065 150.277 451.176 150.671 451.398 150.949C451.619 151.22 451.916 151.355 452.288 151.355C452.81 151.355 453.162 151.115 453.344 150.634H455.504C455.33 151.37 454.962 151.948 454.4 152.369C453.839 152.79 453.146 153 452.323 153C451.675 153 451.097 152.869 450.59 152.606C450.092 152.343 449.7 151.967 449.415 151.479C449.138 150.991 449 150.42 449 149.766Z" fill="white"/>
<path d="M464.044 152.91H462.014L458.62 148.031V152.91H456.59V145H458.62L462.014 149.901V145H464.044V152.91Z" fill="white"/>
<path d="M470.939 145V146.544H467.545V148.211H470.085V149.71H467.545V152.91H465.515V145H470.939Z" fill="white"/>
<path d="M478 145V146.544H475.792V152.91H473.763V146.544H471.555V145H478Z" fill="white"/>
<path d="M548 148.5C548 162.031 537.255 173 524 173C510.745 173 500 162.031 500 148.5C500 134.969 510.745 124 524 124C537.255 124 548 134.969 548 148.5Z" fill="#F7B192"/>
<path fill-rule="evenodd" clip-rule="evenodd" d="M524 169.259C535.731 169.259 545.241 159.965 545.241 148.5C545.241 137.035 535.731 127.741 524 127.741C512.269 127.741 502.759 137.035 502.759 148.5C502.759 159.965 512.269 169.259 524 169.259ZM524 170C536.15 170 546 160.374 546 148.5C546 136.626 536.15 127 524 127C511.85 127 502 136.626 502 148.5C502 160.374 511.85 170 524 170Z" fill="white"/>
<path d="M509 149.766C509 149.113 509.143 148.542 509.43 148.054C509.724 147.565 510.13 147.19 510.645 146.927C511.169 146.664 511.767 146.532 512.438 146.532C513.297 146.532 514.014 146.739 514.587 147.152C515.168 147.565 515.549 148.147 515.729 148.899H513.494C513.306 148.418 512.941 148.177 512.401 148.177C512.016 148.177 511.709 148.316 511.48 148.594C511.251 148.865 511.136 149.255 511.136 149.766C511.136 150.277 511.251 150.671 511.48 150.949C511.709 151.22 512.016 151.355 512.401 151.355C512.941 151.355 513.306 151.115 513.494 150.634H515.729C515.549 151.37 515.168 151.948 514.587 152.369C514.006 152.79 513.289 153 512.438 153C511.767 153 511.169 152.869 510.645 152.606C510.13 152.343 509.724 151.967 509.43 151.479C509.143 150.991 509 150.42 509 149.766Z" fill="white"/>
<path d="M524.563 152.91H522.463L518.951 148.031V152.91H516.852V145H518.951L522.463 149.901V145H524.563V152.91Z" fill="white"/>
<path d="M531.696 145V146.544H528.184V148.211H530.812V149.71H528.184V152.91H526.085V145H531.696Z" fill="white"/>
<path d="M539 145V146.544H536.716V152.91H534.617V146.544H532.333V145H539Z" fill="white"/>
<path d="M488 275C488 288.255 477.255 299 464 299C450.745 299 440 288.255 440 275C440 261.745 450.745 251 464 251C477.255 251 488 261.745 488 275Z" fill="#F7B192"/>
<path fill-rule="evenodd" clip-rule="evenodd" d="M464 296.241C475.731 296.241 485.241 286.731 485.241 275C485.241 263.269 475.731 253.759 464 253.759C452.269 253.759 442.759 263.269 442.759 275C442.759 286.731 452.269 296.241 464 296.241ZM464 297C476.15 297 486 287.15 486 275C486 262.85 476.15 253 464 253C451.85 253 442 262.85 442 275C442 287.15 451.85 297 464 297Z" fill="white"/>
<path d="M449 276.362C449 275.627 449.138 274.985 449.415 274.435C449.7 273.886 450.092 273.463 450.59 273.168C451.097 272.872 451.675 272.724 452.323 272.724C453.154 272.724 453.847 272.956 454.4 273.421C454.962 273.886 455.33 274.541 455.504 275.386H453.344C453.162 274.845 452.81 274.575 452.288 274.575C451.916 274.575 451.619 274.731 451.398 275.044C451.176 275.348 451.065 275.787 451.065 276.362C451.065 276.937 451.176 277.38 451.398 277.693C451.619 277.997 451.916 278.149 452.288 278.149C452.81 278.149 453.162 277.879 453.344 277.338H455.504C455.33 278.166 454.962 278.817 454.4 279.29C453.839 279.763 453.146 280 452.323 280C451.675 280 451.097 279.852 450.59 279.556C450.092 279.261 449.7 278.838 449.415 278.289C449.138 277.739 449 277.097 449 276.362Z" fill="white"/>
<path d="M464.044 279.899H462.014L458.62 274.41V279.899H456.59V271H458.62L462.014 276.514V271H464.044V279.899Z" fill="white"/>
<path d="M470.939 271V272.737H467.545V274.613H470.085V276.299H467.545V279.899H465.515V271H470.939Z" fill="white"/>
<path d="M478 271V272.737H475.792V279.899H473.763V272.737H471.555V271H478Z" fill="white"/>
<path d="M548 275C548 288.255 537.255 299 524 299C510.745 299 500 288.255 500 275C500 261.745 510.745 251 524 251C537.255 251 548 261.745 548 275Z" fill="#F7B192"/>
<path fill-rule="evenodd" clip-rule="evenodd" d="M524 296.241C535.731 296.241 545.241 286.731 545.241 275C545.241 263.269 535.731 253.759 524 253.759C512.269 253.759 502.759 263.269 502.759 275C502.759 286.731 512.269 296.241 524 296.241ZM524 297C536.15 297 546 287.15 546 275C546 262.85 536.15 253 524 253C511.85 253 502 262.85 502 275C502 287.15 511.85 297 524 297Z" fill="white"/>
<path d="M509 276.362C509 275.627 509.143 274.985 509.43 274.435C509.724 273.886 510.13 273.463 510.645 273.168C511.169 272.872 511.767 272.724 512.438 272.724C513.297 272.724 514.014 272.956 514.587 273.421C515.168 273.886 515.549 274.541 515.729 275.386H513.494C513.306 274.845 512.941 274.575 512.401 274.575C512.016 274.575 511.709 274.731 511.48 275.044C511.251 275.348 511.136 275.787 511.136 276.362C511.136 276.937 511.251 277.38 511.48 277.693C511.709 277.997 512.016 278.149 512.401 278.149C512.941 278.149 513.306 277.879 513.494 277.338H515.729C515.549 278.166 515.168 278.817 514.587 279.29C514.006 279.763 513.289 280 512.438 280C511.767 280 511.169 279.852 510.645 279.556C510.13 279.261 509.724 278.838 509.43 278.289C509.143 277.739 509 277.097 509 276.362Z" fill="white"/>
<path d="M524.563 279.899H522.463L518.951 274.41V279.899H516.852V271H518.951L522.463 276.514V271H524.563V279.899Z" fill="white"/>
<path d="M531.696 271V272.737H528.184V274.613H530.812V276.299H528.184V279.899H526.085V271H531.696Z" fill="white"/>
<path d="M539 271V272.737H536.716V279.899H534.617V272.737H532.333V271H539Z" fill="white"/>
</g>
</g>
<g filter="url(#filter6_d_6131_5031)">
<path d="M96 337.5C96 333.358 99.3839 330 103.558 330H153.442C157.616 330 161 333.358 161 337.5V397.5C161 401.642 157.616 405 153.442 405H103.558C99.3839 405 96 401.642 96 397.5V337.5Z" fill="white"/>
<path opacity="0.8" d="M101 384.5C101 383.672 101.666 383 102.488 383H131.512C132.334 383 133 383.672 133 384.5C133 385.328 132.334 386 131.512 386H102.488C101.666 386 101 385.328 101 384.5Z" fill="#1B1A1B"/>
<path opacity="0.8" d="M101 390.5C101 389.672 101.675 389 102.508 389H145.492C146.325 389 147 389.672 147 390.5C147 391.328 146.325 392 145.492 392H102.508C101.675 392 101 391.328 101 390.5Z" fill="#1B1A1B"/>
<path opacity="0.8" d="M101 396.5C101 395.672 101.675 395 102.508 395H145.492C146.325 395 147 395.672 147 396.5C147 397.328 146.325 398 145.492 398H102.508C101.675 398 101 397.328 101 396.5Z" fill="#1B1A1B"/>
<path opacity="0.6" d="M96 337.46C96 333.34 99.3839 330 103.558 330H153.442C157.616 330 161 333.34 161 337.46V377H96V337.46Z" fill="#F27D49"/>
<path d="M138 357.392C138 357.319 137.982 357.247 137.947 357.184C137.912 357.12 137.861 357.067 137.8 357.029L133.309 354.236C133.223 354.183 133.122 354.163 133.022 354.18C132.923 354.197 132.834 354.251 132.77 354.33L130.791 356.791L130.764 356.821C130.686 356.901 130.58 356.946 130.47 356.946C130.359 356.946 130.253 356.902 130.175 356.822L123.591 350.124C123.515 350.047 123.413 350.003 123.306 350C123.199 349.998 123.095 350.037 123.016 350.11L118.137 354.645C118.094 354.685 118.059 354.734 118.036 354.788C118.012 354.842 118 354.901 118 354.96V362H138V357.392Z" fill="white"/>
<path d="M127 349.5C127 349.898 127.158 350.279 127.439 350.561C127.721 350.842 128.102 351 128.5 351C128.898 351 129.279 350.842 129.561 350.561C129.842 350.279 130 349.898 130 349.5C130 349.102 129.842 348.721 129.561 348.439C129.279 348.158 128.898 348 128.5 348C128.102 348 127.721 348.158 127.439 348.439C127.158 348.721 127 349.102 127 349.5Z" fill="white"/>
<path d="M115 344V365H141V344H115ZM139.267 363.25H116.733V345.75H139.267V363.25Z" fill="white"/>
</g>
<path fill-rule="evenodd" clip-rule="evenodd" d="M375 390.894L373.115 377L359.163 382.339L366.298 386.193C348.155 416.9 327.818 436.401 306.823 447.721C285.327 459.31 263.065 462.364 241.616 460.006C198.663 455.284 158.991 428.857 135.589 405.864L134 407.468C157.609 430.664 197.728 457.448 241.368 462.245C263.214 464.647 285.949 461.538 307.901 449.702C329.345 438.14 349.972 418.29 368.288 387.268L375 390.894Z" fill="#C5ABE0"/>
<defs>
<filter id="filter0_d_6131_5031" x="191" y="0" width="401" height="442" filterUnits="userSpaceOnUse" color-interpolation-filters="sRGB">
<feFlood flood-opacity="0" result="BackgroundImageFix"/>
<feColorMatrix in="SourceAlpha" type="matrix" values="0 0 0 0 0 0 0 0 0 0 0 0 0 0 0 0 0 0 127 0" result="hardAlpha"/>
<feOffset/>
<feGaussianBlur stdDeviation="25"/>
<feComposite in2="hardAlpha" operator="out"/>
<feColorMatrix type="matrix" values="0 0 0 0 0 0 0 0 0 0 0 0 0 0 0 0 0 0 0.25 0"/>
<feBlend mode="normal" in2="BackgroundImageFix" result="effect1_dropShadow_6131_5031"/>
<feBlend mode="normal" in="SourceGraphic" in2="effect1_dropShadow_6131_5031" result="shape"/>
</filter>
<filter id="filter1_d_6131_5031" x="359" y="66" width="64" height="36" filterUnits="userSpaceOnUse" color-interpolation-filters="sRGB">
<feFlood flood-opacity="0" result="BackgroundImageFix"/>
<feColorMatrix in="SourceAlpha" type="matrix" values="0 0 0 0 0 0 0 0 0 0 0 0 0 0 0 0 0 0 127 0" result="hardAlpha"/>
<feOffset dy="4"/>
<feGaussianBlur stdDeviation="5"/>
<feComposite in2="hardAlpha" operator="out"/>
<feColorMatrix type="matrix" values="0 0 0 0 0 0 0 0 0 0 0 0 0 0 0 0 0 0 0.25 0"/>
<feBlend mode="normal" in2="BackgroundImageFix" result="effect1_dropShadow_6131_5031"/>
<feBlend mode="normal" in="SourceGraphic" in2="effect1_dropShadow_6131_5031" result="shape"/>
</filter>
<filter id="filter2_d_6131_5031" x="13" y="215" width="84" height="95" filterUnits="userSpaceOnUse" color-interpolation-filters="sRGB">
<feFlood flood-opacity="0" result="BackgroundImageFix"/>
<feColorMatrix in="SourceAlpha" type="matrix" values="0 0 0 0 0 0 0 0 0 0 0 0 0 0 0 0 0 0 127 0" result="hardAlpha"/>
<feOffset/>
<feGaussianBlur stdDeviation="5"/>
<feComposite in2="hardAlpha" operator="out"/>
<feColorMatrix type="matrix" values="0 0 0 0 0 0 0 0 0 0 0 0 0 0 0 0 0 0 0.25 0"/>
<feBlend mode="normal" in2="BackgroundImageFix" result="effect1_dropShadow_6131_5031"/>
<feBlend mode="normal" in="SourceGraphic" in2="effect1_dropShadow_6131_5031" result="shape"/>
</filter>
<filter id="filter3_d_6131_5031" x="86" y="215" width="85" height="95" filterUnits="userSpaceOnUse" color-interpolation-filters="sRGB">
<feFlood flood-opacity="0" result="BackgroundImageFix"/>
<feColorMatrix in="SourceAlpha" type="matrix" values="0 0 0 0 0 0 0 0 0 0 0 0 0 0 0 0 0 0 127 0" result="hardAlpha"/>
<feOffset/>
<feGaussianBlur stdDeviation="5"/>
<feComposite in2="hardAlpha" operator="out"/>
<feColorMatrix type="matrix" values="0 0 0 0 0 0 0 0 0 0 0 0 0 0 0 0 0 0 0.25 0"/>
<feBlend mode="normal" in2="BackgroundImageFix" result="effect1_dropShadow_6131_5031"/>
<feBlend mode="normal" in="SourceGraphic" in2="effect1_dropShadow_6131_5031" result="shape"/>
</filter>
<filter id="filter4_d_6131_5031" x="160" y="215" width="85" height="95" filterUnits="userSpaceOnUse" color-interpolation-filters="sRGB">
<feFlood flood-opacity="0" result="BackgroundImageFix"/>
<feColorMatrix in="SourceAlpha" type="matrix" values="0 0 0 0 0 0 0 0 0 0 0 0 0 0 0 0 0 0 127 0" result="hardAlpha"/>
<feOffset/>
<feGaussianBlur stdDeviation="5"/>
<feComposite in2="hardAlpha" operator="out"/>
<feColorMatrix type="matrix" values="0 0 0 0 0 0 0 0 0 0 0 0 0 0 0 0 0 0 0.25 0"/>
<feBlend mode="normal" in2="BackgroundImageFix" result="effect1_dropShadow_6131_5031"/>
<feBlend mode="normal" in="SourceGraphic" in2="effect1_dropShadow_6131_5031" result="shape"/>
</filter>
<filter id="filter5_d_6131_5031" x="249" y="118" width="292" height="258" filterUnits="userSpaceOnUse" color-interpolation-filters="sRGB">
<feFlood flood-opacity="0" result="BackgroundImageFix"/>
<feColorMatrix in="SourceAlpha" type="matrix" values="0 0 0 0 0 0 0 0 0 0 0 0 0 0 0 0 0 0 127 0" result="hardAlpha"/>
<feOffset dy="4"/>
<feGaussianBlur stdDeviation="5"/>
<feComposite in2="hardAlpha" operator="out"/>
<feColorMatrix type="matrix" values="0 0 0 0 0 0 0 0 0 0 0 0 0 0 0 0 0 0 0.16 0"/>
<feBlend mode="normal" in2="BackgroundImageFix" result="effect1_dropShadow_6131_5031"/>
<feBlend mode="normal" in="SourceGraphic" in2="effect1_dropShadow_6131_5031" result="shape"/>
</filter>
<filter id="filter6_d_6131_5031" x="86" y="320" width="85" height="95" filterUnits="userSpaceOnUse" color-interpolation-filters="sRGB">
<feFlood flood-opacity="0" result="BackgroundImageFix"/>
<feColorMatrix in="SourceAlpha" type="matrix" values="0 0 0 0 0 0 0 0 0 0 0 0 0 0 0 0 0 0 127 0" result="hardAlpha"/>
<feOffset/>
<feGaussianBlur stdDeviation="5"/>
<feComposite in2="hardAlpha" operator="out"/>
<feColorMatrix type="matrix" values="0 0 0 0 0 0 0 0 0 0 0 0 0 0 0 0 0 0 0.25 0"/>
<feBlend mode="normal" in2="BackgroundImageFix" result="effect1_dropShadow_6131_5031"/>
<feBlend mode="normal" in="SourceGraphic" in2="effect1_dropShadow_6131_5031" result="shape"/>
</filter>
<linearGradient id="paint0_linear_6131_5031" x1="248.525" y1="78.5" x2="536.732" y2="81.1426" gradientUnits="userSpaceOnUse">
<stop stop-color="#C5ABE0"/>
<stop offset="1" stop-color="#EA9768"/>
</linearGradient>
<linearGradient id="paint1_linear_6131_5031" x1="254" y1="224.98" x2="525.731" y2="224.225" gradientUnits="userSpaceOnUse">
<stop stop-color="white"/>
<stop offset="0.729167" stop-color="white"/>
<stop offset="1" stop-color="white" stop-opacity="0"/>
</linearGradient>
</defs>
</svg>
