<svg width="650" height="577" viewBox="0 0 650 577" fill="none" xmlns="http://www.w3.org/2000/svg">
<circle opacity="0.2" cx="223.5" cy="414.5" r="137.5" stroke="#D9D9D9" stroke-width="50"/>
<circle opacity="0.2" cx="473" cy="117" r="98" stroke="#D9D9D9" stroke-width="38"/>
<g filter="url(#filter0_d_5869_5846)">
<path d="M157 71.5165C157 67.3652 160.526 64 164.875 64H464.125C468.474 64 472 67.3652 472 71.5165V398.484C472 402.635 468.474 406 464.125 406H164.875C160.526 406 157 402.635 157 398.484V71.5165Z" fill="white"/>
</g>
<path d="M157 71.5C157 67.3579 160.526 64 164.875 64H464.125C468.474 64 472 67.3579 472 71.5V121H157V71.5Z" fill="url(#paint0_linear_5869_5846)"/>
<g filter="url(#filter1_d_5869_5846)">
<path d="M292 92.7329C292 91.6932 292.228 90.7685 292.685 89.9588C293.141 89.139 293.776 88.5042 294.587 88.0544C295.409 87.5945 296.337 87.3646 297.372 87.3646C298.64 87.3646 299.726 87.6945 300.629 88.3543C301.532 89.0141 302.136 89.9138 302.44 91.0534H299.579C299.366 90.6136 299.061 90.2787 298.666 90.0487C298.28 89.8188 297.839 89.7038 297.342 89.7038C296.54 89.7038 295.891 89.9788 295.394 90.5286C294.897 91.0784 294.648 91.8132 294.648 92.7329C294.648 93.6526 294.897 94.3874 295.394 94.9372C295.891 95.487 296.54 95.762 297.342 95.762C297.839 95.762 298.28 95.647 298.666 95.4171C299.061 95.1871 299.366 94.8522 299.579 94.4124H302.44C302.136 95.552 301.532 96.4517 300.629 97.1115C299.726 97.7613 298.64 98.0862 297.372 98.0862C296.337 98.0862 295.409 97.8613 294.587 97.4114C293.776 96.9516 293.141 96.3168 292.685 95.507C292.228 94.6973 292 93.7726 292 92.7329Z" fill="white"/>
<path d="M309.254 89.5539C310.228 89.5539 311.009 89.8738 311.597 90.5136C312.186 91.1434 312.48 92.0131 312.48 93.1228V98.0112H309.893V93.4677C309.893 92.9078 309.746 92.473 309.452 92.1631C309.157 91.8532 308.762 91.6982 308.265 91.6982C307.767 91.6982 307.372 91.8532 307.077 92.1631C306.783 92.473 306.636 92.9078 306.636 93.4677V98.0112H304.034V86.9147H306.636V90.7685C306.9 90.3986 307.26 90.1037 307.717 89.8838C308.173 89.6639 308.686 89.5539 309.254 89.5539Z" fill="white"/>
<path d="M315.597 88.7741C315.141 88.7741 314.765 88.6442 314.471 88.3843C314.187 88.1143 314.045 87.7844 314.045 87.3946C314.045 86.9947 314.187 86.6648 314.471 86.4049C314.765 86.135 315.141 86 315.597 86C316.044 86 316.409 86.135 316.693 86.4049C316.987 86.6648 317.134 86.9947 317.134 87.3946C317.134 87.7844 316.987 88.1143 316.693 88.3843C316.409 88.6442 316.044 88.7741 315.597 88.7741ZM316.891 89.6439V98.0112H314.289V89.6439H316.891Z" fill="white"/>
<path d="M321.379 90.8285C321.633 90.4386 321.983 90.1237 322.429 89.8838C322.876 89.6439 323.398 89.5239 323.997 89.5239C324.697 89.5239 325.331 89.6988 325.899 90.0487C326.467 90.3986 326.914 90.8985 327.238 91.5483C327.573 92.1981 327.741 92.9528 327.741 93.8126C327.741 94.6723 327.573 95.4321 327.238 96.0918C326.914 96.7416 326.467 97.2465 325.899 97.6064C325.331 97.9563 324.697 98.1312 323.997 98.1312C323.408 98.1312 322.886 98.0112 322.429 97.7713C321.983 97.5314 321.633 97.2215 321.379 96.8416V102H318.777V89.6439H321.379V90.8285ZM325.093 93.8126C325.093 93.1728 324.91 92.6729 324.545 92.313C324.19 91.9431 323.748 91.7582 323.221 91.7582C322.703 91.7582 322.262 91.9431 321.897 92.313C321.542 92.6829 321.364 93.1878 321.364 93.8276C321.364 94.4674 321.542 94.9722 321.897 95.3421C322.262 95.712 322.703 95.8969 323.221 95.8969C323.738 95.8969 324.179 95.712 324.545 95.3421C324.91 94.9622 325.093 94.4524 325.093 93.8126Z" fill="white"/>
<path d="M332.561 98.1312C331.82 98.1312 331.16 98.0062 330.582 97.7563C330.004 97.5064 329.547 97.1665 329.212 96.7366C328.878 96.2968 328.69 95.8069 328.649 95.2671H331.221C331.252 95.557 331.389 95.7919 331.632 95.9719C331.876 96.1518 332.175 96.2418 332.53 96.2418C332.855 96.2418 333.103 96.1818 333.276 96.0619C333.458 95.9319 333.55 95.7669 333.55 95.567C333.55 95.3271 333.423 95.1521 333.169 95.0422C332.916 94.9222 332.505 94.7923 331.937 94.6523C331.328 94.5123 330.821 94.3674 330.415 94.2174C330.009 94.0575 329.659 93.8126 329.365 93.4827C329.07 93.1428 328.923 92.6879 328.923 92.1181C328.923 91.6382 329.055 91.2034 329.319 90.8135C329.593 90.4136 329.989 90.0987 330.506 89.8688C331.034 89.6389 331.658 89.5239 332.378 89.5239C333.443 89.5239 334.28 89.7838 334.889 90.3037C335.508 90.8235 335.863 91.5133 335.954 92.373H333.55C333.509 92.0831 333.377 91.8532 333.154 91.6832C332.941 91.5133 332.657 91.4283 332.302 91.4283C331.997 91.4283 331.764 91.4883 331.602 91.6082C331.439 91.7182 331.358 91.8732 331.358 92.0731C331.358 92.313 331.485 92.493 331.739 92.6129C332.003 92.7329 332.408 92.8529 332.956 92.9728C333.585 93.1328 334.098 93.2927 334.493 93.4527C334.889 93.6026 335.234 93.8525 335.528 94.2024C335.833 94.5423 335.99 95.0022 336 95.582C336 96.0719 335.858 96.5117 335.574 96.9016C335.3 97.2815 334.899 97.5814 334.372 97.8013C333.854 98.0212 333.25 98.1312 332.561 98.1312Z" fill="white"/>
</g>
<g filter="url(#filter2_d_5869_5846)">
<path d="M523 175.683C523 168.126 529.079 162 536.577 162H626.183C633.681 162 639.76 168.126 639.76 175.683V285.145C639.76 292.702 633.681 298.828 626.183 298.828H536.577C529.079 298.828 523 292.702 523 285.145V175.683Z" fill="white"/>
<path opacity="0.8" d="M530.297 261.428C530.297 259.917 531.513 258.692 533.013 258.692H585.962C587.462 258.692 588.677 259.917 588.677 261.428C588.677 262.94 587.462 264.165 585.962 264.165H533.013C531.513 264.165 530.297 262.94 530.297 261.428Z" fill="#1B1A1B"/>
<path opacity="0.8" d="M530.297 272.374C530.297 270.863 531.529 269.638 533.049 269.638H611.467C612.987 269.638 614.219 270.863 614.219 272.374C614.219 273.886 612.987 275.111 611.467 275.111H533.049C531.529 275.111 530.297 273.886 530.297 272.374Z" fill="#1B1A1B"/>
<path opacity="0.8" d="M530.297 283.321C530.297 281.809 531.529 280.584 533.049 280.584H611.467C612.987 280.584 614.219 281.809 614.219 283.321C614.219 284.832 612.987 286.057 611.467 286.057H533.049C531.529 286.057 530.297 284.832 530.297 283.321Z" fill="#1B1A1B"/>
<path opacity="0.6" d="M523 175.61C523 168.094 529.079 162 536.577 162H626.183C633.681 162 639.76 168.094 639.76 175.61V247.746H523V175.61Z" fill="#F27D49"/>
<path d="M599.624 211.973C599.624 211.84 599.59 211.709 599.526 211.593C599.462 211.477 599.37 211.38 599.259 211.311L591.066 206.216C590.909 206.119 590.724 206.082 590.543 206.114C590.362 206.145 590.198 206.242 590.082 206.387L586.471 210.876L586.423 210.932C586.28 211.078 586.087 211.16 585.886 211.16C585.684 211.16 585.491 211.079 585.348 210.934L573.336 198.714C573.198 198.573 573.012 198.492 572.816 198.488C572.621 198.483 572.432 198.555 572.287 198.689L563.386 206.962C563.307 207.035 563.244 207.123 563.201 207.222C563.158 207.321 563.136 207.428 563.136 207.536V220.38H599.624V211.973Z" fill="white"/>
<path d="M579.555 197.575C579.555 198.301 579.843 198.997 580.357 199.51C580.87 200.023 581.566 200.312 582.292 200.312C583.018 200.312 583.714 200.023 584.227 199.51C584.74 198.997 585.028 198.301 585.028 197.575C585.028 196.849 584.74 196.153 584.227 195.64C583.714 195.127 583.018 194.839 582.292 194.839C581.566 194.839 580.87 195.127 580.357 195.64C579.843 196.153 579.555 196.849 579.555 197.575Z" fill="white"/>
<path d="M557.663 187.541V225.853H605.097V187.541H557.663ZM601.935 222.66H560.825V190.734H601.935V222.66Z" fill="white"/>
</g>
<g filter="url(#filter3_d_5869_5846)">
<path d="M10 307.683C10 300.126 16.1735 294 23.7889 294H114.795C122.411 294 128.584 300.126 128.584 307.683V417.145C128.584 424.702 122.411 430.828 114.795 430.828H23.7889C16.1735 430.828 10 424.702 10 417.145V307.683Z" fill="white"/>
<path opacity="0.8" d="M19.1221 393.428C19.1221 391.917 20.3378 390.692 21.8374 390.692H74.7867C76.2863 390.692 77.502 391.917 77.502 393.428C77.502 394.94 76.2863 396.165 74.7867 396.165H21.8374C20.3378 396.165 19.1221 394.94 19.1221 393.428Z" fill="#1B1A1B"/>
<path opacity="0.8" d="M19.1221 404.374C19.1221 402.863 20.354 401.638 21.8736 401.638H100.292C101.811 401.638 103.043 402.863 103.043 404.374C103.043 405.886 101.811 407.111 100.292 407.111H21.8736C20.354 407.111 19.1221 405.886 19.1221 404.374Z" fill="#1B1A1B"/>
<path opacity="0.8" d="M19.1221 415.321C19.1221 413.809 20.354 412.584 21.8736 412.584H100.292C101.811 412.584 103.043 413.809 103.043 415.321C103.043 416.832 101.811 418.057 100.292 418.057H21.8736C20.354 418.057 19.1221 416.832 19.1221 415.321Z" fill="#1B1A1B"/>
<path d="M10 307.61C10 300.094 16.1735 294 23.7889 294H114.795C122.411 294 128.584 300.094 128.584 307.61V379.746H10V307.61Z" fill="#9296F7"/>
<path d="M86.6237 343.973C86.6237 343.84 86.5901 343.709 86.5262 343.593C86.4623 343.477 86.3702 343.38 86.2588 343.311L78.0659 338.216C77.9093 338.119 77.7235 338.082 77.5428 338.114C77.362 338.145 77.1984 338.242 77.0822 338.387L73.4715 342.876L73.4228 342.932C73.2805 343.078 73.0873 343.16 72.8857 343.16C72.6841 343.16 72.4907 343.079 72.348 342.934L60.336 330.714C60.1976 330.573 60.0116 330.492 59.8163 330.488C59.6211 330.483 59.4316 330.555 59.287 330.689L50.3856 338.962C50.3069 339.035 50.2441 339.123 50.2012 339.222C50.1582 339.321 50.1361 339.428 50.1362 339.536V352.38H86.6237V343.973Z" fill="white"/>
<path d="M66.5552 329.575C66.5552 330.301 66.8435 330.997 67.3567 331.51C67.8699 332.023 68.566 332.312 69.2917 332.312C70.0175 332.312 70.7136 332.023 71.2268 331.51C71.74 330.997 72.0283 330.301 72.0283 329.575C72.0283 328.849 71.74 328.153 71.2268 327.64C70.7136 327.127 70.0175 326.839 69.2917 326.839C68.566 326.839 67.8699 327.127 67.3567 327.64C66.8435 328.153 66.5552 328.849 66.5552 329.575Z" fill="white"/>
<path d="M44.6631 319.541V357.853H92.0968V319.541H44.6631ZM88.9345 354.66H47.8253V322.734H88.9345V354.66Z" fill="white"/>
</g>
<path d="M225 161.5C225 175.031 214.255 186 201 186C187.745 186 177 175.031 177 161.5C177 147.969 187.745 137 201 137C214.255 137 225 147.969 225 161.5Z" fill="#9296F7"/>
<path fill-rule="evenodd" clip-rule="evenodd" d="M201 182.259C212.731 182.259 222.241 172.965 222.241 161.5C222.241 150.035 212.731 140.741 201 140.741C189.269 140.741 179.759 150.035 179.759 161.5C179.759 172.965 189.269 182.259 201 182.259ZM201 183C213.15 183 223 173.374 223 161.5C223 149.626 213.15 140 201 140C188.85 140 179 149.626 179 161.5C179 173.374 188.85 183 201 183Z" fill="white"/>
<path d="M186 162.766C186 162.113 186.143 161.542 186.43 161.054C186.724 160.565 187.13 160.19 187.645 159.927C188.169 159.664 188.767 159.532 189.438 159.532C190.297 159.532 191.014 159.739 191.587 160.152C192.168 160.565 192.549 161.147 192.729 161.899H190.494C190.306 161.418 189.941 161.177 189.401 161.177C189.016 161.177 188.709 161.316 188.48 161.594C188.251 161.865 188.136 162.255 188.136 162.766C188.136 163.277 188.251 163.671 188.48 163.949C188.709 164.22 189.016 164.355 189.401 164.355C189.941 164.355 190.306 164.115 190.494 163.634H192.729C192.549 164.37 192.168 164.948 191.587 165.369C191.006 165.79 190.289 166 189.438 166C188.767 166 188.169 165.869 187.645 165.606C187.13 165.343 186.724 164.967 186.43 164.479C186.143 163.991 186 163.42 186 162.766Z" fill="white"/>
<path d="M201.563 165.91H199.463L195.951 161.031V165.91H193.852V158H195.951L199.463 162.901V158H201.563V165.91Z" fill="white"/>
<path d="M208.696 158V159.544H205.184V161.211H207.812V162.71H205.184V165.91H203.085V158H208.696Z" fill="white"/>
<path d="M216 158V159.544H213.716V165.91H211.617V159.544H209.333V158H216Z" fill="white"/>
<path d="M382 161.5C382 175.031 371.255 186 358 186C344.745 186 334 175.031 334 161.5C334 147.969 344.745 137 358 137C371.255 137 382 147.969 382 161.5Z" fill="#F7B192"/>
<path fill-rule="evenodd" clip-rule="evenodd" d="M358 182.259C369.731 182.259 379.241 172.965 379.241 161.5C379.241 150.035 369.731 140.741 358 140.741C346.269 140.741 336.759 150.035 336.759 161.5C336.759 172.965 346.269 182.259 358 182.259ZM358 183C370.15 183 380 173.374 380 161.5C380 149.626 370.15 140 358 140C345.85 140 336 149.626 336 161.5C336 173.374 345.85 183 358 183Z" fill="white"/>
<path d="M343 162.766C343 162.113 343.143 161.542 343.43 161.054C343.724 160.565 344.13 160.19 344.645 159.927C345.169 159.664 345.767 159.532 346.438 159.532C347.297 159.532 348.014 159.739 348.587 160.152C349.168 160.565 349.549 161.147 349.729 161.899H347.494C347.306 161.418 346.941 161.177 346.401 161.177C346.016 161.177 345.709 161.316 345.48 161.594C345.251 161.865 345.136 162.255 345.136 162.766C345.136 163.277 345.251 163.671 345.48 163.949C345.709 164.22 346.016 164.355 346.401 164.355C346.941 164.355 347.306 164.115 347.494 163.634H349.729C349.549 164.37 349.168 164.948 348.587 165.369C348.006 165.79 347.289 166 346.438 166C345.767 166 345.169 165.869 344.645 165.606C344.13 165.343 343.724 164.967 343.43 164.479C343.143 163.991 343 163.42 343 162.766Z" fill="white"/>
<path d="M358.563 165.91H356.463L352.951 161.031V165.91H350.852V158H352.951L356.463 162.901V158H358.563V165.91Z" fill="white"/>
<path d="M365.696 158V159.544H362.184V161.211H364.812V162.71H362.184V165.91H360.085V158H365.696Z" fill="white"/>
<path d="M373 158V159.544H370.716V165.91H368.617V159.544H366.333V158H373Z" fill="white"/>
<path d="M225 230C225 243.255 214.255 254 201 254C187.745 254 177 243.255 177 230C177 216.745 187.745 206 201 206C214.255 206 225 216.745 225 230Z" fill="#9296F7"/>
<path fill-rule="evenodd" clip-rule="evenodd" d="M201 251.241C212.731 251.241 222.241 241.731 222.241 230C222.241 218.269 212.731 208.759 201 208.759C189.269 208.759 179.759 218.269 179.759 230C179.759 241.731 189.269 251.241 201 251.241ZM201 252C213.15 252 223 242.15 223 230C223 217.85 213.15 208 201 208C188.85 208 179 217.85 179 230C179 242.15 188.85 252 201 252Z" fill="white"/>
<path d="M186 230.766C186 230.113 186.143 229.542 186.43 229.054C186.724 228.565 187.13 228.19 187.645 227.927C188.169 227.664 188.767 227.532 189.438 227.532C190.297 227.532 191.014 227.739 191.587 228.152C192.168 228.565 192.549 229.147 192.729 229.899H190.494C190.306 229.418 189.941 229.177 189.401 229.177C189.016 229.177 188.709 229.316 188.48 229.594C188.251 229.865 188.136 230.255 188.136 230.766C188.136 231.277 188.251 231.671 188.48 231.949C188.709 232.22 189.016 232.355 189.401 232.355C189.941 232.355 190.306 232.115 190.494 231.634H192.729C192.549 232.37 192.168 232.948 191.587 233.369C191.006 233.79 190.289 234 189.438 234C188.767 234 188.169 233.869 187.645 233.606C187.13 233.343 186.724 232.967 186.43 232.479C186.143 231.991 186 231.42 186 230.766Z" fill="white"/>
<path d="M201.563 233.91H199.463L195.951 229.031V233.91H193.852V226H195.951L199.463 230.901V226H201.563V233.91Z" fill="white"/>
<path d="M208.696 226V227.544H205.184V229.211H207.812V230.71H205.184V233.91H203.085V226H208.696Z" fill="white"/>
<path d="M216 226V227.544H213.716V233.91H211.617V227.544H209.333V226H216Z" fill="white"/>
<path d="M225 298C225 311.255 214.255 322 201 322C187.745 322 177 311.255 177 298C177 284.745 187.745 274 201 274C214.255 274 225 284.745 225 298Z" fill="#9296F7"/>
<path fill-rule="evenodd" clip-rule="evenodd" d="M201 319.241C212.731 319.241 222.241 309.731 222.241 298C222.241 286.269 212.731 276.759 201 276.759C189.269 276.759 179.759 286.269 179.759 298C179.759 309.731 189.269 319.241 201 319.241ZM201 320C213.15 320 223 310.15 223 298C223 285.85 213.15 276 201 276C188.85 276 179 285.85 179 298C179 310.15 188.85 320 201 320Z" fill="white"/>
<path d="M186 298.766C186 298.113 186.143 297.542 186.43 297.054C186.724 296.565 187.13 296.19 187.645 295.927C188.169 295.664 188.767 295.532 189.438 295.532C190.297 295.532 191.014 295.739 191.587 296.152C192.168 296.565 192.549 297.147 192.729 297.899H190.494C190.306 297.418 189.941 297.177 189.401 297.177C189.016 297.177 188.709 297.316 188.48 297.594C188.251 297.865 188.136 298.255 188.136 298.766C188.136 299.277 188.251 299.671 188.48 299.949C188.709 300.22 189.016 300.355 189.401 300.355C189.941 300.355 190.306 300.115 190.494 299.634H192.729C192.549 300.37 192.168 300.948 191.587 301.369C191.006 301.79 190.289 302 189.438 302C188.767 302 188.169 301.869 187.645 301.606C187.13 301.343 186.724 300.967 186.43 300.479C186.143 299.991 186 299.42 186 298.766Z" fill="white"/>
<path d="M201.563 301.91H199.463L195.951 297.031V301.91H193.852V294H195.951L199.463 298.901V294H201.563V301.91Z" fill="white"/>
<path d="M208.696 294V295.544H205.184V297.211H207.812V298.71H205.184V301.91H203.085V294H208.696Z" fill="white"/>
<path d="M216 294V295.544H213.716V301.91H211.617V295.544H209.333V294H216Z" fill="white"/>
<path d="M225 366C225 379.255 214.255 390 201 390C187.745 390 177 379.255 177 366C177 352.745 187.745 342 201 342C214.255 342 225 352.745 225 366Z" fill="#9296F7"/>
<path fill-rule="evenodd" clip-rule="evenodd" d="M201 387.241C212.731 387.241 222.241 377.731 222.241 366C222.241 354.269 212.731 344.759 201 344.759C189.269 344.759 179.759 354.269 179.759 366C179.759 377.731 189.269 387.241 201 387.241ZM201 388C213.15 388 223 378.15 223 366C223 353.85 213.15 344 201 344C188.85 344 179 353.85 179 366C179 378.15 188.85 388 201 388Z" fill="white"/>
<path d="M186 366.766C186 366.113 186.143 365.542 186.43 365.054C186.724 364.565 187.13 364.19 187.645 363.927C188.169 363.664 188.767 363.532 189.438 363.532C190.297 363.532 191.014 363.739 191.587 364.152C192.168 364.565 192.549 365.147 192.729 365.899H190.494C190.306 365.418 189.941 365.177 189.401 365.177C189.016 365.177 188.709 365.316 188.48 365.594C188.251 365.865 188.136 366.255 188.136 366.766C188.136 367.277 188.251 367.671 188.48 367.949C188.709 368.22 189.016 368.355 189.401 368.355C189.941 368.355 190.306 368.115 190.494 367.634H192.729C192.549 368.37 192.168 368.948 191.587 369.369C191.006 369.79 190.289 370 189.438 370C188.767 370 188.169 369.869 187.645 369.606C187.13 369.343 186.724 368.967 186.43 368.479C186.143 367.991 186 367.42 186 366.766Z" fill="white"/>
<path d="M201.563 369.91H199.463L195.951 365.031V369.91H193.852V362H195.951L199.463 366.901V362H201.563V369.91Z" fill="white"/>
<path d="M208.696 362V363.544H205.184V365.211H207.812V366.71H205.184V369.91H203.085V362H208.696Z" fill="white"/>
<path d="M216 362V363.544H213.716V369.91H211.617V363.544H209.333V362H216Z" fill="white"/>
<path d="M382 230C382 243.255 371.255 254 358 254C344.745 254 334 243.255 334 230C334 216.745 344.745 206 358 206C371.255 206 382 216.745 382 230Z" fill="#F7B192"/>
<path fill-rule="evenodd" clip-rule="evenodd" d="M358 251.241C369.731 251.241 379.241 241.731 379.241 230C379.241 218.269 369.731 208.759 358 208.759C346.269 208.759 336.759 218.269 336.759 230C336.759 241.731 346.269 251.241 358 251.241ZM358 252C370.15 252 380 242.15 380 230C380 217.85 370.15 208 358 208C345.85 208 336 217.85 336 230C336 242.15 345.85 252 358 252Z" fill="white"/>
<path d="M343 230.766C343 230.113 343.143 229.542 343.43 229.054C343.724 228.565 344.13 228.19 344.645 227.927C345.169 227.664 345.767 227.532 346.438 227.532C347.297 227.532 348.014 227.739 348.587 228.152C349.168 228.565 349.549 229.147 349.729 229.899H347.494C347.306 229.418 346.941 229.177 346.401 229.177C346.016 229.177 345.709 229.316 345.48 229.594C345.251 229.865 345.136 230.255 345.136 230.766C345.136 231.277 345.251 231.671 345.48 231.949C345.709 232.22 346.016 232.355 346.401 232.355C346.941 232.355 347.306 232.115 347.494 231.634H349.729C349.549 232.37 349.168 232.948 348.587 233.369C348.006 233.79 347.289 234 346.438 234C345.767 234 345.169 233.869 344.645 233.606C344.13 233.343 343.724 232.967 343.43 232.479C343.143 231.991 343 231.42 343 230.766Z" fill="white"/>
<path d="M358.563 233.91H356.463L352.951 229.031V233.91H350.852V226H352.951L356.463 230.901V226H358.563V233.91Z" fill="white"/>
<path d="M365.696 226V227.544H362.184V229.211H364.812V230.71H362.184V233.91H360.085V226H365.696Z" fill="white"/>
<path d="M373 226V227.544H370.716V233.91H368.617V227.544H366.333V226H373Z" fill="white"/>
<path d="M382 298C382 311.255 371.255 322 358 322C344.745 322 334 311.255 334 298C334 284.745 344.745 274 358 274C371.255 274 382 284.745 382 298Z" fill="#F7B192"/>
<path fill-rule="evenodd" clip-rule="evenodd" d="M358 319.241C369.731 319.241 379.241 309.731 379.241 298C379.241 286.269 369.731 276.759 358 276.759C346.269 276.759 336.759 286.269 336.759 298C336.759 309.731 346.269 319.241 358 319.241ZM358 320C370.15 320 380 310.15 380 298C380 285.85 370.15 276 358 276C345.85 276 336 285.85 336 298C336 310.15 345.85 320 358 320Z" fill="white"/>
<path d="M343 298.766C343 298.113 343.143 297.542 343.43 297.054C343.724 296.565 344.13 296.19 344.645 295.927C345.169 295.664 345.767 295.532 346.438 295.532C347.297 295.532 348.014 295.739 348.587 296.152C349.168 296.565 349.549 297.147 349.729 297.899H347.494C347.306 297.418 346.941 297.177 346.401 297.177C346.016 297.177 345.709 297.316 345.48 297.594C345.251 297.865 345.136 298.255 345.136 298.766C345.136 299.277 345.251 299.671 345.48 299.949C345.709 300.22 346.016 300.355 346.401 300.355C346.941 300.355 347.306 300.115 347.494 299.634H349.729C349.549 300.37 349.168 300.948 348.587 301.369C348.006 301.79 347.289 302 346.438 302C345.767 302 345.169 301.869 344.645 301.606C344.13 301.343 343.724 300.967 343.43 300.479C343.143 299.991 343 299.42 343 298.766Z" fill="white"/>
<path d="M358.563 301.91H356.463L352.951 297.031V301.91H350.852V294H352.951L356.463 298.901V294H358.563V301.91Z" fill="white"/>
<path d="M365.696 294V295.544H362.184V297.211H364.812V298.71H362.184V301.91H360.085V294H365.696Z" fill="white"/>
<path d="M373 294V295.544H370.716V301.91H368.617V295.544H366.333V294H373Z" fill="white"/>
<path d="M382 366C382 379.255 371.255 390 358 390C344.745 390 334 379.255 334 366C334 352.745 344.745 342 358 342C371.255 342 382 352.745 382 366Z" fill="#F7B192"/>
<path fill-rule="evenodd" clip-rule="evenodd" d="M358 387.241C369.731 387.241 379.241 377.731 379.241 366C379.241 354.269 369.731 344.759 358 344.759C346.269 344.759 336.759 354.269 336.759 366C336.759 377.731 346.269 387.241 358 387.241ZM358 388C370.15 388 380 378.15 380 366C380 353.85 370.15 344 358 344C345.85 344 336 353.85 336 366C336 378.15 345.85 388 358 388Z" fill="white"/>
<path d="M343 366.766C343 366.113 343.143 365.542 343.43 365.054C343.724 364.565 344.13 364.19 344.645 363.927C345.169 363.664 345.767 363.532 346.438 363.532C347.297 363.532 348.014 363.739 348.587 364.152C349.168 364.565 349.549 365.147 349.729 365.899H347.494C347.306 365.418 346.941 365.177 346.401 365.177C346.016 365.177 345.709 365.316 345.48 365.594C345.251 365.865 345.136 366.255 345.136 366.766C345.136 367.277 345.251 367.671 345.48 367.949C345.709 368.22 346.016 368.355 346.401 368.355C346.941 368.355 347.306 368.115 347.494 367.634H349.729C349.549 368.37 349.168 368.948 348.587 369.369C348.006 369.79 347.289 370 346.438 370C345.767 370 345.169 369.869 344.645 369.606C344.13 369.343 343.724 368.967 343.43 368.479C343.143 367.991 343 367.42 343 366.766Z" fill="white"/>
<path d="M358.563 369.91H356.463L352.951 365.031V369.91H350.852V362H352.951L356.463 366.901V362H358.563V369.91Z" fill="white"/>
<path d="M365.696 362V363.544H362.184V365.211H364.812V366.71H362.184V369.91H360.085V362H365.696Z" fill="white"/>
<path d="M373 362V363.544H370.716V369.91H368.617V363.544H366.333V362H373Z" fill="white"/>
<path d="M295 230C295 243.255 284.255 254 271 254C257.745 254 247 243.255 247 230C247 216.745 257.745 206 271 206C284.255 206 295 216.745 295 230Z" fill="#9296F7"/>
<path fill-rule="evenodd" clip-rule="evenodd" d="M271 251.241C282.731 251.241 292.241 241.731 292.241 230C292.241 218.269 282.731 208.759 271 208.759C259.269 208.759 249.759 218.269 249.759 230C249.759 241.731 259.269 251.241 271 251.241ZM271 252C283.15 252 293 242.15 293 230C293 217.85 283.15 208 271 208C258.85 208 249 217.85 249 230C249 242.15 258.85 252 271 252Z" fill="white"/>
<path d="M257 230.766C257 230.113 257.138 229.542 257.415 229.054C257.7 228.565 258.092 228.19 258.59 227.927C259.097 227.664 259.675 227.532 260.323 227.532C261.154 227.532 261.847 227.739 262.4 228.152C262.962 228.565 263.33 229.147 263.504 229.899H261.344C261.162 229.418 260.81 229.177 260.288 229.177C259.916 229.177 259.619 229.316 259.398 229.594C259.176 229.865 259.065 230.255 259.065 230.766C259.065 231.277 259.176 231.671 259.398 231.949C259.619 232.22 259.916 232.355 260.288 232.355C260.81 232.355 261.162 232.115 261.344 231.634H263.504C263.33 232.37 262.962 232.948 262.4 233.369C261.839 233.79 261.146 234 260.323 234C259.675 234 259.097 233.869 258.59 233.606C258.092 233.343 257.7 232.967 257.415 232.479C257.138 231.991 257 231.42 257 230.766Z" fill="white"/>
<path d="M272.044 233.91H270.014L266.62 229.031V233.91H264.59V226H266.62L270.014 230.901V226H272.044V233.91Z" fill="white"/>
<path d="M278.939 226V227.544H275.545V229.211H278.085V230.71H275.545V233.91H273.515V226H278.939Z" fill="white"/>
<path d="M286 226V227.544H283.792V233.91H281.763V227.544H279.555V226H286Z" fill="white"/>
<path d="M295 298C295 311.255 284.255 322 271 322C257.745 322 247 311.255 247 298C247 284.745 257.745 274 271 274C284.255 274 295 284.745 295 298Z" fill="#9296F7"/>
<path fill-rule="evenodd" clip-rule="evenodd" d="M271 319.241C282.731 319.241 292.241 309.731 292.241 298C292.241 286.269 282.731 276.759 271 276.759C259.269 276.759 249.759 286.269 249.759 298C249.759 309.731 259.269 319.241 271 319.241ZM271 320C283.15 320 293 310.15 293 298C293 285.85 283.15 276 271 276C258.85 276 249 285.85 249 298C249 310.15 258.85 320 271 320Z" fill="white"/>
<path d="M257 298.766C257 298.113 257.138 297.542 257.415 297.054C257.7 296.565 258.092 296.19 258.59 295.927C259.097 295.664 259.675 295.532 260.323 295.532C261.154 295.532 261.847 295.739 262.4 296.152C262.962 296.565 263.33 297.147 263.504 297.899H261.344C261.162 297.418 260.81 297.177 260.288 297.177C259.916 297.177 259.619 297.316 259.398 297.594C259.176 297.865 259.065 298.255 259.065 298.766C259.065 299.277 259.176 299.671 259.398 299.949C259.619 300.22 259.916 300.355 260.288 300.355C260.81 300.355 261.162 300.115 261.344 299.634H263.504C263.33 300.37 262.962 300.948 262.4 301.369C261.839 301.79 261.146 302 260.323 302C259.675 302 259.097 301.869 258.59 301.606C258.092 301.343 257.7 300.967 257.415 300.479C257.138 299.991 257 299.42 257 298.766Z" fill="white"/>
<path d="M272.044 301.91H270.014L266.62 297.031V301.91H264.59V294H266.62L270.014 298.901V294H272.044V301.91Z" fill="white"/>
<path d="M278.939 294V295.544H275.545V297.211H278.085V298.71H275.545V301.91H273.515V294H278.939Z" fill="white"/>
<path d="M286 294V295.544H283.792V301.91H281.763V295.544H279.555V294H286Z" fill="white"/>
<path d="M295 366C295 379.255 284.255 390 271 390C257.745 390 247 379.255 247 366C247 352.745 257.745 342 271 342C284.255 342 295 352.745 295 366Z" fill="#9296F7"/>
<path fill-rule="evenodd" clip-rule="evenodd" d="M271 387.241C282.731 387.241 292.241 377.731 292.241 366C292.241 354.269 282.731 344.759 271 344.759C259.269 344.759 249.759 354.269 249.759 366C249.759 377.731 259.269 387.241 271 387.241ZM271 388C283.15 388 293 378.15 293 366C293 353.85 283.15 344 271 344C258.85 344 249 353.85 249 366C249 378.15 258.85 388 271 388Z" fill="white"/>
<path d="M257 366.766C257 366.113 257.138 365.542 257.415 365.054C257.7 364.565 258.092 364.19 258.59 363.927C259.097 363.664 259.675 363.532 260.323 363.532C261.154 363.532 261.847 363.739 262.4 364.152C262.962 364.565 263.33 365.147 263.504 365.899H261.344C261.162 365.418 260.81 365.177 260.288 365.177C259.916 365.177 259.619 365.316 259.398 365.594C259.176 365.865 259.065 366.255 259.065 366.766C259.065 367.277 259.176 367.671 259.398 367.949C259.619 368.22 259.916 368.355 260.288 368.355C260.81 368.355 261.162 368.115 261.344 367.634H263.504C263.33 368.37 262.962 368.948 262.4 369.369C261.839 369.79 261.146 370 260.323 370C259.675 370 259.097 369.869 258.59 369.606C258.092 369.343 257.7 368.967 257.415 368.479C257.138 367.991 257 367.42 257 366.766Z" fill="white"/>
<path d="M272.044 369.91H270.014L266.62 365.031V369.91H264.59V362H266.62L270.014 366.901V362H272.044V369.91Z" fill="white"/>
<path d="M278.939 362V363.544H275.545V365.211H278.085V366.71H275.545V369.91H273.515V362H278.939Z" fill="white"/>
<path d="M286 362V363.544H283.792V369.91H281.763V363.544H279.555V362H286Z" fill="white"/>
<path d="M452 230C452 243.255 441.255 254 428 254C414.745 254 404 243.255 404 230C404 216.745 414.745 206 428 206C441.255 206 452 216.745 452 230Z" fill="#F7B192"/>
<path fill-rule="evenodd" clip-rule="evenodd" d="M428 251.241C439.731 251.241 449.241 241.731 449.241 230C449.241 218.269 439.731 208.759 428 208.759C416.269 208.759 406.759 218.269 406.759 230C406.759 241.731 416.269 251.241 428 251.241ZM428 252C440.15 252 450 242.15 450 230C450 217.85 440.15 208 428 208C415.85 208 406 217.85 406 230C406 242.15 415.85 252 428 252Z" fill="white"/>
<path d="M414 230.766C414 230.113 414.138 229.542 414.415 229.054C414.7 228.565 415.092 228.19 415.59 227.927C416.097 227.664 416.675 227.532 417.323 227.532C418.154 227.532 418.847 227.739 419.4 228.152C419.962 228.565 420.33 229.147 420.504 229.899H418.344C418.162 229.418 417.81 229.177 417.288 229.177C416.916 229.177 416.619 229.316 416.398 229.594C416.176 229.865 416.065 230.255 416.065 230.766C416.065 231.277 416.176 231.671 416.398 231.949C416.619 232.22 416.916 232.355 417.288 232.355C417.81 232.355 418.162 232.115 418.344 231.634H420.504C420.33 232.37 419.962 232.948 419.4 233.369C418.839 233.79 418.146 234 417.323 234C416.675 234 416.097 233.869 415.59 233.606C415.092 233.343 414.7 232.967 414.415 232.479C414.138 231.991 414 231.42 414 230.766Z" fill="white"/>
<path d="M429.044 233.91H427.014L423.62 229.031V233.91H421.59V226H423.62L427.014 230.901V226H429.044V233.91Z" fill="white"/>
<path d="M435.939 226V227.544H432.545V229.211H435.085V230.71H432.545V233.91H430.515V226H435.939Z" fill="white"/>
<path d="M443 226V227.544H440.792V233.91H438.763V227.544H436.555V226H443Z" fill="white"/>
<path d="M452 298C452 311.255 441.255 322 428 322C414.745 322 404 311.255 404 298C404 284.745 414.745 274 428 274C441.255 274 452 284.745 452 298Z" fill="#F7B192"/>
<path fill-rule="evenodd" clip-rule="evenodd" d="M428 319.241C439.731 319.241 449.241 309.731 449.241 298C449.241 286.269 439.731 276.759 428 276.759C416.269 276.759 406.759 286.269 406.759 298C406.759 309.731 416.269 319.241 428 319.241ZM428 320C440.15 320 450 310.15 450 298C450 285.85 440.15 276 428 276C415.85 276 406 285.85 406 298C406 310.15 415.85 320 428 320Z" fill="white"/>
<path d="M414 298.766C414 298.113 414.138 297.542 414.415 297.054C414.7 296.565 415.092 296.19 415.59 295.927C416.097 295.664 416.675 295.532 417.323 295.532C418.154 295.532 418.847 295.739 419.4 296.152C419.962 296.565 420.33 297.147 420.504 297.899H418.344C418.162 297.418 417.81 297.177 417.288 297.177C416.916 297.177 416.619 297.316 416.398 297.594C416.176 297.865 416.065 298.255 416.065 298.766C416.065 299.277 416.176 299.671 416.398 299.949C416.619 300.22 416.916 300.355 417.288 300.355C417.81 300.355 418.162 300.115 418.344 299.634H420.504C420.33 300.37 419.962 300.948 419.4 301.369C418.839 301.79 418.146 302 417.323 302C416.675 302 416.097 301.869 415.59 301.606C415.092 301.343 414.7 300.967 414.415 300.479C414.138 299.991 414 299.42 414 298.766Z" fill="white"/>
<path d="M429.044 301.91H427.014L423.62 297.031V301.91H421.59V294H423.62L427.014 298.901V294H429.044V301.91Z" fill="white"/>
<path d="M435.939 294V295.544H432.545V297.211H435.085V298.71H432.545V301.91H430.515V294H435.939Z" fill="white"/>
<path d="M443 294V295.544H440.792V301.91H438.763V295.544H436.555V294H443Z" fill="white"/>
<path d="M452 366C452 379.255 441.255 390 428 390C414.745 390 404 379.255 404 366C404 352.745 414.745 342 428 342C441.255 342 452 352.745 452 366Z" fill="#F7B192"/>
<path fill-rule="evenodd" clip-rule="evenodd" d="M428 387.241C439.731 387.241 449.241 377.731 449.241 366C449.241 354.269 439.731 344.759 428 344.759C416.269 344.759 406.759 354.269 406.759 366C406.759 377.731 416.269 387.241 428 387.241ZM428 388C440.15 388 450 378.15 450 366C450 353.85 440.15 344 428 344C415.85 344 406 353.85 406 366C406 378.15 415.85 388 428 388Z" fill="white"/>
<path d="M414 366.766C414 366.113 414.138 365.542 414.415 365.054C414.7 364.565 415.092 364.19 415.59 363.927C416.097 363.664 416.675 363.532 417.323 363.532C418.154 363.532 418.847 363.739 419.4 364.152C419.962 364.565 420.33 365.147 420.504 365.899H418.344C418.162 365.418 417.81 365.177 417.288 365.177C416.916 365.177 416.619 365.316 416.398 365.594C416.176 365.865 416.065 366.255 416.065 366.766C416.065 367.277 416.176 367.671 416.398 367.949C416.619 368.22 416.916 368.355 417.288 368.355C417.81 368.355 418.162 368.115 418.344 367.634H420.504C420.33 368.37 419.962 368.948 419.4 369.369C418.839 369.79 418.146 370 417.323 370C416.675 370 416.097 369.869 415.59 369.606C415.092 369.343 414.7 368.967 414.415 368.479C414.138 367.991 414 367.42 414 366.766Z" fill="white"/>
<path d="M429.044 369.91H427.014L423.62 365.031V369.91H421.59V362H423.62L427.014 366.901V362H429.044V369.91Z" fill="white"/>
<path d="M435.939 362V363.544H432.545V365.211H435.085V366.71H432.545V369.91H430.515V362H435.939Z" fill="white"/>
<path d="M443 362V363.544H440.792V369.91H438.763V363.544H436.555V362H443Z" fill="white"/>
<path d="M295 161.5C295 175.031 284.255 186 271 186C257.745 186 247 175.031 247 161.5C247 147.969 257.745 137 271 137C284.255 137 295 147.969 295 161.5Z" fill="#9296F7"/>
<path fill-rule="evenodd" clip-rule="evenodd" d="M271 182.259C282.731 182.259 292.241 172.965 292.241 161.5C292.241 150.035 282.731 140.741 271 140.741C259.269 140.741 249.759 150.035 249.759 161.5C249.759 172.965 259.269 182.259 271 182.259ZM271 183C283.15 183 293 173.374 293 161.5C293 149.626 283.15 140 271 140C258.85 140 249 149.626 249 161.5C249 173.374 258.85 183 271 183Z" fill="white"/>
<path d="M257 162.766C257 162.113 257.138 161.542 257.415 161.054C257.7 160.565 258.092 160.19 258.59 159.927C259.097 159.664 259.675 159.532 260.323 159.532C261.154 159.532 261.847 159.739 262.4 160.152C262.962 160.565 263.33 161.147 263.504 161.899H261.344C261.162 161.418 260.81 161.177 260.288 161.177C259.916 161.177 259.619 161.316 259.398 161.594C259.176 161.865 259.065 162.255 259.065 162.766C259.065 163.277 259.176 163.671 259.398 163.949C259.619 164.22 259.916 164.355 260.288 164.355C260.81 164.355 261.162 164.115 261.344 163.634H263.504C263.33 164.37 262.962 164.948 262.4 165.369C261.839 165.79 261.146 166 260.323 166C259.675 166 259.097 165.869 258.59 165.606C258.092 165.343 257.7 164.967 257.415 164.479C257.138 163.991 257 163.42 257 162.766Z" fill="white"/>
<path d="M272.044 165.91H270.014L266.62 161.031V165.91H264.59V158H266.62L270.014 162.901V158H272.044V165.91Z" fill="white"/>
<path d="M278.939 158V159.544H275.545V161.211H278.085V162.71H275.545V165.91H273.515V158H278.939Z" fill="white"/>
<path d="M286 158V159.544H283.792V165.91H281.763V159.544H279.555V158H286Z" fill="white"/>
<path d="M452 161.5C452 175.031 441.255 186 428 186C414.745 186 404 175.031 404 161.5C404 147.969 414.745 137 428 137C441.255 137 452 147.969 452 161.5Z" fill="#F7B192"/>
<path fill-rule="evenodd" clip-rule="evenodd" d="M428 182.259C439.731 182.259 449.241 172.965 449.241 161.5C449.241 150.035 439.731 140.741 428 140.741C416.269 140.741 406.759 150.035 406.759 161.5C406.759 172.965 416.269 182.259 428 182.259ZM428 183C440.15 183 450 173.374 450 161.5C450 149.626 440.15 140 428 140C415.85 140 406 149.626 406 161.5C406 173.374 415.85 183 428 183Z" fill="white"/>
<path d="M414 162.766C414 162.113 414.138 161.542 414.415 161.054C414.7 160.565 415.092 160.19 415.59 159.927C416.097 159.664 416.675 159.532 417.323 159.532C418.154 159.532 418.847 159.739 419.4 160.152C419.962 160.565 420.33 161.147 420.504 161.899H418.344C418.162 161.418 417.81 161.177 417.288 161.177C416.916 161.177 416.619 161.316 416.398 161.594C416.176 161.865 416.065 162.255 416.065 162.766C416.065 163.277 416.176 163.671 416.398 163.949C416.619 164.22 416.916 164.355 417.288 164.355C417.81 164.355 418.162 164.115 418.344 163.634H420.504C420.33 164.37 419.962 164.948 419.4 165.369C418.839 165.79 418.146 166 417.323 166C416.675 166 416.097 165.869 415.59 165.606C415.092 165.343 414.7 164.967 414.415 164.479C414.138 163.991 414 163.42 414 162.766Z" fill="white"/>
<path d="M429.044 165.91H427.014L423.62 161.031V165.91H421.59V158H423.62L427.014 162.901V158H429.044V165.91Z" fill="white"/>
<path d="M435.939 158V159.544H432.545V161.211H435.085V162.71H432.545V165.91H430.515V158H435.939Z" fill="white"/>
<path d="M443 158V159.544H440.792V165.91H438.763V159.544H436.555V158H443Z" fill="white"/>
<path fill-rule="evenodd" clip-rule="evenodd" d="M258.158 395.978L256.502 383.766L248.579 388.846L252.895 392.06C243.542 419.639 232.462 437.387 220.67 447.932C208.597 458.729 195.736 462.012 183.132 460.498C157.892 457.467 133.697 435.193 119.129 415.52L118.267 416.977C132.964 436.825 157.434 459.401 183.077 462.481C195.914 464.023 209.048 460.678 221.378 449.652C233.422 438.881 244.657 420.818 254.098 392.956L258.158 395.978Z" fill="#C5ABE0"/>
<path fill-rule="evenodd" clip-rule="evenodd" d="M600.23 300.542L598.945 290.442L590.393 294.433L594.825 297.186C583.915 319.675 571.554 334.023 558.715 342.42C545.569 351.018 531.876 353.409 518.635 351.853C492.12 348.739 467.433 329.8 452.806 313.238L451.841 314.418C466.598 331.126 491.562 350.321 518.501 353.485C531.987 355.069 545.972 352.635 559.397 343.855C572.511 335.277 585.047 320.673 596.061 297.953L600.23 300.542Z" fill="#F7B192"/>
<line x1="315.5" y1="120" x2="315.5" y2="406" stroke="black" stroke-opacity="0.1" stroke-dasharray="2 2"/>
<path d="M305.667 258.417C305.667 255.646 307.915 253.417 310.667 253.417H322.333" stroke="black" stroke-width="1.25" stroke-linecap="round" stroke-linejoin="round"/>
<path d="M319.833 250.917L322.333 253.417L319.833 255.917" stroke="black" stroke-width="1.25" stroke-linecap="round" stroke-linejoin="round"/>
<path d="M322.333 257.583C322.333 260.354 320.085 262.583 317.333 262.583H305.667" stroke="black" stroke-width="1.25" stroke-linecap="round" stroke-linejoin="round"/>
<path d="M308.167 265.083L305.667 262.583L308.167 260.083" stroke="black" stroke-width="1.25" stroke-linecap="round" stroke-linejoin="round"/>
<defs>
<filter id="filter0_d_5869_5846" x="107" y="14" width="415" height="442" filterUnits="userSpaceOnUse" color-interpolation-filters="sRGB">
<feFlood flood-opacity="0" result="BackgroundImageFix"/>
<feColorMatrix in="SourceAlpha" type="matrix" values="0 0 0 0 0 0 0 0 0 0 0 0 0 0 0 0 0 0 127 0" result="hardAlpha"/>
<feOffset/>
<feGaussianBlur stdDeviation="25"/>
<feComposite in2="hardAlpha" operator="out"/>
<feColorMatrix type="matrix" values="0 0 0 0 0 0 0 0 0 0 0 0 0 0 0 0 0 0 0.25 0"/>
<feBlend mode="normal" in2="BackgroundImageFix" result="effect1_dropShadow_5869_5846"/>
<feBlend mode="normal" in="SourceGraphic" in2="effect1_dropShadow_5869_5846" result="shape"/>
</filter>
<filter id="filter1_d_5869_5846" x="282" y="80" width="64" height="36" filterUnits="userSpaceOnUse" color-interpolation-filters="sRGB">
<feFlood flood-opacity="0" result="BackgroundImageFix"/>
<feColorMatrix in="SourceAlpha" type="matrix" values="0 0 0 0 0 0 0 0 0 0 0 0 0 0 0 0 0 0 127 0" result="hardAlpha"/>
<feOffset dy="4"/>
<feGaussianBlur stdDeviation="5"/>
<feComposite in2="hardAlpha" operator="out"/>
<feColorMatrix type="matrix" values="0 0 0 0 0 0 0 0 0 0 0 0 0 0 0 0 0 0 0.25 0"/>
<feBlend mode="normal" in2="BackgroundImageFix" result="effect1_dropShadow_5869_5846"/>
<feBlend mode="normal" in="SourceGraphic" in2="effect1_dropShadow_5869_5846" result="shape"/>
</filter>
<filter id="filter2_d_5869_5846" x="513" y="152" width="136.76" height="156.828" filterUnits="userSpaceOnUse" color-interpolation-filters="sRGB">
<feFlood flood-opacity="0" result="BackgroundImageFix"/>
<feColorMatrix in="SourceAlpha" type="matrix" values="0 0 0 0 0 0 0 0 0 0 0 0 0 0 0 0 0 0 127 0" result="hardAlpha"/>
<feOffset/>
<feGaussianBlur stdDeviation="5"/>
<feComposite in2="hardAlpha" operator="out"/>
<feColorMatrix type="matrix" values="0 0 0 0 0 0 0 0 0 0 0 0 0 0 0 0 0 0 0.25 0"/>
<feBlend mode="normal" in2="BackgroundImageFix" result="effect1_dropShadow_5869_5846"/>
<feBlend mode="normal" in="SourceGraphic" in2="effect1_dropShadow_5869_5846" result="shape"/>
</filter>
<filter id="filter3_d_5869_5846" x="0" y="284" width="138.584" height="156.828" filterUnits="userSpaceOnUse" color-interpolation-filters="sRGB">
<feFlood flood-opacity="0" result="BackgroundImageFix"/>
<feColorMatrix in="SourceAlpha" type="matrix" values="0 0 0 0 0 0 0 0 0 0 0 0 0 0 0 0 0 0 127 0" result="hardAlpha"/>
<feOffset/>
<feGaussianBlur stdDeviation="5"/>
<feComposite in2="hardAlpha" operator="out"/>
<feColorMatrix type="matrix" values="0 0 0 0 0 0 0 0 0 0 0 0 0 0 0 0 0 0 0.25 0"/>
<feBlend mode="normal" in2="BackgroundImageFix" result="effect1_dropShadow_5869_5846"/>
<feBlend mode="normal" in="SourceGraphic" in2="effect1_dropShadow_5869_5846" result="shape"/>
</filter>
<linearGradient id="paint0_linear_5869_5846" x1="164.875" y1="92.5" x2="466.485" y2="95.3941" gradientUnits="userSpaceOnUse">
<stop stop-color="#C5ABE0"/>
<stop offset="1" stop-color="#EA9768"/>
</linearGradient>
</defs>
</svg>
