<svg width="868" height="568" viewBox="0 0 868 568" fill="none" xmlns="http://www.w3.org/2000/svg">
<g opacity="0.2" filter="url(#filter0_d_5872_6302)">
<path d="M514 54.989C514 52.2337 517.403 50 521.6 50H810.4C814.597 50 818 52.2337 818 54.989V272.011C818 274.766 814.597 277 810.4 277H521.6C517.403 277 514 274.766 514 272.011V54.989Z" fill="white"/>
<path d="M519.113 56.155C519.113 56.155 519.116 56.1526 519.121 56.1478C519.116 56.1527 519.113 56.1551 519.113 56.155ZM519.5 55.9171C519.929 55.7119 520.645 55.5 521.6 55.5H810.4C811.355 55.5 812.071 55.7119 812.5 55.9171V271.083C812.071 271.288 811.355 271.5 810.4 271.5H521.6C520.645 271.5 519.929 271.288 519.5 271.083V55.9171ZM519.113 270.845C519.113 270.845 519.116 270.847 519.121 270.852C519.116 270.847 519.113 270.845 519.113 270.845ZM812.887 270.845C812.887 270.845 812.884 270.847 812.879 270.852C812.884 270.847 812.887 270.845 812.887 270.845ZM812.887 56.155C812.887 56.1551 812.884 56.1527 812.879 56.1478C812.884 56.1526 812.887 56.155 812.887 56.155Z" stroke="white" stroke-width="11"/>
</g>
<path d="M582 98C582 111.255 571.255 122 558 122C544.745 122 534 111.255 534 98C534 84.7452 544.745 74 558 74C571.255 74 582 84.7452 582 98Z" fill="#9296F7"/>
<path fill-rule="evenodd" clip-rule="evenodd" d="M558 119.241C569.731 119.241 579.241 109.731 579.241 98C579.241 86.2687 569.731 76.7586 558 76.7586C546.269 76.7586 536.759 86.2687 536.759 98C536.759 109.731 546.269 119.241 558 119.241ZM558 120C570.15 120 580 110.15 580 98C580 85.8497 570.15 76 558 76C545.85 76 536 85.8497 536 98C536 110.15 545.85 120 558 120Z" fill="white"/>
<path d="M543 98.7662C543 98.1127 543.143 97.5418 543.43 97.0535C543.724 96.5653 544.13 96.1897 544.645 95.9268C545.169 95.6638 545.767 95.5324 546.438 95.5324C547.297 95.5324 548.014 95.739 548.587 96.1521C549.168 96.5653 549.549 97.1474 549.729 97.8986H547.494C547.306 97.4178 546.941 97.1775 546.401 97.1775C546.016 97.1775 545.709 97.3164 545.48 97.5944C545.251 97.8648 545.136 98.2554 545.136 98.7662C545.136 99.277 545.251 99.6714 545.48 99.9493C545.709 100.22 546.016 100.355 546.401 100.355C546.941 100.355 547.306 100.115 547.494 99.6338H549.729C549.549 100.37 549.168 100.948 548.587 101.369C548.006 101.79 547.289 102 546.438 102C545.767 102 545.169 101.869 544.645 101.606C544.13 101.343 543.724 100.967 543.43 100.479C543.143 99.9906 543 99.4197 543 98.7662Z" fill="white"/>
<path d="M558.563 101.91H556.463L552.951 97.031V101.91H550.852V94H552.951L556.463 98.9014V94H558.563V101.91Z" fill="white"/>
<path d="M565.696 94V95.5437H562.184V97.2113H564.812V98.7099H562.184V101.91H560.085V94H565.696Z" fill="white"/>
<path d="M573 94V95.5437H570.716V101.91H568.617V95.5437H566.333V94H573Z" fill="white"/>
<path d="M582 166C582 179.255 571.255 190 558 190C544.745 190 534 179.255 534 166C534 152.745 544.745 142 558 142C571.255 142 582 152.745 582 166Z" fill="#9296F7"/>
<path fill-rule="evenodd" clip-rule="evenodd" d="M558 187.241C569.731 187.241 579.241 177.731 579.241 166C579.241 154.269 569.731 144.759 558 144.759C546.269 144.759 536.759 154.269 536.759 166C536.759 177.731 546.269 187.241 558 187.241ZM558 188C570.15 188 580 178.15 580 166C580 153.85 570.15 144 558 144C545.85 144 536 153.85 536 166C536 178.15 545.85 188 558 188Z" fill="white"/>
<path d="M543 166.766C543 166.113 543.143 165.542 543.43 165.054C543.724 164.565 544.13 164.19 544.645 163.927C545.169 163.664 545.767 163.532 546.438 163.532C547.297 163.532 548.014 163.739 548.587 164.152C549.168 164.565 549.549 165.147 549.729 165.899H547.494C547.306 165.418 546.941 165.177 546.401 165.177C546.016 165.177 545.709 165.316 545.48 165.594C545.251 165.865 545.136 166.255 545.136 166.766C545.136 167.277 545.251 167.671 545.48 167.949C545.709 168.22 546.016 168.355 546.401 168.355C546.941 168.355 547.306 168.115 547.494 167.634H549.729C549.549 168.37 549.168 168.948 548.587 169.369C548.006 169.79 547.289 170 546.438 170C545.767 170 545.169 169.869 544.645 169.606C544.13 169.343 543.724 168.967 543.43 168.479C543.143 167.991 543 167.42 543 166.766Z" fill="white"/>
<path d="M558.563 169.91H556.463L552.951 165.031V169.91H550.852V162H552.951L556.463 166.901V162H558.563V169.91Z" fill="white"/>
<path d="M565.696 162V163.544H562.184V165.211H564.812V166.71H562.184V169.91H560.085V162H565.696Z" fill="white"/>
<path d="M573 162V163.544H570.716V169.91H568.617V163.544H566.333V162H573Z" fill="white"/>
<path d="M582 234C582 247.255 571.255 258 558 258C544.745 258 534 247.255 534 234C534 220.745 544.745 210 558 210C571.255 210 582 220.745 582 234Z" fill="#9296F7"/>
<path fill-rule="evenodd" clip-rule="evenodd" d="M558 255.241C569.731 255.241 579.241 245.731 579.241 234C579.241 222.269 569.731 212.759 558 212.759C546.269 212.759 536.759 222.269 536.759 234C536.759 245.731 546.269 255.241 558 255.241ZM558 256C570.15 256 580 246.15 580 234C580 221.85 570.15 212 558 212C545.85 212 536 221.85 536 234C536 246.15 545.85 256 558 256Z" fill="white"/>
<path d="M543 234.766C543 234.113 543.143 233.542 543.43 233.054C543.724 232.565 544.13 232.19 544.645 231.927C545.169 231.664 545.767 231.532 546.438 231.532C547.297 231.532 548.014 231.739 548.587 232.152C549.168 232.565 549.549 233.147 549.729 233.899H547.494C547.306 233.418 546.941 233.177 546.401 233.177C546.016 233.177 545.709 233.316 545.48 233.594C545.251 233.865 545.136 234.255 545.136 234.766C545.136 235.277 545.251 235.671 545.48 235.949C545.709 236.22 546.016 236.355 546.401 236.355C546.941 236.355 547.306 236.115 547.494 235.634H549.729C549.549 236.37 549.168 236.948 548.587 237.369C548.006 237.79 547.289 238 546.438 238C545.767 238 545.169 237.869 544.645 237.606C544.13 237.343 543.724 236.967 543.43 236.479C543.143 235.991 543 235.42 543 234.766Z" fill="white"/>
<path d="M558.563 237.91H556.463L552.951 233.031V237.91H550.852V230H552.951L556.463 234.901V230H558.563V237.91Z" fill="white"/>
<path d="M565.696 230V231.544H562.184V233.211H564.812V234.71H562.184V237.91H560.085V230H565.696Z" fill="white"/>
<path d="M573 230V231.544H570.716V237.91H568.617V231.544H566.333V230H573Z" fill="white"/>
<path d="M722 98C722 111.255 711.255 122 698 122C684.745 122 674 111.255 674 98C674 84.7452 684.745 74 698 74C711.255 74 722 84.7452 722 98Z" fill="#F7B192"/>
<path fill-rule="evenodd" clip-rule="evenodd" d="M698 119.241C709.731 119.241 719.241 109.731 719.241 98C719.241 86.2687 709.731 76.7586 698 76.7586C686.269 76.7586 676.759 86.2687 676.759 98C676.759 109.731 686.269 119.241 698 119.241ZM698 120C710.15 120 720 110.15 720 98C720 85.8497 710.15 76 698 76C685.85 76 676 85.8497 676 98C676 110.15 685.85 120 698 120Z" fill="white"/>
<path d="M683 98.7662C683 98.1127 683.143 97.5418 683.43 97.0535C683.724 96.5653 684.13 96.1897 684.645 95.9268C685.169 95.6638 685.767 95.5324 686.438 95.5324C687.297 95.5324 688.014 95.739 688.587 96.1521C689.168 96.5653 689.549 97.1474 689.729 97.8986H687.494C687.306 97.4178 686.941 97.1775 686.401 97.1775C686.016 97.1775 685.709 97.3164 685.48 97.5944C685.251 97.8648 685.136 98.2554 685.136 98.7662C685.136 99.277 685.251 99.6714 685.48 99.9493C685.709 100.22 686.016 100.355 686.401 100.355C686.941 100.355 687.306 100.115 687.494 99.6338H689.729C689.549 100.37 689.168 100.948 688.587 101.369C688.006 101.79 687.289 102 686.438 102C685.767 102 685.169 101.869 684.645 101.606C684.13 101.343 683.724 100.967 683.43 100.479C683.143 99.9906 683 99.4197 683 98.7662Z" fill="white"/>
<path d="M698.563 101.91H696.463L692.951 97.031V101.91H690.852V94H692.951L696.463 98.9014V94H698.563V101.91Z" fill="white"/>
<path d="M705.696 94V95.5437H702.184V97.2113H704.812V98.7099H702.184V101.91H700.085V94H705.696Z" fill="white"/>
<path d="M713 94V95.5437H710.716V101.91H708.617V95.5437H706.333V94H713Z" fill="white"/>
<path d="M722 166C722 179.255 711.255 190 698 190C684.745 190 674 179.255 674 166C674 152.745 684.745 142 698 142C711.255 142 722 152.745 722 166Z" fill="#F7B192"/>
<path fill-rule="evenodd" clip-rule="evenodd" d="M698 187.241C709.731 187.241 719.241 177.731 719.241 166C719.241 154.269 709.731 144.759 698 144.759C686.269 144.759 676.759 154.269 676.759 166C676.759 177.731 686.269 187.241 698 187.241ZM698 188C710.15 188 720 178.15 720 166C720 153.85 710.15 144 698 144C685.85 144 676 153.85 676 166C676 178.15 685.85 188 698 188Z" fill="white"/>
<path d="M683 166.766C683 166.113 683.143 165.542 683.43 165.054C683.724 164.565 684.13 164.19 684.645 163.927C685.169 163.664 685.767 163.532 686.438 163.532C687.297 163.532 688.014 163.739 688.587 164.152C689.168 164.565 689.549 165.147 689.729 165.899H687.494C687.306 165.418 686.941 165.177 686.401 165.177C686.016 165.177 685.709 165.316 685.48 165.594C685.251 165.865 685.136 166.255 685.136 166.766C685.136 167.277 685.251 167.671 685.48 167.949C685.709 168.22 686.016 168.355 686.401 168.355C686.941 168.355 687.306 168.115 687.494 167.634H689.729C689.549 168.37 689.168 168.948 688.587 169.369C688.006 169.79 687.289 170 686.438 170C685.767 170 685.169 169.869 684.645 169.606C684.13 169.343 683.724 168.967 683.43 168.479C683.143 167.991 683 167.42 683 166.766Z" fill="white"/>
<path d="M698.563 169.91H696.463L692.951 165.031V169.91H690.852V162H692.951L696.463 166.901V162H698.563V169.91Z" fill="white"/>
<path d="M705.696 162V163.544H702.184V165.211H704.812V166.71H702.184V169.91H700.085V162H705.696Z" fill="white"/>
<path d="M713 162V163.544H710.716V169.91H708.617V163.544H706.333V162H713Z" fill="white"/>
<path d="M722 234C722 247.255 711.255 258 698 258C684.745 258 674 247.255 674 234C674 220.745 684.745 210 698 210C711.255 210 722 220.745 722 234Z" fill="#F7B192"/>
<path fill-rule="evenodd" clip-rule="evenodd" d="M698 255.241C709.731 255.241 719.241 245.731 719.241 234C719.241 222.269 709.731 212.759 698 212.759C686.269 212.759 676.759 222.269 676.759 234C676.759 245.731 686.269 255.241 698 255.241ZM698 256C710.15 256 720 246.15 720 234C720 221.85 710.15 212 698 212C685.85 212 676 221.85 676 234C676 246.15 685.85 256 698 256Z" fill="white"/>
<path d="M683 234.766C683 234.113 683.143 233.542 683.43 233.054C683.724 232.565 684.13 232.19 684.645 231.927C685.169 231.664 685.767 231.532 686.438 231.532C687.297 231.532 688.014 231.739 688.587 232.152C689.168 232.565 689.549 233.147 689.729 233.899H687.494C687.306 233.418 686.941 233.177 686.401 233.177C686.016 233.177 685.709 233.316 685.48 233.594C685.251 233.865 685.136 234.255 685.136 234.766C685.136 235.277 685.251 235.671 685.48 235.949C685.709 236.22 686.016 236.355 686.401 236.355C686.941 236.355 687.306 236.115 687.494 235.634H689.729C689.549 236.37 689.168 236.948 688.587 237.369C688.006 237.79 687.289 238 686.438 238C685.767 238 685.169 237.869 684.645 237.606C684.13 237.343 683.724 236.967 683.43 236.479C683.143 235.991 683 235.42 683 234.766Z" fill="white"/>
<path d="M698.563 237.91H696.463L692.951 233.031V237.91H690.852V230H692.951L696.463 234.901V230H698.563V237.91Z" fill="white"/>
<path d="M705.696 230V231.544H702.184V233.211H704.812V234.71H702.184V237.91H700.085V230H705.696Z" fill="white"/>
<path d="M713 230V231.544H710.716V237.91H708.617V231.544H706.333V230H713Z" fill="white"/>
<path d="M652 98C652 111.255 641.255 122 628 122C614.745 122 604 111.255 604 98C604 84.7452 614.745 74 628 74C641.255 74 652 84.7452 652 98Z" fill="#9296F7"/>
<path fill-rule="evenodd" clip-rule="evenodd" d="M628 119.241C639.731 119.241 649.241 109.731 649.241 98C649.241 86.2687 639.731 76.7586 628 76.7586C616.269 76.7586 606.759 86.2687 606.759 98C606.759 109.731 616.269 119.241 628 119.241ZM628 120C640.15 120 650 110.15 650 98C650 85.8497 640.15 76 628 76C615.85 76 606 85.8497 606 98C606 110.15 615.85 120 628 120Z" fill="white"/>
<path d="M614 98.7662C614 98.1127 614.138 97.5418 614.415 97.0535C614.7 96.5653 615.092 96.1897 615.59 95.9268C616.097 95.6638 616.675 95.5324 617.323 95.5324C618.154 95.5324 618.847 95.739 619.4 96.1521C619.962 96.5653 620.33 97.1474 620.504 97.8986H618.344C618.162 97.4178 617.81 97.1775 617.288 97.1775C616.916 97.1775 616.619 97.3164 616.398 97.5944C616.176 97.8648 616.065 98.2554 616.065 98.7662C616.065 99.277 616.176 99.6714 616.398 99.9493C616.619 100.22 616.916 100.355 617.288 100.355C617.81 100.355 618.162 100.115 618.344 99.6338H620.504C620.33 100.37 619.962 100.948 619.4 101.369C618.839 101.79 618.146 102 617.323 102C616.675 102 616.097 101.869 615.59 101.606C615.092 101.343 614.7 100.967 614.415 100.479C614.138 99.9906 614 99.4197 614 98.7662Z" fill="white"/>
<path d="M629.044 101.91H627.014L623.62 97.031V101.91H621.59V94H623.62L627.014 98.9014V94H629.044V101.91Z" fill="white"/>
<path d="M635.939 94V95.5437H632.545V97.2113H635.085V98.7099H632.545V101.91H630.515V94H635.939Z" fill="white"/>
<path d="M643 94V95.5437H640.792V101.91H638.763V95.5437H636.555V94H643Z" fill="white"/>
<path d="M652 166C652 179.255 641.255 190 628 190C614.745 190 604 179.255 604 166C604 152.745 614.745 142 628 142C641.255 142 652 152.745 652 166Z" fill="#9296F7"/>
<path fill-rule="evenodd" clip-rule="evenodd" d="M628 187.241C639.731 187.241 649.241 177.731 649.241 166C649.241 154.269 639.731 144.759 628 144.759C616.269 144.759 606.759 154.269 606.759 166C606.759 177.731 616.269 187.241 628 187.241ZM628 188C640.15 188 650 178.15 650 166C650 153.85 640.15 144 628 144C615.85 144 606 153.85 606 166C606 178.15 615.85 188 628 188Z" fill="white"/>
<path d="M614 166.766C614 166.113 614.138 165.542 614.415 165.054C614.7 164.565 615.092 164.19 615.59 163.927C616.097 163.664 616.675 163.532 617.323 163.532C618.154 163.532 618.847 163.739 619.4 164.152C619.962 164.565 620.33 165.147 620.504 165.899H618.344C618.162 165.418 617.81 165.177 617.288 165.177C616.916 165.177 616.619 165.316 616.398 165.594C616.176 165.865 616.065 166.255 616.065 166.766C616.065 167.277 616.176 167.671 616.398 167.949C616.619 168.22 616.916 168.355 617.288 168.355C617.81 168.355 618.162 168.115 618.344 167.634H620.504C620.33 168.37 619.962 168.948 619.4 169.369C618.839 169.79 618.146 170 617.323 170C616.675 170 616.097 169.869 615.59 169.606C615.092 169.343 614.7 168.967 614.415 168.479C614.138 167.991 614 167.42 614 166.766Z" fill="white"/>
<path d="M629.044 169.91H627.014L623.62 165.031V169.91H621.59V162H623.62L627.014 166.901V162H629.044V169.91Z" fill="white"/>
<path d="M635.939 162V163.544H632.545V165.211H635.085V166.71H632.545V169.91H630.515V162H635.939Z" fill="white"/>
<path d="M643 162V163.544H640.792V169.91H638.763V163.544H636.555V162H643Z" fill="white"/>
<path d="M652 234C652 247.255 641.255 258 628 258C614.745 258 604 247.255 604 234C604 220.745 614.745 210 628 210C641.255 210 652 220.745 652 234Z" fill="#9296F7"/>
<path fill-rule="evenodd" clip-rule="evenodd" d="M628 255.241C639.731 255.241 649.241 245.731 649.241 234C649.241 222.269 639.731 212.759 628 212.759C616.269 212.759 606.759 222.269 606.759 234C606.759 245.731 616.269 255.241 628 255.241ZM628 256C640.15 256 650 246.15 650 234C650 221.85 640.15 212 628 212C615.85 212 606 221.85 606 234C606 246.15 615.85 256 628 256Z" fill="white"/>
<path d="M614 234.766C614 234.113 614.138 233.542 614.415 233.054C614.7 232.565 615.092 232.19 615.59 231.927C616.097 231.664 616.675 231.532 617.323 231.532C618.154 231.532 618.847 231.739 619.4 232.152C619.962 232.565 620.33 233.147 620.504 233.899H618.344C618.162 233.418 617.81 233.177 617.288 233.177C616.916 233.177 616.619 233.316 616.398 233.594C616.176 233.865 616.065 234.255 616.065 234.766C616.065 235.277 616.176 235.671 616.398 235.949C616.619 236.22 616.916 236.355 617.288 236.355C617.81 236.355 618.162 236.115 618.344 235.634H620.504C620.33 236.37 619.962 236.948 619.4 237.369C618.839 237.79 618.146 238 617.323 238C616.675 238 616.097 237.869 615.59 237.606C615.092 237.343 614.7 236.967 614.415 236.479C614.138 235.991 614 235.42 614 234.766Z" fill="white"/>
<path d="M629.044 237.91H627.014L623.62 233.031V237.91H621.59V230H623.62L627.014 234.901V230H629.044V237.91Z" fill="white"/>
<path d="M635.939 230V231.544H632.545V233.211H635.085V234.71H632.545V237.91H630.515V230H635.939Z" fill="white"/>
<path d="M643 230V231.544H640.792V237.91H638.763V231.544H636.555V230H643Z" fill="white"/>
<path d="M792 98C792 111.255 781.255 122 768 122C754.745 122 744 111.255 744 98C744 84.7452 754.745 74 768 74C781.255 74 792 84.7452 792 98Z" fill="#F7B192"/>
<path fill-rule="evenodd" clip-rule="evenodd" d="M768 119.241C779.731 119.241 789.241 109.731 789.241 98C789.241 86.2687 779.731 76.7586 768 76.7586C756.269 76.7586 746.759 86.2687 746.759 98C746.759 109.731 756.269 119.241 768 119.241ZM768 120C780.15 120 790 110.15 790 98C790 85.8497 780.15 76 768 76C755.85 76 746 85.8497 746 98C746 110.15 755.85 120 768 120Z" fill="white"/>
<path d="M754 98.7662C754 98.1127 754.138 97.5418 754.415 97.0535C754.7 96.5653 755.092 96.1897 755.59 95.9268C756.097 95.6638 756.675 95.5324 757.323 95.5324C758.154 95.5324 758.847 95.739 759.4 96.1521C759.962 96.5653 760.33 97.1474 760.504 97.8986H758.344C758.162 97.4178 757.81 97.1775 757.288 97.1775C756.916 97.1775 756.619 97.3164 756.398 97.5944C756.176 97.8648 756.065 98.2554 756.065 98.7662C756.065 99.277 756.176 99.6714 756.398 99.9493C756.619 100.22 756.916 100.355 757.288 100.355C757.81 100.355 758.162 100.115 758.344 99.6338H760.504C760.33 100.37 759.962 100.948 759.4 101.369C758.839 101.79 758.146 102 757.323 102C756.675 102 756.097 101.869 755.59 101.606C755.092 101.343 754.7 100.967 754.415 100.479C754.138 99.9906 754 99.4197 754 98.7662Z" fill="white"/>
<path d="M769.044 101.91H767.014L763.62 97.031V101.91H761.59V94H763.62L767.014 98.9014V94H769.044V101.91Z" fill="white"/>
<path d="M775.939 94V95.5437H772.545V97.2113H775.085V98.7099H772.545V101.91H770.515V94H775.939Z" fill="white"/>
<path d="M783 94V95.5437H780.792V101.91H778.763V95.5437H776.555V94H783Z" fill="white"/>
<path d="M792 166C792 179.255 781.255 190 768 190C754.745 190 744 179.255 744 166C744 152.745 754.745 142 768 142C781.255 142 792 152.745 792 166Z" fill="#F7B192"/>
<path fill-rule="evenodd" clip-rule="evenodd" d="M768 187.241C779.731 187.241 789.241 177.731 789.241 166C789.241 154.269 779.731 144.759 768 144.759C756.269 144.759 746.759 154.269 746.759 166C746.759 177.731 756.269 187.241 768 187.241ZM768 188C780.15 188 790 178.15 790 166C790 153.85 780.15 144 768 144C755.85 144 746 153.85 746 166C746 178.15 755.85 188 768 188Z" fill="white"/>
<path d="M754 166.766C754 166.113 754.138 165.542 754.415 165.054C754.7 164.565 755.092 164.19 755.59 163.927C756.097 163.664 756.675 163.532 757.323 163.532C758.154 163.532 758.847 163.739 759.4 164.152C759.962 164.565 760.33 165.147 760.504 165.899H758.344C758.162 165.418 757.81 165.177 757.288 165.177C756.916 165.177 756.619 165.316 756.398 165.594C756.176 165.865 756.065 166.255 756.065 166.766C756.065 167.277 756.176 167.671 756.398 167.949C756.619 168.22 756.916 168.355 757.288 168.355C757.81 168.355 758.162 168.115 758.344 167.634H760.504C760.33 168.37 759.962 168.948 759.4 169.369C758.839 169.79 758.146 170 757.323 170C756.675 170 756.097 169.869 755.59 169.606C755.092 169.343 754.7 168.967 754.415 168.479C754.138 167.991 754 167.42 754 166.766Z" fill="white"/>
<path d="M769.044 169.91H767.014L763.62 165.031V169.91H761.59V162H763.62L767.014 166.901V162H769.044V169.91Z" fill="white"/>
<path d="M775.939 162V163.544H772.545V165.211H775.085V166.71H772.545V169.91H770.515V162H775.939Z" fill="white"/>
<path d="M783 162V163.544H780.792V169.91H778.763V163.544H776.555V162H783Z" fill="white"/>
<path d="M792 234C792 247.255 781.255 258 768 258C754.745 258 744 247.255 744 234C744 220.745 754.745 210 768 210C781.255 210 792 220.745 792 234Z" fill="#F7B192"/>
<path fill-rule="evenodd" clip-rule="evenodd" d="M768 255.241C779.731 255.241 789.241 245.731 789.241 234C789.241 222.269 779.731 212.759 768 212.759C756.269 212.759 746.759 222.269 746.759 234C746.759 245.731 756.269 255.241 768 255.241ZM768 256C780.15 256 790 246.15 790 234C790 221.85 780.15 212 768 212C755.85 212 746 221.85 746 234C746 246.15 755.85 256 768 256Z" fill="white"/>
<path d="M754 234.766C754 234.113 754.138 233.542 754.415 233.054C754.7 232.565 755.092 232.19 755.59 231.927C756.097 231.664 756.675 231.532 757.323 231.532C758.154 231.532 758.847 231.739 759.4 232.152C759.962 232.565 760.33 233.147 760.504 233.899H758.344C758.162 233.418 757.81 233.177 757.288 233.177C756.916 233.177 756.619 233.316 756.398 233.594C756.176 233.865 756.065 234.255 756.065 234.766C756.065 235.277 756.176 235.671 756.398 235.949C756.619 236.22 756.916 236.355 757.288 236.355C757.81 236.355 758.162 236.115 758.344 235.634H760.504C760.33 236.37 759.962 236.948 759.4 237.369C758.839 237.79 758.146 238 757.323 238C756.675 238 756.097 237.869 755.59 237.606C755.092 237.343 754.7 236.967 754.415 236.479C754.138 235.991 754 235.42 754 234.766Z" fill="white"/>
<path d="M769.044 237.91H767.014L763.62 233.031V237.91H761.59V230H763.62L767.014 234.901V230H769.044V237.91Z" fill="white"/>
<path d="M775.939 230V231.544H772.545V233.211H775.085V234.71H772.545V237.91H770.515V230H775.939Z" fill="white"/>
<path d="M783 230V231.544H780.792V237.91H778.763V231.544H776.555V230H783Z" fill="white"/>
<g filter="url(#filter1_d_5872_6302)">
<path d="M285 113.516C285 109.365 288.369 106 292.525 106H578.475C582.631 106 586 109.365 586 113.516V440.484C586 444.635 582.631 448 578.475 448H292.525C288.369 448 285 444.635 285 440.484V113.516Z" fill="white"/>
</g>
<path d="M285 113.5C285 109.358 288.369 106 292.525 106H578.475C582.631 106 586 109.358 586 113.5V163H285V113.5Z" fill="url(#paint0_linear_5872_6302)"/>
<g filter="url(#filter2_d_5872_6302)">
<path d="M318 192.3C318 186.611 322.647 182 328.38 182H396.887C402.619 182 407.267 186.611 407.267 192.3V274.7C407.267 280.389 402.619 285 396.887 285H328.38C322.647 285 318 280.389 318 274.7V192.3Z" fill="white"/>
<path opacity="0.8" d="M324.867 256.847C324.867 255.709 325.782 254.787 326.911 254.787H366.769C367.898 254.787 368.813 255.709 368.813 256.847C368.813 257.984 367.898 258.907 366.769 258.907H326.911C325.782 258.907 324.867 257.984 324.867 256.847Z" fill="#1B1A1B"/>
<path opacity="0.8" d="M324.867 265.087C324.867 263.949 325.794 263.027 326.938 263.027H385.969C387.113 263.027 388.04 263.949 388.04 265.087C388.04 266.225 387.113 267.147 385.969 267.147H326.938C325.794 267.147 324.867 266.225 324.867 265.087Z" fill="#1B1A1B"/>
<path opacity="0.8" d="M324.867 273.327C324.867 272.189 325.794 271.267 326.938 271.267H385.969C387.113 271.267 388.04 272.189 388.04 273.327C388.04 274.464 387.113 275.387 385.969 275.387H326.938C325.794 275.387 324.867 274.464 324.867 273.327Z" fill="#1B1A1B"/>
<path opacity="0.6" d="M318 192.246C318 186.587 322.647 182 328.38 182H396.887C402.619 182 407.267 186.587 407.267 192.246V246.547H318V192.246Z" fill="#F27D49"/>
<path d="M375.68 219.618C375.68 219.518 375.655 219.42 375.607 219.332C375.559 219.245 375.489 219.172 375.405 219.12L369.238 215.285C369.12 215.211 368.98 215.184 368.844 215.208C368.708 215.231 368.585 215.304 368.498 215.413L365.779 218.793L365.743 218.835C365.636 218.944 365.49 219.006 365.339 219.006C365.187 219.007 365.041 218.945 364.934 218.836L355.891 209.637C355.787 209.531 355.647 209.47 355.5 209.467C355.353 209.463 355.211 209.518 355.102 209.618L348.401 215.846C348.342 215.901 348.295 215.968 348.262 216.042C348.23 216.117 348.213 216.197 348.213 216.279V225.947H375.68V219.618Z" fill="white"/>
<path d="M360.573 208.78C360.573 209.326 360.79 209.85 361.177 210.237C361.563 210.623 362.087 210.84 362.633 210.84C363.18 210.84 363.704 210.623 364.09 210.237C364.476 209.85 364.693 209.326 364.693 208.78C364.693 208.234 364.476 207.71 364.09 207.323C363.704 206.937 363.18 206.72 362.633 206.72C362.087 206.72 361.563 206.937 361.177 207.323C360.79 207.71 360.573 208.234 360.573 208.78Z" fill="white"/>
<path d="M344.093 201.227V230.067H379.8V201.227H344.093ZM377.419 227.663H346.474V203.63H377.419V227.663Z" fill="white"/>
</g>
<g filter="url(#filter3_d_5872_6302)">
<path d="M318 315.3C318 309.611 322.647 305 328.38 305H396.887C402.619 305 407.267 309.611 407.267 315.3V397.7C407.267 403.389 402.619 408 396.887 408H328.38C322.647 408 318 403.389 318 397.7V315.3Z" fill="white"/>
<path opacity="0.8" d="M324.867 379.847C324.867 378.709 325.782 377.787 326.911 377.787H366.769C367.898 377.787 368.813 378.709 368.813 379.847C368.813 380.984 367.898 381.907 366.769 381.907H326.911C325.782 381.907 324.867 380.984 324.867 379.847Z" fill="#1B1A1B"/>
<path opacity="0.8" d="M324.867 388.087C324.867 386.949 325.794 386.027 326.938 386.027H385.969C387.113 386.027 388.04 386.949 388.04 388.087C388.04 389.225 387.113 390.147 385.969 390.147H326.938C325.794 390.147 324.867 389.225 324.867 388.087Z" fill="#1B1A1B"/>
<path opacity="0.8" d="M324.867 396.327C324.867 395.189 325.794 394.267 326.938 394.267H385.969C387.113 394.267 388.04 395.189 388.04 396.327C388.04 397.464 387.113 398.387 385.969 398.387H326.938C325.794 398.387 324.867 397.464 324.867 396.327Z" fill="#1B1A1B"/>
<path opacity="0.6" d="M318 315.246C318 309.587 322.647 305 328.38 305H396.887C402.619 305 407.267 309.587 407.267 315.246V369.547H318V315.246Z" fill="#F27D49"/>
<path d="M375.68 342.618C375.68 342.518 375.655 342.419 375.607 342.332C375.559 342.245 375.489 342.171 375.405 342.119L369.238 338.284C369.12 338.211 368.98 338.184 368.844 338.207C368.708 338.231 368.585 338.304 368.498 338.413L365.779 341.792L365.743 341.834C365.636 341.944 365.49 342.006 365.339 342.006C365.187 342.006 365.041 341.945 364.934 341.836L355.891 332.637C355.787 332.531 355.647 332.47 355.5 332.466C355.353 332.463 355.211 332.517 355.102 332.618L348.401 338.846C348.342 338.901 348.295 338.967 348.262 339.042C348.23 339.116 348.213 339.197 348.213 339.278V348.946H375.68V342.618Z" fill="white"/>
<path d="M360.573 331.78C360.573 332.326 360.79 332.85 361.177 333.236C361.563 333.623 362.087 333.84 362.633 333.84C363.18 333.84 363.704 333.623 364.09 333.236C364.476 332.85 364.693 332.326 364.693 331.78C364.693 331.233 364.476 330.709 364.09 330.323C363.704 329.937 363.18 329.72 362.633 329.72C362.087 329.72 361.563 329.937 361.177 330.323C360.79 330.709 360.573 331.233 360.573 331.78Z" fill="white"/>
<path d="M344.093 324.227V353.067H379.8V324.227H344.093ZM377.419 350.663H346.474V326.63H377.419V350.663Z" fill="white"/>
</g>
<path d="M412.152 136.656C412.152 132.896 406.6 133.776 406.6 131.824C406.6 131.12 407.096 130.784 407.752 130.8C408.488 130.816 409 131.248 409.048 131.968H412.008C411.896 129.824 410.248 128.608 407.8 128.608C405.448 128.608 403.704 129.792 403.704 131.92C403.672 135.904 409.288 134.784 409.288 136.864C409.288 137.52 408.776 137.92 407.976 137.92C407.208 137.92 406.664 137.504 406.584 136.64H403.672C403.752 138.912 405.64 140.112 408.056 140.112C410.68 140.112 412.152 138.544 412.152 136.656ZM414.268 136.896C414.268 139.216 415.564 140 417.42 140H418.812V137.68H417.836C417.228 137.68 417.004 137.456 417.004 136.928V133.344H418.796V131.072H417.004V128.896H414.268V131.072H413.18V133.344H414.268V136.896ZM419.792 135.52C419.792 138.336 421.536 140.128 423.712 140.128C425.04 140.128 425.984 139.52 426.48 138.736V140H429.216V131.072H426.48V132.336C426 131.552 425.056 130.944 423.728 130.944C421.536 130.944 419.792 132.704 419.792 135.52ZM426.48 135.536C426.48 136.96 425.568 137.744 424.528 137.744C423.504 137.744 422.576 136.944 422.576 135.52C422.576 134.096 423.504 133.328 424.528 133.328C425.568 133.328 426.48 134.112 426.48 135.536ZM431.195 140H433.931V136.256L436.651 140H440.043L436.299 135.552L440.011 131.072H436.635L433.931 134.704V128.16H431.195V140ZM441.086 140H443.822V131.072H441.086V140ZM442.462 130.144C443.422 130.144 444.078 129.488 444.078 128.672C444.078 127.84 443.422 127.184 442.462 127.184C441.486 127.184 440.83 127.84 440.83 128.672C440.83 129.488 441.486 130.144 442.462 130.144ZM451.965 140H454.685V134.784C454.685 132.384 453.309 130.976 451.245 130.976C450.045 130.976 449.085 131.504 448.541 132.256V131.072H445.805V140H448.541V135.152C448.541 133.936 449.213 133.264 450.253 133.264C451.293 133.264 451.965 133.936 451.965 135.152V140ZM456.042 135.52C456.042 138.336 457.786 140.128 459.978 140.128C461.29 140.128 462.234 139.504 462.73 138.72V139.984C462.73 141.488 461.914 142.032 460.874 142.032C459.93 142.032 459.258 141.6 459.082 140.928H456.378C456.618 143.056 458.346 144.4 461.002 144.4C464.09 144.4 465.466 142.368 465.466 139.984V131.072H462.73V132.336C462.25 131.536 461.29 130.944 459.978 130.944C457.786 130.944 456.042 132.704 456.042 135.52ZM462.73 135.536C462.73 136.96 461.818 137.744 460.778 137.744C459.754 137.744 458.826 136.944 458.826 135.52C458.826 134.096 459.754 133.328 460.778 133.328C461.818 133.328 462.73 134.112 462.73 135.536Z" fill="black"/>
<g opacity="0.2" filter="url(#filter4_d_5872_6302)">
<path d="M50 335.11C50 332.84 52.9661 331 56.625 331H308.375C312.034 331 315 332.84 315 335.11V513.89C315 516.16 312.034 518 308.375 518H56.625C52.9661 518 50 516.16 50 513.89V335.11Z" fill="white"/>
<path d="M56.3293 340.028C56.3292 340.028 56.3337 340.027 56.3427 340.025C56.3338 340.028 56.3293 340.029 56.3293 340.028ZM59 340H306V509H59V340ZM56.3293 508.972C56.3293 508.971 56.3338 508.972 56.3426 508.975C56.3337 508.973 56.3292 508.972 56.3293 508.972ZM308.671 508.972C308.671 508.972 308.667 508.973 308.657 508.975C308.666 508.973 308.67 508.971 308.671 508.972ZM308.671 340.028C308.671 340.029 308.666 340.028 308.657 340.025C308.666 340.027 308.671 340.028 308.671 340.028Z" stroke="white" stroke-width="18"/>
</g>
<g filter="url(#filter5_d_5872_6302)">
<path d="M88.8535 383.3C88.8535 377.611 93.4292 373 99.0737 373H166.527C172.171 373 176.747 377.611 176.747 383.3V465.7C176.747 471.389 172.171 476 166.527 476H99.0737C93.4292 476 88.8535 471.389 88.8535 465.7V383.3Z" fill="white"/>
<path opacity="0.8" d="M94.3467 447.847C94.3467 446.709 95.2618 445.787 96.3907 445.787H136.249C137.378 445.787 138.293 446.709 138.293 447.847C138.293 448.984 137.378 449.907 136.249 449.907H96.3907C95.2618 449.907 94.3467 448.984 94.3467 447.847Z" fill="#1B1A1B"/>
<path opacity="0.8" d="M94.3467 456.087C94.3467 454.949 95.274 454.027 96.4179 454.027H155.449C156.593 454.027 157.52 454.949 157.52 456.087C157.52 457.225 156.593 458.147 155.449 458.147H96.4179C95.274 458.147 94.3467 457.225 94.3467 456.087Z" fill="#1B1A1B"/>
<path opacity="0.8" d="M94.3467 464.327C94.3467 463.189 95.274 462.267 96.4179 462.267H155.449C156.593 462.267 157.52 463.189 157.52 464.327C157.52 465.464 156.593 466.387 155.449 466.387H96.4179C95.274 466.387 94.3467 465.464 94.3467 464.327Z" fill="#1B1A1B"/>
<path opacity="0.6" d="M88.8535 383.246C88.8535 377.587 93.4292 373 99.0737 373H166.527C172.171 373 176.747 377.587 176.747 383.246V437.547H88.8535V383.246Z" fill="#F27D49"/>
<path d="M146.534 410.618C146.534 410.518 146.508 410.419 146.46 410.332C146.412 410.245 146.343 410.171 146.259 410.119L140.091 406.284C139.974 406.211 139.834 406.184 139.698 406.207C139.562 406.231 139.439 406.304 139.351 406.413L136.633 409.792L136.596 409.834C136.489 409.944 136.344 410.006 136.192 410.006C136.04 410.006 135.895 409.945 135.787 409.836L126.745 400.637C126.641 400.531 126.501 400.47 126.354 400.466C126.207 400.463 126.064 400.517 125.955 400.618L119.255 406.846C119.195 406.901 119.148 406.967 119.116 407.042C119.083 407.116 119.067 407.197 119.067 407.278V416.946H146.534V410.618Z" fill="white"/>
<path d="M131.427 399.78C131.427 400.326 131.644 400.85 132.03 401.236C132.416 401.623 132.94 401.84 133.487 401.84C134.033 401.84 134.557 401.623 134.943 401.236C135.33 400.85 135.547 400.326 135.547 399.78C135.547 399.233 135.33 398.709 134.943 398.323C134.557 397.937 134.033 397.72 133.487 397.72C132.94 397.72 132.416 397.937 132.03 398.323C131.644 398.709 131.427 399.233 131.427 399.78Z" fill="white"/>
<path d="M114.947 392.227V421.067H150.653V392.227H114.947ZM148.273 418.663H117.327V394.63H148.273V418.663Z" fill="white"/>
</g>
<g filter="url(#filter6_d_5872_6302)">
<path d="M189.106 383.3C189.106 377.611 193.754 373 199.486 373H267.993C273.726 373 278.373 377.611 278.373 383.3V465.7C278.373 471.389 273.726 476 267.993 476H199.486C193.754 476 189.106 471.389 189.106 465.7V383.3Z" fill="white"/>
<path opacity="0.8" d="M195.973 447.847C195.973 446.709 196.888 445.787 198.017 445.787H237.876C239.005 445.787 239.92 446.709 239.92 447.847C239.92 448.984 239.005 449.907 237.876 449.907H198.017C196.888 449.907 195.973 448.984 195.973 447.847Z" fill="#1B1A1B"/>
<path opacity="0.8" d="M195.973 456.087C195.973 454.949 196.9 454.027 198.044 454.027H257.075C258.219 454.027 259.146 454.949 259.146 456.087C259.146 457.225 258.219 458.147 257.075 458.147H198.044C196.9 458.147 195.973 457.225 195.973 456.087Z" fill="#1B1A1B"/>
<path opacity="0.8" d="M195.973 464.327C195.973 463.189 196.9 462.267 198.044 462.267H257.075C258.219 462.267 259.146 463.189 259.146 464.327C259.146 465.464 258.219 466.387 257.075 466.387H198.044C196.9 466.387 195.973 465.464 195.973 464.327Z" fill="#1B1A1B"/>
<path opacity="0.6" d="M189.106 383.246C189.106 377.587 193.754 373 199.486 373H267.993C273.726 373 278.373 377.587 278.373 383.246V437.547H189.106V383.246Z" fill="#F27D49"/>
<path d="M246.786 410.618C246.786 410.518 246.761 410.419 246.713 410.332C246.665 410.245 246.596 410.171 246.512 410.119L240.344 406.284C240.227 406.211 240.087 406.184 239.951 406.207C239.815 406.231 239.691 406.304 239.604 406.413L236.886 409.792L236.849 409.834C236.742 409.944 236.597 410.006 236.445 410.006C236.293 410.006 236.148 409.945 236.04 409.836L226.998 400.637C226.894 400.531 226.754 400.47 226.607 400.466C226.46 400.463 226.317 400.517 226.208 400.618L219.508 406.846C219.448 406.901 219.401 406.967 219.369 407.042C219.336 407.116 219.32 407.197 219.32 407.278V416.946H246.786V410.618Z" fill="white"/>
<path d="M231.68 399.78C231.68 400.326 231.897 400.85 232.283 401.236C232.669 401.623 233.193 401.84 233.74 401.84C234.286 401.84 234.81 401.623 235.196 401.236C235.583 400.85 235.8 400.326 235.8 399.78C235.8 399.233 235.583 398.709 235.196 398.323C234.81 397.937 234.286 397.72 233.74 397.72C233.193 397.72 232.669 397.937 232.283 398.323C231.897 398.709 231.68 399.233 231.68 399.78Z" fill="white"/>
<path d="M215.2 392.227V421.067H250.906V392.227H215.2ZM248.526 418.663H217.58V394.63H248.526V418.663Z" fill="white"/>
</g>
<path d="M490 202C490 215.255 479.255 226 466 226C452.745 226 442 215.255 442 202C442 188.745 452.745 178 466 178C479.255 178 490 188.745 490 202Z" fill="#9296F7"/>
<path fill-rule="evenodd" clip-rule="evenodd" d="M466 223.241C477.731 223.241 487.241 213.731 487.241 202C487.241 190.269 477.731 180.759 466 180.759C454.269 180.759 444.759 190.269 444.759 202C444.759 213.731 454.269 223.241 466 223.241ZM466 224C478.15 224 488 214.15 488 202C488 189.85 478.15 180 466 180C453.85 180 444 189.85 444 202C444 214.15 453.85 224 466 224Z" fill="white"/>
<path d="M451 202.766C451 202.113 451.143 201.542 451.43 201.054C451.724 200.565 452.13 200.19 452.645 199.927C453.169 199.664 453.767 199.532 454.438 199.532C455.297 199.532 456.014 199.739 456.587 200.152C457.168 200.565 457.549 201.147 457.729 201.899H455.494C455.306 201.418 454.941 201.177 454.401 201.177C454.016 201.177 453.709 201.316 453.48 201.594C453.251 201.865 453.136 202.255 453.136 202.766C453.136 203.277 453.251 203.671 453.48 203.949C453.709 204.22 454.016 204.355 454.401 204.355C454.941 204.355 455.306 204.115 455.494 203.634H457.729C457.549 204.37 457.168 204.948 456.587 205.369C456.006 205.79 455.289 206 454.438 206C453.767 206 453.169 205.869 452.645 205.606C452.13 205.343 451.724 204.967 451.43 204.479C451.143 203.991 451 203.42 451 202.766Z" fill="white"/>
<path d="M466.563 205.91H464.463L460.951 201.031V205.91H458.852V198H460.951L464.463 202.901V198H466.563V205.91Z" fill="white"/>
<path d="M473.696 198V199.544H470.184V201.211H472.812V202.71H470.184V205.91H468.085V198H473.696Z" fill="white"/>
<path d="M481 198V199.544H478.716V205.91H476.617V199.544H474.333V198H481Z" fill="white"/>
<path d="M490 268C490 281.255 479.255 292 466 292C452.745 292 442 281.255 442 268C442 254.745 452.745 244 466 244C479.255 244 490 254.745 490 268Z" fill="#9296F7"/>
<path fill-rule="evenodd" clip-rule="evenodd" d="M466 289.241C477.731 289.241 487.241 279.731 487.241 268C487.241 256.269 477.731 246.759 466 246.759C454.269 246.759 444.759 256.269 444.759 268C444.759 279.731 454.269 289.241 466 289.241ZM466 290C478.15 290 488 280.15 488 268C488 255.85 478.15 246 466 246C453.85 246 444 255.85 444 268C444 280.15 453.85 290 466 290Z" fill="white"/>
<path d="M451 268.766C451 268.113 451.143 267.542 451.43 267.054C451.724 266.565 452.13 266.19 452.645 265.927C453.169 265.664 453.767 265.532 454.438 265.532C455.297 265.532 456.014 265.739 456.587 266.152C457.168 266.565 457.549 267.147 457.729 267.899H455.494C455.306 267.418 454.941 267.177 454.401 267.177C454.016 267.177 453.709 267.316 453.48 267.594C453.251 267.865 453.136 268.255 453.136 268.766C453.136 269.277 453.251 269.671 453.48 269.949C453.709 270.22 454.016 270.355 454.401 270.355C454.941 270.355 455.306 270.115 455.494 269.634H457.729C457.549 270.37 457.168 270.948 456.587 271.369C456.006 271.79 455.289 272 454.438 272C453.767 272 453.169 271.869 452.645 271.606C452.13 271.343 451.724 270.967 451.43 270.479C451.143 269.991 451 269.42 451 268.766Z" fill="white"/>
<path d="M466.563 271.91H464.463L460.951 267.031V271.91H458.852V264H460.951L464.463 268.901V264H466.563V271.91Z" fill="white"/>
<path d="M473.696 264V265.544H470.184V267.211H472.812V268.71H470.184V271.91H468.085V264H473.696Z" fill="white"/>
<path d="M481 264V265.544H478.716V271.91H476.617V265.544H474.333V264H481Z" fill="white"/>
<path d="M490 334C490 347.255 479.255 358 466 358C452.745 358 442 347.255 442 334C442 320.745 452.745 310 466 310C479.255 310 490 320.745 490 334Z" fill="#F7B192"/>
<path fill-rule="evenodd" clip-rule="evenodd" d="M466 355.241C477.731 355.241 487.241 345.731 487.241 334C487.241 322.269 477.731 312.759 466 312.759C454.269 312.759 444.759 322.269 444.759 334C444.759 345.731 454.269 355.241 466 355.241ZM466 356C478.15 356 488 346.15 488 334C488 321.85 478.15 312 466 312C453.85 312 444 321.85 444 334C444 346.15 453.85 356 466 356Z" fill="white"/>
<path d="M451 334.766C451 334.113 451.143 333.542 451.43 333.054C451.724 332.565 452.13 332.19 452.645 331.927C453.169 331.664 453.767 331.532 454.438 331.532C455.297 331.532 456.014 331.739 456.587 332.152C457.168 332.565 457.549 333.147 457.729 333.899H455.494C455.306 333.418 454.941 333.177 454.401 333.177C454.016 333.177 453.709 333.316 453.48 333.594C453.251 333.865 453.136 334.255 453.136 334.766C453.136 335.277 453.251 335.671 453.48 335.949C453.709 336.22 454.016 336.355 454.401 336.355C454.941 336.355 455.306 336.115 455.494 335.634H457.729C457.549 336.37 457.168 336.948 456.587 337.369C456.006 337.79 455.289 338 454.438 338C453.767 338 453.169 337.869 452.645 337.606C452.13 337.343 451.724 336.967 451.43 336.479C451.143 335.991 451 335.42 451 334.766Z" fill="white"/>
<path d="M466.563 337.91H464.463L460.951 333.031V337.91H458.852V330H460.951L464.463 334.901V330H466.563V337.91Z" fill="white"/>
<path d="M473.696 330V331.544H470.184V333.211H472.812V334.71H470.184V337.91H468.085V330H473.696Z" fill="white"/>
<path d="M481 330V331.544H478.716V337.91H476.617V331.544H474.333V330H481Z" fill="white"/>
<path d="M490 400C490 413.255 479.255 424 466 424C452.745 424 442 413.255 442 400C442 386.745 452.745 376 466 376C479.255 376 490 386.745 490 400Z" fill="#F7B192"/>
<path fill-rule="evenodd" clip-rule="evenodd" d="M466 421.241C477.731 421.241 487.241 411.731 487.241 400C487.241 388.269 477.731 378.759 466 378.759C454.269 378.759 444.759 388.269 444.759 400C444.759 411.731 454.269 421.241 466 421.241ZM466 422C478.15 422 488 412.15 488 400C488 387.85 478.15 378 466 378C453.85 378 444 387.85 444 400C444 412.15 453.85 422 466 422Z" fill="white"/>
<path d="M451 400.766C451 400.113 451.143 399.542 451.43 399.054C451.724 398.565 452.13 398.19 452.645 397.927C453.169 397.664 453.767 397.532 454.438 397.532C455.297 397.532 456.014 397.739 456.587 398.152C457.168 398.565 457.549 399.147 457.729 399.899H455.494C455.306 399.418 454.941 399.177 454.401 399.177C454.016 399.177 453.709 399.316 453.48 399.594C453.251 399.865 453.136 400.255 453.136 400.766C453.136 401.277 453.251 401.671 453.48 401.949C453.709 402.22 454.016 402.355 454.401 402.355C454.941 402.355 455.306 402.115 455.494 401.634H457.729C457.549 402.37 457.168 402.948 456.587 403.369C456.006 403.79 455.289 404 454.438 404C453.767 404 453.169 403.869 452.645 403.606C452.13 403.343 451.724 402.967 451.43 402.479C451.143 401.991 451 401.42 451 400.766Z" fill="white"/>
<path d="M466.563 403.91H464.463L460.951 399.031V403.91H458.852V396H460.951L464.463 400.901V396H466.563V403.91Z" fill="white"/>
<path d="M473.696 396V397.544H470.184V399.211H472.812V400.71H470.184V403.91H468.085V396H473.696Z" fill="white"/>
<path d="M481 396V397.544H478.716V403.91H476.617V397.544H474.333V396H481Z" fill="white"/>
<path d="M560 202C560 215.255 549.255 226 536 226C522.745 226 512 215.255 512 202C512 188.745 522.745 178 536 178C549.255 178 560 188.745 560 202Z" fill="#9296F7"/>
<path fill-rule="evenodd" clip-rule="evenodd" d="M536 223.241C547.731 223.241 557.241 213.731 557.241 202C557.241 190.269 547.731 180.759 536 180.759C524.269 180.759 514.759 190.269 514.759 202C514.759 213.731 524.269 223.241 536 223.241ZM536 224C548.15 224 558 214.15 558 202C558 189.85 548.15 180 536 180C523.85 180 514 189.85 514 202C514 214.15 523.85 224 536 224Z" fill="white"/>
<path d="M522 202.766C522 202.113 522.138 201.542 522.415 201.054C522.7 200.565 523.092 200.19 523.59 199.927C524.097 199.664 524.675 199.532 525.323 199.532C526.154 199.532 526.847 199.739 527.4 200.152C527.962 200.565 528.33 201.147 528.504 201.899H526.344C526.162 201.418 525.81 201.177 525.288 201.177C524.916 201.177 524.619 201.316 524.398 201.594C524.176 201.865 524.065 202.255 524.065 202.766C524.065 203.277 524.176 203.671 524.398 203.949C524.619 204.22 524.916 204.355 525.288 204.355C525.81 204.355 526.162 204.115 526.344 203.634H528.504C528.33 204.37 527.962 204.948 527.4 205.369C526.839 205.79 526.146 206 525.323 206C524.675 206 524.097 205.869 523.59 205.606C523.092 205.343 522.7 204.967 522.415 204.479C522.138 203.991 522 203.42 522 202.766Z" fill="white"/>
<path d="M537.044 205.91H535.014L531.62 201.031V205.91H529.59V198H531.62L535.014 202.901V198H537.044V205.91Z" fill="white"/>
<path d="M543.939 198V199.544H540.545V201.211H543.085V202.71H540.545V205.91H538.515V198H543.939Z" fill="white"/>
<path d="M551 198V199.544H548.792V205.91H546.763V199.544H544.555V198H551Z" fill="white"/>
<path d="M560 268C560 281.255 549.255 292 536 292C522.745 292 512 281.255 512 268C512 254.745 522.745 244 536 244C549.255 244 560 254.745 560 268Z" fill="#9296F7"/>
<path fill-rule="evenodd" clip-rule="evenodd" d="M536 289.241C547.731 289.241 557.241 279.731 557.241 268C557.241 256.269 547.731 246.759 536 246.759C524.269 246.759 514.759 256.269 514.759 268C514.759 279.731 524.269 289.241 536 289.241ZM536 290C548.15 290 558 280.15 558 268C558 255.85 548.15 246 536 246C523.85 246 514 255.85 514 268C514 280.15 523.85 290 536 290Z" fill="white"/>
<path d="M522 268.766C522 268.113 522.138 267.542 522.415 267.054C522.7 266.565 523.092 266.19 523.59 265.927C524.097 265.664 524.675 265.532 525.323 265.532C526.154 265.532 526.847 265.739 527.4 266.152C527.962 266.565 528.33 267.147 528.504 267.899H526.344C526.162 267.418 525.81 267.177 525.288 267.177C524.916 267.177 524.619 267.316 524.398 267.594C524.176 267.865 524.065 268.255 524.065 268.766C524.065 269.277 524.176 269.671 524.398 269.949C524.619 270.22 524.916 270.355 525.288 270.355C525.81 270.355 526.162 270.115 526.344 269.634H528.504C528.33 270.37 527.962 270.948 527.4 271.369C526.839 271.79 526.146 272 525.323 272C524.675 272 524.097 271.869 523.59 271.606C523.092 271.343 522.7 270.967 522.415 270.479C522.138 269.991 522 269.42 522 268.766Z" fill="white"/>
<path d="M537.044 271.91H535.014L531.62 267.031V271.91H529.59V264H531.62L535.014 268.901V264H537.044V271.91Z" fill="white"/>
<path d="M543.939 264V265.544H540.545V267.211H543.085V268.71H540.545V271.91H538.515V264H543.939Z" fill="white"/>
<path d="M551 264V265.544H548.792V271.91H546.763V265.544H544.555V264H551Z" fill="white"/>
<path d="M560 334C560 347.255 549.255 358 536 358C522.745 358 512 347.255 512 334C512 320.745 522.745 310 536 310C549.255 310 560 320.745 560 334Z" fill="#F7B192"/>
<path fill-rule="evenodd" clip-rule="evenodd" d="M536 355.241C547.731 355.241 557.241 345.731 557.241 334C557.241 322.269 547.731 312.759 536 312.759C524.269 312.759 514.759 322.269 514.759 334C514.759 345.731 524.269 355.241 536 355.241ZM536 356C548.15 356 558 346.15 558 334C558 321.85 548.15 312 536 312C523.85 312 514 321.85 514 334C514 346.15 523.85 356 536 356Z" fill="white"/>
<path d="M522 334.766C522 334.113 522.138 333.542 522.415 333.054C522.7 332.565 523.092 332.19 523.59 331.927C524.097 331.664 524.675 331.532 525.323 331.532C526.154 331.532 526.847 331.739 527.4 332.152C527.962 332.565 528.33 333.147 528.504 333.899H526.344C526.162 333.418 525.81 333.177 525.288 333.177C524.916 333.177 524.619 333.316 524.398 333.594C524.176 333.865 524.065 334.255 524.065 334.766C524.065 335.277 524.176 335.671 524.398 335.949C524.619 336.22 524.916 336.355 525.288 336.355C525.81 336.355 526.162 336.115 526.344 335.634H528.504C528.33 336.37 527.962 336.948 527.4 337.369C526.839 337.79 526.146 338 525.323 338C524.675 338 524.097 337.869 523.59 337.606C523.092 337.343 522.7 336.967 522.415 336.479C522.138 335.991 522 335.42 522 334.766Z" fill="white"/>
<path d="M537.044 337.91H535.014L531.62 333.031V337.91H529.59V330H531.62L535.014 334.901V330H537.044V337.91Z" fill="white"/>
<path d="M543.939 330V331.544H540.545V333.211H543.085V334.71H540.545V337.91H538.515V330H543.939Z" fill="white"/>
<path d="M551 330V331.544H548.792V337.91H546.763V331.544H544.555V330H551Z" fill="white"/>
<path d="M560 400C560 413.255 549.255 424 536 424C522.745 424 512 413.255 512 400C512 386.745 522.745 376 536 376C549.255 376 560 386.745 560 400Z" fill="#F7B192"/>
<path fill-rule="evenodd" clip-rule="evenodd" d="M536 421.241C547.731 421.241 557.241 411.731 557.241 400C557.241 388.269 547.731 378.759 536 378.759C524.269 378.759 514.759 388.269 514.759 400C514.759 411.731 524.269 421.241 536 421.241ZM536 422C548.15 422 558 412.15 558 400C558 387.85 548.15 378 536 378C523.85 378 514 387.85 514 400C514 412.15 523.85 422 536 422Z" fill="white"/>
<path d="M522 400.766C522 400.113 522.138 399.542 522.415 399.054C522.7 398.565 523.092 398.19 523.59 397.927C524.097 397.664 524.675 397.532 525.323 397.532C526.154 397.532 526.847 397.739 527.4 398.152C527.962 398.565 528.33 399.147 528.504 399.899H526.344C526.162 399.418 525.81 399.177 525.288 399.177C524.916 399.177 524.619 399.316 524.398 399.594C524.176 399.865 524.065 400.255 524.065 400.766C524.065 401.277 524.176 401.671 524.398 401.949C524.619 402.22 524.916 402.355 525.288 402.355C525.81 402.355 526.162 402.115 526.344 401.634H528.504C528.33 402.37 527.962 402.948 527.4 403.369C526.839 403.79 526.146 404 525.323 404C524.675 404 524.097 403.869 523.59 403.606C523.092 403.343 522.7 402.967 522.415 402.479C522.138 401.991 522 401.42 522 400.766Z" fill="white"/>
<path d="M537.044 403.91H535.014L531.62 399.031V403.91H529.59V396H531.62L535.014 400.901V396H537.044V403.91Z" fill="white"/>
<path d="M543.939 396V397.544H540.545V399.211H543.085V400.71H540.545V403.91H538.515V396H543.939Z" fill="white"/>
<path d="M551 396V397.544H548.792V403.91H546.763V397.544H544.555V396H551Z" fill="white"/>
<path d="M159 338C152.167 301 170.2 228.8 297 236" stroke="#F7B192" stroke-width="2"/>
<path d="M565 369.5C617.5 397.833 725.5 417.7 737.5 270.5" stroke="#F7B192" stroke-width="2"/>
<path d="M558.127 366.363L569.119 363.504L563.703 376.258L558.127 366.363Z" fill="#F7B192"/>
<path d="M304.198 236.3L295.026 242.999L295.376 229.147L304.198 236.3Z" fill="#F7B192"/>
<defs>
<filter id="filter0_d_5872_6302" x="464" y="0" width="404" height="327" filterUnits="userSpaceOnUse" color-interpolation-filters="sRGB">
<feFlood flood-opacity="0" result="BackgroundImageFix"/>
<feColorMatrix in="SourceAlpha" type="matrix" values="0 0 0 0 0 0 0 0 0 0 0 0 0 0 0 0 0 0 127 0" result="hardAlpha"/>
<feOffset/>
<feGaussianBlur stdDeviation="25"/>
<feComposite in2="hardAlpha" operator="out"/>
<feColorMatrix type="matrix" values="0 0 0 0 0 0 0 0 0 0 0 0 0 0 0 0 0 0 0.25 0"/>
<feBlend mode="normal" in2="BackgroundImageFix" result="effect1_dropShadow_5872_6302"/>
<feBlend mode="normal" in="SourceGraphic" in2="effect1_dropShadow_5872_6302" result="shape"/>
</filter>
<filter id="filter1_d_5872_6302" x="235" y="56" width="401" height="442" filterUnits="userSpaceOnUse" color-interpolation-filters="sRGB">
<feFlood flood-opacity="0" result="BackgroundImageFix"/>
<feColorMatrix in="SourceAlpha" type="matrix" values="0 0 0 0 0 0 0 0 0 0 0 0 0 0 0 0 0 0 127 0" result="hardAlpha"/>
<feOffset/>
<feGaussianBlur stdDeviation="25"/>
<feComposite in2="hardAlpha" operator="out"/>
<feColorMatrix type="matrix" values="0 0 0 0 0 0 0 0 0 0 0 0 0 0 0 0 0 0 0.25 0"/>
<feBlend mode="normal" in2="BackgroundImageFix" result="effect1_dropShadow_5872_6302"/>
<feBlend mode="normal" in="SourceGraphic" in2="effect1_dropShadow_5872_6302" result="shape"/>
</filter>
<filter id="filter2_d_5872_6302" x="308" y="172" width="109.267" height="123" filterUnits="userSpaceOnUse" color-interpolation-filters="sRGB">
<feFlood flood-opacity="0" result="BackgroundImageFix"/>
<feColorMatrix in="SourceAlpha" type="matrix" values="0 0 0 0 0 0 0 0 0 0 0 0 0 0 0 0 0 0 127 0" result="hardAlpha"/>
<feOffset/>
<feGaussianBlur stdDeviation="5"/>
<feComposite in2="hardAlpha" operator="out"/>
<feColorMatrix type="matrix" values="0 0 0 0 0 0 0 0 0 0 0 0 0 0 0 0 0 0 0.25 0"/>
<feBlend mode="normal" in2="BackgroundImageFix" result="effect1_dropShadow_5872_6302"/>
<feBlend mode="normal" in="SourceGraphic" in2="effect1_dropShadow_5872_6302" result="shape"/>
</filter>
<filter id="filter3_d_5872_6302" x="308" y="295" width="109.267" height="123" filterUnits="userSpaceOnUse" color-interpolation-filters="sRGB">
<feFlood flood-opacity="0" result="BackgroundImageFix"/>
<feColorMatrix in="SourceAlpha" type="matrix" values="0 0 0 0 0 0 0 0 0 0 0 0 0 0 0 0 0 0 127 0" result="hardAlpha"/>
<feOffset/>
<feGaussianBlur stdDeviation="5"/>
<feComposite in2="hardAlpha" operator="out"/>
<feColorMatrix type="matrix" values="0 0 0 0 0 0 0 0 0 0 0 0 0 0 0 0 0 0 0.25 0"/>
<feBlend mode="normal" in2="BackgroundImageFix" result="effect1_dropShadow_5872_6302"/>
<feBlend mode="normal" in="SourceGraphic" in2="effect1_dropShadow_5872_6302" result="shape"/>
</filter>
<filter id="filter4_d_5872_6302" x="0" y="281" width="365" height="287" filterUnits="userSpaceOnUse" color-interpolation-filters="sRGB">
<feFlood flood-opacity="0" result="BackgroundImageFix"/>
<feColorMatrix in="SourceAlpha" type="matrix" values="0 0 0 0 0 0 0 0 0 0 0 0 0 0 0 0 0 0 127 0" result="hardAlpha"/>
<feOffset/>
<feGaussianBlur stdDeviation="25"/>
<feComposite in2="hardAlpha" operator="out"/>
<feColorMatrix type="matrix" values="0 0 0 0 0 0 0 0 0 0 0 0 0 0 0 0 0 0 0.25 0"/>
<feBlend mode="normal" in2="BackgroundImageFix" result="effect1_dropShadow_5872_6302"/>
<feBlend mode="normal" in="SourceGraphic" in2="effect1_dropShadow_5872_6302" result="shape"/>
</filter>
<filter id="filter5_d_5872_6302" x="78.8535" y="363" width="107.894" height="123" filterUnits="userSpaceOnUse" color-interpolation-filters="sRGB">
<feFlood flood-opacity="0" result="BackgroundImageFix"/>
<feColorMatrix in="SourceAlpha" type="matrix" values="0 0 0 0 0 0 0 0 0 0 0 0 0 0 0 0 0 0 127 0" result="hardAlpha"/>
<feOffset/>
<feGaussianBlur stdDeviation="5"/>
<feComposite in2="hardAlpha" operator="out"/>
<feColorMatrix type="matrix" values="0 0 0 0 0 0 0 0 0 0 0 0 0 0 0 0 0 0 0.25 0"/>
<feBlend mode="normal" in2="BackgroundImageFix" result="effect1_dropShadow_5872_6302"/>
<feBlend mode="normal" in="SourceGraphic" in2="effect1_dropShadow_5872_6302" result="shape"/>
</filter>
<filter id="filter6_d_5872_6302" x="179.106" y="363" width="109.267" height="123" filterUnits="userSpaceOnUse" color-interpolation-filters="sRGB">
<feFlood flood-opacity="0" result="BackgroundImageFix"/>
<feColorMatrix in="SourceAlpha" type="matrix" values="0 0 0 0 0 0 0 0 0 0 0 0 0 0 0 0 0 0 127 0" result="hardAlpha"/>
<feOffset/>
<feGaussianBlur stdDeviation="5"/>
<feComposite in2="hardAlpha" operator="out"/>
<feColorMatrix type="matrix" values="0 0 0 0 0 0 0 0 0 0 0 0 0 0 0 0 0 0 0.25 0"/>
<feBlend mode="normal" in2="BackgroundImageFix" result="effect1_dropShadow_5872_6302"/>
<feBlend mode="normal" in="SourceGraphic" in2="effect1_dropShadow_5872_6302" result="shape"/>
</filter>
<linearGradient id="paint0_linear_5872_6302" x1="292.525" y1="134.5" x2="580.732" y2="137.143" gradientUnits="userSpaceOnUse">
<stop stop-color="#C5ABE0"/>
<stop offset="1" stop-color="#EA9768"/>
</linearGradient>
</defs>
</svg>
